<?xml version="1.0" encoding="UTF-8" standalone="no"?>
<!-- Created with Inkscape (http://www.inkscape.org/) -->

<svg
   xmlns:dc="http://purl.org/dc/elements/1.1/"
   xmlns:cc="http://creativecommons.org/ns#"
   xmlns:rdf="http://www.w3.org/1999/02/22-rdf-syntax-ns#"
   xmlns:svg="http://www.w3.org/2000/svg"
   xmlns="http://www.w3.org/2000/svg"
   xmlns:sodipodi="http://sodipodi.sourceforge.net/DTD/sodipodi-0.dtd"
   xmlns:inkscape="http://www.inkscape.org/namespaces/inkscape"
   version="1.1"
   id="svg2"
   xml:space="preserve"
   width="474.68268"
   height="198.064"
   viewBox="0 0 474.68268 198.064"
   sodipodi:docname="Jane Street.svg"
   inkscape:version="0.92.5 (2060ec1f9f, 2020-04-08)"><metadata
     id="metadata8"><rdf:RDF><cc:Work
         rdf:about=""><dc:format>image/svg+xml</dc:format><dc:type
           rdf:resource="http://purl.org/dc/dcmitype/StillImage" /><dc:title></dc:title></cc:Work></rdf:RDF></metadata><defs
     id="defs6"><clipPath
       clipPathUnits="userSpaceOnUse"
       id="clipPath18"><path
         d="M 0,148.548 H 356.012 V 0 H 0 Z"
         id="path16"
         inkscape:connector-curvature="0" /></clipPath></defs><sodipodi:namedview
     pagecolor="#ffffff"
     bordercolor="#666666"
     borderopacity="1"
     objecttolerance="10"
     gridtolerance="10"
     guidetolerance="10"
     inkscape:pageopacity="0"
     inkscape:pageshadow="2"
     inkscape:window-width="1177"
     inkscape:window-height="480"
     id="namedview4"
     showgrid="false"
     inkscape:zoom="1.0259485"
     inkscape:cx="237.34134"
     inkscape:cy="99.031998"
     inkscape:window-x="0"
     inkscape:window-y="27"
     inkscape:window-maximized="0"
     inkscape:current-layer="g10" /><g
     id="g10"
     inkscape:groupmode="layer"
     inkscape:label="LOGO_stacked_w_registration_black(1)"
     transform="matrix(1.3333333,0,0,-1.3333333,0,198.064)"><g
       id="g12"><g
         id="g14"
         clip-path="url(#clipPath18)"><g
           id="g20"
           transform="translate(202.8155,84.4977)"><path
             d="M 0,0 C 2.701,0 4.74,1.141 6.121,2.701 V 8.882 C 1.141,8.581 -3.719,7.321 -3.719,3.24 -3.719,1.32 -2.221,0 0,0 m 6.121,13.743 v 2.819 c 0,2.401 -1.381,3.841 -4.439,3.841 -3.061,0 -6.301,-1.26 -10.264,-3.179 l -3.119,6.48 c 4.32,2.16 9.361,3.661 13.742,3.661 9.24,0 12.842,-4.502 12.842,-11.102 V 2.821 c 0,-1.74 1.021,-2.521 2.64,-2.521 v -6.061 c -6.06,0 -8.582,0.901 -10.382,3.961 -2.7,-2.881 -5.702,-4.501 -10.022,-4.501 -5.639,0 -9.599,3.421 -9.599,8.522 0,7.022 6.66,10.681 18.601,11.522"
             style="fill:#231f20;fill-opacity:1;fill-rule:nonzero;stroke:none"
             id="path22"
             inkscape:connector-curvature="0" /></g><g
           id="g24"
           transform="translate(225.7764,111.1413)"><path
             d="m 0,0 h 8.281 l 0.42,-3.72 c 2.342,2.46 5.762,4.501 9.783,4.501 7.2,0 10.26,-4.441 10.26,-11.702 v -21.304 h -8.82 v 21.544 c 0,2.88 -1.199,4.861 -4.201,4.861 -2.702,0 -5.041,-1.379 -6.961,-3.781 V -32.225 H 0 Z"
             style="fill:#231f20;fill-opacity:1;fill-rule:nonzero;stroke:none"
             id="path26"
             inkscape:connector-curvature="0" /></g><g
           id="g28"
           transform="translate(175.1807,120.9245)"><path
             d="m 0,0 v -27.965 c 0,-4.32 -2.1,-6.781 -5.759,-6.781 -2.453,0 -4.383,1.203 -5.891,3.247 l -6.021,-5.454 c 3.105,-3.742 7.312,-5.775 12.392,-5.775 8.761,0 14.342,4.981 14.342,14.582 V 0 Z"
             style="fill:#231f20;fill-opacity:1;fill-rule:nonzero;stroke:none"
             id="path30"
             inkscape:connector-curvature="0" /></g><g
           id="g32"
           transform="translate(174.2373,51.653)"><path
             d="m 0,0 c -4.607,1.166 -8.587,2.173 -8.587,5.597 0,2.858 2.726,4.779 6.784,4.779 3.811,0 7.731,-0.933 11.358,-2.698 l 3.162,6.718 c -4.961,2.316 -9.854,3.442 -14.945,3.442 -9.031,0 -15.338,-5.083 -15.338,-12.361 0,-9.243 7.57,-11.211 14.25,-12.95 4.681,-1.217 8.724,-2.269 8.724,-5.773 0,-3.069 -2.695,-4.902 -7.211,-4.902 -3.909,0 -8.314,1.322 -12.425,3.729 l -4.086,-6.699 c 4.486,-2.734 10.957,-4.491 16.572,-4.491 9.951,0 16.133,4.783 16.133,12.483 C 14.391,-3.64 6.412,-1.621 0,0"
             style="fill:#231f20;fill-opacity:1;fill-rule:nonzero;stroke:none"
             id="path34"
             inkscape:connector-curvature="0" /></g><g
           id="g36"
           transform="translate(195.7354,52.7536)"><path
             d="M 0,0 H -5.102 V 6.241 H 0 v 8.041 H 8.82 V 6.241 h 7.213 V 0 H 8.82 v -16.022 c 0,-2.401 0.901,-3.601 2.942,-3.601 1.621,0 3.121,0.54 4.381,1.44 l 3.242,-5.281 c -2.463,-1.92 -5.883,-3.24 -9.422,-3.24 C 3.24,-26.704 0,-23.403 0,-16.202 Z"
             style="fill:#231f20;fill-opacity:1;fill-rule:nonzero;stroke:none"
             id="path38"
             inkscape:connector-curvature="0" /></g><g
           id="g40"
           transform="translate(219.1201,58.9948)"><path
             d="m 0,0 h 8.104 l 0.597,-4.98 c 2.463,4.321 5.522,5.88 9.182,5.88 1.5,0 2.881,-0.24 3.961,-0.66 l -1.262,-8.042 c -1.139,0.421 -2.52,0.722 -4.32,0.722 -3.301,0 -5.52,-2.042 -7.498,-5.763 V -32.226 H 0 Z"
             style="fill:#231f20;fill-opacity:1;fill-rule:nonzero;stroke:none"
             id="path42"
             inkscape:connector-curvature="0" /></g><g
           id="g44"
           transform="translate(313.2608,52.7536)"><path
             d="M 0,0 H -5.102 V 6.241 H 0 v 8.041 H 8.82 V 6.241 h 7.211 V 0 H 8.82 v -16.022 c 0,-2.401 0.899,-3.601 2.94,-3.601 1.621,0 3.119,0.54 4.381,1.44 l 3.24,-5.281 c -2.459,-1.92 -5.881,-3.24 -9.42,-3.24 -6.723,0 -9.961,3.301 -9.961,10.502 z"
             style="fill:#231f20;fill-opacity:1;fill-rule:nonzero;stroke:none"
             id="path46"
             inkscape:connector-curvature="0" /></g><g
           id="g48"
           transform="translate(276.1787,105.6364)"><path
             d="M 0,0 C 4.201,0 5.76,-3.12 5.76,-7.202 H -7.262 C -6.422,-2.521 -3.6,0 0,0 m -0.24,6.362 c -8.942,0 -16.143,-6.362 -16.143,-16.684 0,-10.802 6.721,-17.103 16.203,-17.103 4.801,0 9.303,1.441 13.264,4.201 l -3.662,5.58 c -2.699,-1.678 -5.701,-2.76 -8.942,-2.76 -4.455,0 -6.99,2.276 -7.751,6.861 h 20.777 c 0.24,1.371 0.596,2.813 0.596,5.201 0,8.642 -5.1,14.704 -14.342,14.704"
             style="fill:#231f20;fill-opacity:1;fill-rule:nonzero;stroke:none"
             id="path50"
             inkscape:connector-curvature="0" /></g><g
           id="g52"
           transform="translate(291.5225,53.4733)"><path
             d="M 0,0 C 4.199,0 5.76,-3.119 5.76,-7.201 H -7.262 C -6.422,-2.521 -3.602,0 0,0 m -0.24,6.363 c -8.944,0 -16.145,-6.363 -16.145,-16.685 0,-10.801 6.723,-17.102 16.203,-17.102 4.801,0 9.303,1.44 13.264,4.201 l -3.66,5.58 c -2.701,-1.679 -5.701,-2.761 -8.944,-2.761 -4.455,0 -6.988,2.277 -7.75,6.861 h 20.778 c 0.24,1.371 0.596,2.814 0.596,5.201 C 14.102,0.301 9,6.363 -0.24,6.363"
             style="fill:#231f20;fill-opacity:1;fill-rule:nonzero;stroke:none"
             id="path54"
             inkscape:connector-curvature="0" /></g><g
           id="g56"
           transform="translate(257.8389,53.4743)"><path
             d="M 0,0 C 4.201,0 5.76,-3.119 5.76,-7.201 H -7.262 C -6.422,-2.521 -3.6,0 0,0 m -0.24,6.363 c -8.942,0 -16.143,-6.363 -16.143,-16.685 0,-10.801 6.721,-17.102 16.203,-17.102 4.801,0 9.303,1.44 13.264,4.201 l -3.662,5.58 c -2.699,-1.679 -5.701,-2.761 -8.942,-2.761 -4.455,0 -6.99,2.277 -7.751,6.861 h 20.777 c 0.24,1.371 0.596,2.814 0.596,5.201 0,8.643 -5.1,14.705 -14.342,14.705"
             style="fill:#231f20;fill-opacity:1;fill-rule:nonzero;stroke:none"
             id="path58"
             inkscape:connector-curvature="0" /></g><g
           id="g60"
           transform="translate(29.0196,49.2663)"><path
             d="M 0,0 C 8.645,-14.739 24.666,-24.645 42.95,-24.595 70.305,-24.521 92.498,-2.206 92.424,25.15 92.35,52.505 70.035,74.699 42.679,74.624 15.325,74.55 -6.869,52.235 -6.795,24.881 c 0.01,-3.327 0.359,-6.574 0.997,-9.718 0.105,-0.405 0.518,-0.625 0.907,-0.528 l 6.904,1.719 c 0.395,0.101 0.673,0.487 0.577,0.904 H 2.593 C 2.116,19.735 1.858,22.29 1.85,24.904 1.789,47.491 20.116,65.918 42.703,65.979 65.29,66.04 83.717,47.714 83.779,25.127 83.84,2.539 65.514,-15.889 42.926,-15.949 27.967,-15.99 14.843,-7.959 7.66,4.027 V 4.026 C 7.466,4.385 7.022,4.555 6.643,4.363 L 0.325,1.025 C -0.045,0.831 -0.208,0.361 0,0"
             style="fill:#231f20;fill-opacity:1;fill-rule:nonzero;stroke:none"
             id="path62"
             inkscape:connector-curvature="0" /></g><g
           id="g64"
           transform="translate(97.9458,63.5651)"><path
             d="m 0,0 6.3,-3.379 c 0.372,-0.195 0.868,-0.077 1.025,0.315 1.729,4.163 2.706,8.712 2.747,13.478 0.165,19.95 -15.931,36.316 -35.882,36.484 l -0.306,10e-4 c -19.783,0 -36.012,-16.096 -36.178,-35.879 -0.166,-19.953 15.928,-36.32 35.879,-36.487 l 0.307,-0.002 c 9.448,0 18.08,3.677 24.545,9.667 0.316,0.277 0.381,0.765 0.086,1.081 l -5.376,4.847 c -0.307,0.279 -0.783,0.228 -1.072,-0.038 l -0.001,0.001 c -4.861,-4.294 -11.231,-6.911 -18.182,-6.911 l -0.234,10e-4 c -15.184,0.127 -27.433,12.584 -27.306,27.767 0.126,15.057 12.476,27.307 27.532,27.307 h 0.234 C -10.698,38.125 1.553,25.669 1.426,10.486 1.398,7.165 0.769,3.984 -0.347,1.038 h 0.001 C -0.513,0.624 -0.366,0.215 0,0"
             style="fill:#231f20;fill-opacity:1;fill-rule:nonzero;stroke:none"
             id="path66"
             inkscape:connector-curvature="0" /></g><g
           id="g68"
           transform="translate(108.2715,125.6882)"><path
             d="m 0,0 c -0.336,0.229 -0.805,0.161 -1.039,-0.185 l -4.033,-5.849 c -0.233,-0.338 -0.201,-0.817 0.141,-1.064 v 10e-4 c 13.851,-9.87 22.911,-26.051 22.906,-44.318 -0.003,-29.99 -24.403,-54.385 -54.394,-54.383 -29.995,0 -54.392,24.4 -54.389,54.398 0.004,29.987 24.403,54.383 54.398,54.375 6.528,0.007 12.786,-1.167 18.592,-3.285 v 0.006 c 0.374,-0.139 0.803,0.044 0.962,0.435 l 2.541,6.671 c 0.142,0.373 -0.037,0.799 -0.406,0.96 -6.768,2.488 -14.071,3.862 -21.689,3.862 -34.757,0.007 -63.04,-28.269 -63.045,-63.027 -0.001,-34.757 28.278,-63.04 63.034,-63.041 34.757,-0.002 63.04,28.272 63.042,63.026 C 26.619,-30.213 16.096,-11.434 0,0"
             style="fill:#231f20;fill-opacity:1;fill-rule:nonzero;stroke:none"
             id="path70"
             inkscape:connector-curvature="0" /></g><g
           id="g72"
           transform="translate(341.8302,65.8713)"><path
             d="m 0,0 h 0.733 c 0.856,0 1.55,0.285 1.55,0.977 0,0.612 -0.45,1.021 -1.427,1.021 C 0.448,1.998 0.163,1.956 0,1.915 Z m -0.041,-3.789 h -1.548 v 6.682 c 0.612,0.123 1.466,0.205 2.568,0.205 1.262,0 1.833,-0.205 2.323,-0.49 0.366,-0.285 0.652,-0.814 0.652,-1.467 0,-0.733 -0.571,-1.304 -1.387,-1.549 v -0.081 c 0.653,-0.244 1.02,-0.734 1.222,-1.63 0.204,-1.018 0.327,-1.427 0.49,-1.67 H 2.608 C 2.404,-3.546 2.283,-2.935 2.079,-2.16 1.956,-1.427 1.548,-1.1 0.694,-1.1 h -0.735 z m -4.115,3.504 c 0,-2.975 2.2,-5.339 5.216,-5.339 2.933,0 5.094,2.364 5.094,5.297 0,2.977 -2.161,5.381 -5.135,5.381 -2.975,0 -5.175,-2.404 -5.175,-5.339 m 12.024,0 c 0,-3.79 -2.977,-6.765 -6.849,-6.765 -3.831,0 -6.887,2.975 -6.887,6.765 0,3.708 3.056,6.683 6.887,6.683 3.872,0 6.849,-2.975 6.849,-6.683"
             style="fill:#231f20;fill-opacity:1;fill-rule:nonzero;stroke:none"
             id="path74"
             inkscape:connector-curvature="0" /></g></g></g></g></svg>