<svg width="126" height="104" viewBox="0 0 126 104" fill="none" xmlns="http://www.w3.org/2000/svg">
<path d="M66.5646 33.2782C66.5646 14.8992 51.7025 -1.52588e-05 33.3693 -1.52588e-05C15.0361 -1.52588e-05 0.174072 14.8992 0.174072 33.2782C0.174072 51.6574 15.0361 66.5564 33.3693 66.5564C51.7025 66.5564 66.5646 51.6574 66.5646 33.2782Z" fill="#3EA947"/>
<path d="M30.43 94.4013H36.3088V72.2084H30.43V94.4013ZM21.3427 83.3425C21.3427 79.9015 18.5602 77.112 15.1279 77.112C11.6952 77.112 8.9129 79.9015 8.9129 83.3425C8.9129 86.7836 11.6952 89.5732 15.1279 89.5732C18.5602 89.5732 21.3427 86.7836 21.3427 83.3425ZM27.3269 83.3265C27.3269 89.8506 22.1661 95.0773 15.7996 95.0773C12.5825 95.0773 10.8343 94.2118 8.91273 92.7501V103.943H3.03412V72.2082H8.91273V73.903C10.8343 72.4412 13.2177 71.5757 15.7996 71.5757C22.335 71.5757 27.3269 76.6395 27.3269 83.3265ZM92.9197 94.3886H98.7985V61.1102H92.9197V94.3886ZM119.731 72.2082L113.645 86.0508L107.95 72.2082H101.365L110.452 93.018L105.449 104H111.691L125.826 72.2082H119.731ZM83.3462 80.8868C83.1595 79.6088 82.5836 78.5877 81.6198 77.8233C80.6552 77.0595 79.4735 76.6774 78.074 76.6774C76.705 76.6774 75.4916 77.0676 74.4348 77.8467C73.3769 78.6265 72.7551 79.6401 72.5685 80.8868H83.3462ZM86.3789 74.9466C88.525 77.1613 89.5983 79.9208 89.5983 83.2258C89.5983 84.2547 89.5667 84.9408 89.505 85.2837L72.2746 85.2788C72.4338 86.5575 72.9098 87.6486 73.8292 88.5511C74.9561 89.6578 76.4175 90.2109 78.1311 90.2109C79.3351 90.2109 80.4311 89.927 81.4192 89.2691C82.0438 88.8533 82.5151 88.3275 82.887 87.7161H89.0147C88.1436 89.961 86.9227 91.7464 84.9324 93.0715C82.9417 94.3972 80.7334 95.0594 78.3073 95.0594C74.8546 95.0594 71.9923 93.9448 69.7224 91.715C67.4516 89.4861 66.3164 86.6867 66.3164 83.3193C66.3164 79.9828 67.42 77.1999 69.6289 74.9701C71.8372 72.7411 74.6519 71.6259 78.074 71.6259C81.4636 71.6259 84.2326 72.7332 86.3789 74.9466ZM60.4802 74.1258C62.243 75.8256 63.1244 78.1246 63.1244 81.0245V94.4013H57.255L57.2539 82.4486C57.2539 78.7586 55.4811 77.1127 52.6394 77.1127C50.4181 77.1127 46.9052 78.287 46.9052 83.3078L46.904 94.4013H41.0268V72.2093H46.904V73.8685C48.4249 72.316 50.9226 71.5767 53.4128 71.5767C56.2451 71.5767 58.7172 72.4266 60.4802 74.1258Z" fill="black"/>
</svg>
