<?xml version="1.0" encoding="UTF-8" standalone="no"?>
<!-- Created with Inkscape (http://www.inkscape.org/) -->

<svg
   xmlns:dc="http://purl.org/dc/elements/1.1/"
   xmlns:cc="http://creativecommons.org/ns#"
   xmlns:rdf="http://www.w3.org/1999/02/22-rdf-syntax-ns#"
   xmlns:svg="http://www.w3.org/2000/svg"
   xmlns="http://www.w3.org/2000/svg"
   xmlns:sodipodi="http://sodipodi.sourceforge.net/DTD/sodipodi-0.dtd"
   xmlns:inkscape="http://www.inkscape.org/namespaces/inkscape"
   version="1.1"
   id="svg834"
   xml:space="preserve"
   width="162.70067"
   height="224.748"
   viewBox="0 0 162.70067 224.748"
   sodipodi:docname="quantco.svg"
   inkscape:version="0.92.5 (2060ec1f9f, 2020-04-08)"><metadata
     id="metadata840"><rdf:RDF><cc:Work
         rdf:about=""><dc:format>image/svg+xml</dc:format><dc:type
           rdf:resource="http://purl.org/dc/dcmitype/StillImage" /><dc:title></dc:title></cc:Work></rdf:RDF></metadata><defs
     id="defs838" /><sodipodi:namedview
     pagecolor="#ffffff"
     bordercolor="#666666"
     borderopacity="1"
     objecttolerance="10"
     gridtolerance="10"
     guidetolerance="10"
     inkscape:pageopacity="0"
     inkscape:pageshadow="2"
     inkscape:window-width="1920"
     inkscape:window-height="1016"
     id="namedview836"
     showgrid="false"
     inkscape:zoom="3.1323201"
     inkscape:cx="81.186002"
     inkscape:cy="115.53066"
     inkscape:window-x="0"
     inkscape:window-y="27"
     inkscape:window-maximized="1"
     inkscape:current-layer="g842"
     fit-margin-top="10"
     fit-margin-left="10"
     fit-margin-right="10"
     fit-margin-bottom="10" /><g
     id="g842"
     inkscape:groupmode="layer"
     inkscape:label="ink_ext_XXXXXX"
     transform="matrix(1.3333333,0,0,-1.3333333,-25.107332,242.98399)"><g
       id="g844"
       transform="scale(0.1)"><path
         d="m 351.555,296.48 c 5.156,6.11 7.91,13.54 8.258,22.282 0.171,2.277 0.265,5.679 0.265,10.226 0,4.551 -0.094,7.871 -0.265,9.973 -0.52,9.437 -3.235,17.348 -8.129,23.738 -4.899,6.371 -12.325,9.571 -22.289,9.571 -18.536,0 -28.415,-11.551 -29.633,-34.622 -0.184,-1.75 -0.266,-4.378 -0.266,-7.867 0,-3.5 0.082,-6.133 0.266,-7.871 1.218,-23.082 11.097,-34.609 29.633,-34.609 9.613,0 17,3.051 22.16,9.179 z m 10.093,-83.011 c -1.222,1.14 -1.835,2.66 -1.835,4.59 v 59.531 c -9.266,-12.41 -22.727,-18.621 -40.383,-18.621 -17.489,0 -30.992,5.64 -40.52,16.922 -9.531,11.269 -14.648,26.089 -15.34,44.441 l -0.265,9.449 0.265,9.438 c 0.692,18.711 5.766,33.613 15.207,44.722 9.442,11.09 22.993,16.649 40.653,16.649 18.351,0 32.343,-6.481 41.957,-19.41 v 10.492 c 0,1.918 0.609,3.449 1.836,4.59 1.218,1.129 2.711,1.707 4.457,1.707 h 21.246 c 1.918,0 3.445,-0.578 4.59,-1.707 1.132,-1.141 1.703,-2.672 1.703,-4.59 V 218.059 c 0,-1.93 -0.571,-3.45 -1.703,-4.59 -1.145,-1.141 -2.672,-1.699 -4.59,-1.699 h -22.817 c -1.75,0 -3.238,0.558 -4.461,1.699"
         style="fill:#231f20;fill-opacity:1;fill-rule:nonzero;stroke:none"
         id="path846"
         inkscape:connector-curvature="0" /><path
         d="m 448.723,274.711 c -9.27,10.488 -13.903,24.91 -13.903,43.269 v 73.692 c 0,1.918 0.61,3.449 1.836,4.59 1.219,1.129 2.707,1.707 4.457,1.707 h 23.606 c 1.746,0 3.23,-0.617 4.457,-1.84 1.219,-1.231 1.836,-2.707 1.836,-4.457 v -72.121 c 0,-21.5 9.347,-32.25 28.058,-32.25 9.094,0 16.305,2.879 21.637,8.648 5.332,5.77 8,13.633 8,23.602 v 72.121 c 0,1.918 0.609,3.449 1.836,4.59 1.219,1.129 2.711,1.707 4.457,1.707 h 23.344 c 1.922,0 3.449,-0.578 4.586,-1.707 1.136,-1.141 1.711,-2.672 1.711,-4.59 V 267.891 c 0,-1.762 -0.575,-3.243 -1.711,-4.461 -1.137,-1.219 -2.664,-1.84 -4.586,-1.84 h -21.766 c -1.754,0 -3.238,0.621 -4.461,1.84 -1.222,1.218 -1.836,2.699 -1.836,4.461 v 10.75 c -9.617,-13.11 -24.129,-19.672 -43.535,-19.672 -16.086,0 -28.762,5.25 -38.023,15.742"
         style="fill:#231f20;fill-opacity:1;fill-rule:nonzero;stroke:none"
         id="path848"
         inkscape:connector-curvature="0" /><path
         d="m 677.926,293.578 c 6.117,6.301 9.179,15.391 9.179,27.281 v 5.243 l -26.226,-4.192 c -20.109,-3.148 -30.16,-9.879 -30.16,-20.191 0,-5.598 2.312,-9.93 6.953,-12.989 4.629,-3.058 10.18,-4.582 16.648,-4.582 9.618,0 17.481,3.153 23.606,9.43 z m -57.043,-29.226 c -7.43,3.578 -13.285,8.429 -17.567,14.546 -4.289,6.122 -6.425,12.852 -6.425,20.192 0,11.898 4.804,21.512 14.422,28.851 9.617,7.34 22.812,12.321 39.601,14.95 l 35.926,5.25 v 5.5 c 0,7.519 -1.922,13.211 -5.77,17.05 -3.847,3.84 -9.961,5.77 -18.355,5.77 -5.774,0 -10.406,-1.051 -13.902,-3.152 -3.497,-2.098 -6.336,-4.239 -8.52,-6.418 -2.188,-2.192 -3.633,-3.641 -4.332,-4.332 -0.695,-2.098 -2.012,-3.149 -3.93,-3.149 H 611.57 c -1.57,0 -2.925,0.531 -4.058,1.578 -1.141,1.043 -1.707,2.442 -1.707,4.203 0.172,4.36 2.316,9.297 6.425,14.809 4.11,5.512 10.446,10.309 19.016,14.422 8.563,4.109 19.141,6.168 31.734,6.168 20.625,0 35.665,-4.641 45.106,-13.899 9.437,-9.269 14.16,-21.429 14.16,-36.453 v -82.347 c 0,-1.762 -0.57,-3.243 -1.703,-4.461 -1.145,-1.219 -2.672,-1.84 -4.59,-1.84 h -21.769 c -1.746,0 -3.239,0.621 -4.457,1.84 -1.227,1.218 -1.836,2.699 -1.836,4.461 v 10.23 c -3.848,-5.601 -9.27,-10.191 -16.258,-13.769 -7,-3.59 -15.738,-5.383 -26.227,-5.383 -8.918,0 -17.09,1.793 -24.523,5.383"
         style="fill:#231f20;fill-opacity:1;fill-rule:nonzero;stroke:none"
         id="path850"
         inkscape:connector-curvature="0" /><path
         d="m 764.211,263.43 c -1.227,1.218 -1.84,2.699 -1.84,4.461 v 123.781 c 0,1.918 0.613,3.449 1.84,4.59 1.219,1.129 2.707,1.707 4.457,1.707 h 21.766 c 1.921,0 3.449,-0.578 4.589,-1.707 1.133,-1.141 1.707,-2.672 1.707,-4.59 v -10.75 c 10.657,13.109 25.262,19.668 43.793,19.668 16.082,0 28.848,-5.25 38.29,-15.738 9.441,-10.481 14.16,-24.911 14.16,-43.27 v -73.691 c 0,-1.762 -0.567,-3.243 -1.703,-4.461 -1.137,-1.219 -2.665,-1.84 -4.59,-1.84 h -23.606 c -1.746,0 -3.234,0.621 -4.457,1.84 -1.222,1.218 -1.836,2.699 -1.836,4.461 v 72.121 c 0,10.136 -2.488,18.047 -7.468,23.726 -4.989,5.684 -12.11,8.532 -21.379,8.532 -8.914,0 -16.086,-2.891 -21.504,-8.661 -5.418,-5.769 -8.129,-13.64 -8.129,-23.597 v -72.121 c 0,-1.762 -0.571,-3.243 -1.703,-4.461 -1.137,-1.219 -2.668,-1.84 -4.59,-1.84 h -23.34 c -1.75,0 -3.238,0.621 -4.457,1.84"
         style="fill:#231f20;fill-opacity:1;fill-rule:nonzero;stroke:none"
         id="path852"
         inkscape:connector-curvature="0" /><path
         d="m 956.965,274.051 c -8.043,8.301 -12.067,20.488 -12.067,36.59 v 59.257 H 924.18 c -1.746,0 -3.239,0.622 -4.457,1.84 -1.227,1.223 -1.836,2.703 -1.836,4.461 v 15.473 c 0,1.75 0.609,3.226 1.836,4.457 1.218,1.223 2.711,1.84 4.457,1.84 h 20.718 v 43.519 c 0,1.934 0.61,3.461 1.836,4.59 1.219,1.152 2.707,1.711 4.457,1.711 h 21.77 c 1.922,0 3.449,-0.559 4.59,-1.711 1.137,-1.129 1.703,-2.656 1.703,-4.59 v -43.519 h 32.786 c 1.74,0 3.23,-0.617 4.45,-1.84 1.22,-1.231 1.84,-2.707 1.84,-4.457 v -15.473 c 0,-1.758 -0.62,-3.238 -1.84,-4.461 -1.22,-1.218 -2.71,-1.84 -4.45,-1.84 H 979.254 V 313.52 c 0,-7.52 1.312,-13.211 3.934,-17.04 2.625,-3.851 6.906,-5.781 12.851,-5.781 h 18.351 c 1.93,0 3.46,-0.558 4.59,-1.711 1.14,-1.129 1.71,-2.66 1.71,-4.578 v -16.519 c 0,-1.762 -0.57,-3.243 -1.71,-4.461 -1.13,-1.219 -2.66,-1.84 -4.59,-1.84 h -21.499 c -15.911,0 -27.887,4.148 -35.926,12.461"
         style="fill:#231f20;fill-opacity:1;fill-rule:nonzero;stroke:none"
         id="path854"
         inkscape:connector-curvature="0" /><path
         d="m 1063.56,274.969 c -11.45,10.66 -17.52,25.441 -18.22,44.32 l -0.26,10.492 0.26,10.481 c 0.7,18.886 6.77,33.668 18.22,44.328 11.45,10.66 26.8,16 46.03,16 13.81,0 25.48,-2.449 35.01,-7.352 9.53,-4.886 16.61,-10.879 21.24,-17.957 4.64,-7.09 7.13,-13.859 7.48,-20.332 0.17,-1.75 -0.4,-3.23 -1.7,-4.449 -1.32,-1.23 -2.85,-1.84 -4.59,-1.84 h -23.34 c -1.93,0 -3.33,0.391 -4.2,1.18 -0.88,0.789 -1.75,2.23 -2.62,4.332 -2.63,6.637 -6.08,11.449 -10.36,14.418 -4.29,2.969 -9.75,4.461 -16.39,4.461 -8.92,0 -15.87,-2.801 -20.85,-8.391 -4.98,-5.601 -7.65,-14.16 -8,-25.699 l -0.26,-9.699 0.26,-8.66 c 1.05,-22.731 10.66,-34.102 28.85,-34.102 6.81,0 12.32,1.449 16.52,4.332 4.19,2.887 7.6,7.738 10.23,14.559 0.69,1.929 1.52,3.32 2.49,4.191 0.96,0.879 2.4,1.316 4.33,1.316 h 23.34 c 1.74,0 3.27,-0.617 4.59,-1.839 1.3,-1.227 1.87,-2.707 1.7,-4.457 -0.35,-6.122 -2.8,-12.711 -7.34,-19.793 -4.55,-7.079 -11.54,-13.168 -20.98,-18.239 -9.44,-5.07 -21.25,-7.601 -35.41,-7.601 -19.23,0 -34.58,5.332 -46.03,16"
         style="fill:#231f20;fill-opacity:1;fill-rule:nonzero;stroke:none"
         id="path856"
         inkscape:connector-curvature="0" /><path
         d="m 1289.11,294.109 c 4.98,5.77 7.64,14.25 7.99,25.442 0.18,1.75 0.27,5.16 0.27,10.23 0,5.059 -0.09,8.469 -0.27,10.231 -0.35,11.179 -3.06,19.707 -8.13,25.566 -5.07,5.863 -12.15,8.793 -21.24,8.793 -9.27,0 -16.43,-2.93 -21.5,-8.793 -5.07,-5.859 -7.78,-14.387 -8.13,-25.566 l -0.26,-10.231 0.26,-10.23 c 0.35,-11.192 3.06,-19.672 8.13,-25.442 5.07,-5.769 12.23,-8.648 21.5,-8.648 9.27,0 16.4,2.879 21.38,8.648 z M 1220,274.711 c -11.19,10.488 -17.22,25 -18.09,43.527 l -0.26,11.543 0.26,11.539 c 0.87,18.36 6.99,32.821 18.35,43.399 11.37,10.57 27.19,15.871 47.47,15.871 20.11,0 35.84,-5.301 47.21,-15.871 11.36,-10.578 17.48,-25.039 18.36,-43.399 0.17,-2.101 0.26,-5.949 0.26,-11.539 0,-5.601 -0.09,-9.449 -0.26,-11.543 -0.88,-18.527 -6.91,-33.039 -18.1,-43.527 -11.19,-10.492 -27.01,-15.742 -47.47,-15.742 -20.63,0 -36.54,5.25 -47.73,15.742"
         style="fill:#231f20;fill-opacity:1;fill-rule:nonzero;stroke:none"
         id="path858"
         inkscape:connector-curvature="0" /><path
         d="m 981.332,944.352 c 50.728,75.378 53.628,185.528 53.628,269.608 0,94.22 -2.9,221.77 -73.913,295.7 -40.594,43.48 -102.922,68.13 -162.356,68.13 -59.429,0 -121.757,-24.65 -162.347,-68.13 -71.031,-73.93 -73.934,-201.48 -73.934,-295.7 0,-94.22 2.903,-220.339 73.934,-294.261 40.59,-43.488 102.918,-68.129 162.347,-68.129 21.743,0 44.93,2.899 66.68,10.149 L 978.434,718.211 C 921.902,693.57 861.023,681.969 798.691,681.969 c -110.168,0 -217.425,37.691 -295.707,115.972 -111.613,111.61 -130.449,247.869 -130.449,416.019 0,168.14 18.836,305.86 130.449,417.47 78.282,78.26 185.539,115.95 295.707,115.95 110.161,0 217.429,-37.69 295.699,-115.95 111.62,-111.61 130.46,-249.33 130.46,-417.47 0,-168.15 -18.84,-302.948 -129.01,-414.562 L 981.332,944.352 c 50.728,75.378 53.628,185.528 53.628,269.608 0,94.22 -2.9,221.77 -73.913,295.7 -40.594,43.48 -102.922,68.13 -162.356,68.13 -59.429,0 -121.757,-24.65 -162.347,-68.13 -71.031,-73.93 -73.934,-201.48 -73.934,-295.7 0,-94.22 2.903,-220.339 73.934,-294.261 40.59,-43.488 102.918,-68.129 162.347,-68.129 21.743,0 44.93,2.899 66.68,10.149 -21.75,-7.25 -44.937,-10.149 -66.68,-10.149 -59.429,0 -121.757,24.641 -162.347,68.129 -71.031,73.922 -73.934,200.041 -73.934,294.261 0,94.22 2.903,221.77 73.934,295.7 40.59,43.48 102.918,68.13 162.347,68.13 59.434,0 121.762,-24.65 162.356,-68.13 71.013,-73.93 73.913,-201.48 73.913,-295.7 0,-84.08 -2.9,-194.23 -53.628,-269.608"
         style="fill:#231f20;fill-opacity:1;fill-rule:nonzero;stroke:none"
         id="path860"
         inkscape:connector-curvature="0" /></g></g></svg>