<?xml version="1.0" encoding="UTF-8"?><svg id="a" xmlns="http://www.w3.org/2000/svg" xmlns:xlink="http://www.w3.org/1999/xlink" width="380.02" height="65.87" viewBox="0 0 380.02 65.87"><defs><radialGradient id="b" cx="17.59" cy="86.13" fx="17.59" fy="86.13" r="169.61" gradientTransform="translate(-4.48 -18.76) scale(.86)" gradientUnits="userSpaceOnUse"><stop offset="0" stop-color="#e07541"/><stop offset=".1" stop-color="#de6e3e"/><stop offset=".25" stop-color="#da5b39"/><stop offset=".26" stop-color="#da5a39"/><stop offset=".26" stop-color="#d95939"/><stop offset=".37" stop-color="#d23b41"/><stop offset=".47" stop-color="#ce2847"/><stop offset=".53" stop-color="#cd2249"/><stop offset=".74" stop-color="#a42e60"/></radialGradient></defs><path d="M132.1,18.95h7.3v-1.27h-8.73v-2.03c2.4-.21,4.57-.52,6.64-.94l.29-.06-.71-1.32-.16.03c-4.74.97-9.57,1.44-14.35,1.42h-.29s.38,1.36.38,1.36h.17c2.33-.04,4.58-.17,6.68-.36v1.9h-8.73v1.27h7.26c-.78.82-1.78,1.62-2.99,2.39-.87.57-1.67,1.02-2.43,1.39-.75.38-1.52.7-2.28.97l-.23.08.6,1.23.19-.07c1.09-.4,2.22-.94,3.37-1.59v9.83h1.35v-1.41h9.21v1.41h1.35v-9.83h-11.92c.61-.35,1.23-.74,1.85-1.16.72-.5,1.41-1.05,2.05-1.64.52-.46.96-.9,1.34-1.33v3.81h1.35v-3.81c1.8,2.03,4.58,3.9,8.25,5.54l.14.06,1.09-1.18-.29-.12c-3.45-1.39-6.05-2.93-7.76-4.58ZM125.42,26.84v-2.22h9.21v2.22h-9.21ZM134.64,28.11v2.39h-9.21v-2.39h9.21Z" fill="#231f20"/><path d="M149.87,17.91l.18.17.84-1.12-.14-.13c-1.02-.95-2.11-1.8-3.35-2.6l-.17-.11-.77,1.03.19.13c1.07.72,2.15,1.61,3.23,2.64Z" fill="#231f20"/><path d="M160.88,21.55h4.42v-1.27h-4.75v-2.65h3.66v-1.27h-3.66v-3.17h-1.35v3.17h-3.46v-3.17h-1.35v3.17h-3.09v1.27h3.09v2.65h-4.32v1.27h4.15c-.32.62-.73,1.27-1.23,1.95-.75.96-1.68,1.85-2.77,2.64l-.21.15,1,.97.15-.12c.64-.49,1.15-.94,1.62-1.4.34-.33.68-.69,1.01-1.09v5.64c0,.44.04.76.14,1.05.09.27.25.48.48.62.11.16.45.28,1.71.36,1.12.07,2.7.11,4.55.11.96,0,1.67-.06,2.19-.2.53-.14.86-.4.94-.73.05-.1.08-.28.16-.83v-.06c.05-.45.11-1.09.17-1.96v-.15s-1.42-.7-1.42-.7l-.02.33c-.09,1.63-.17,2.41-.19,2.48-.12.21-.53.46-1.83.46-4.48,0-5.25-.18-5.36-.26-.07-.07-.11-.13-.14-.22-.02-.05-.05-.16-.03-.37v-2.12h6.16v-4.08c.92.91,2,1.77,3.24,2.56l.16.1,1.05-1.17-.24-.13c-2.03-1.15-3.58-2.43-4.62-3.83ZM159.19,17.63v2.65h-3.46v-2.65h3.46ZM155.14,26.84v-2.14h4.8v2.14h-4.8ZM154.69,23.44c.38-.59.73-1.22,1.03-1.88h3.57c.41.65.89,1.28,1.43,1.88h-6.03Z" fill="#231f20"/><path d="M150.36,24.57l-1.13-.77-.09.29c-.83,2.84-2.01,5.48-3.49,7.85l-.11.18,1.22.86.12-.21c.78-1.42,1.42-2.73,1.97-4,.57-1.36,1.06-2.72,1.46-4.03l.05-.15Z" fill="#231f20"/><path d="M147.34,21.24c.61.54,1.18,1.12,1.61,1.56l.18.18.85-1.1-.13-.14c-1.07-1.11-2.2-2.08-3.36-2.86l-.17-.12-.77,1,.17.13c.55.42,1.08.87,1.63,1.33Z" fill="#231f20"/><path d="M189.81,28.62c-.08.76-.14,1.35-.2,1.79-.08.46-.15.8-.18.93-.03.07-.12.25-.22.25-.13,0-.3-.12-.49-.36-.23-.29-.48-.74-.75-1.34-.19-.33-.34-.67-.45-1.04-.15-.37-.26-.75-.35-1.13h0c1.03-1.47,1.9-3.91,2.59-7.27l.04-.2-1.43-.36-.04.23c-.25,1.29-.54,2.42-.89,3.47-.26.8-.53,1.51-.81,2.11-.15-.61-.27-1.25-.36-1.95-.14-.73-.25-1.55-.34-2.56-.08-.86-.14-1.75-.18-2.72h5.02v-1.27h-2.05l1.03-.71-.09-.17c-.26-.5-.57-.98-.86-1.45-.26-.4-.58-.82-.99-1.34l-.13-.16-1.1.75.13.18c.38.52.67.94.95,1.37.31.48.56.98.78,1.41l.05.11h-2.81c-.07-1.11-.09-2.37-.07-3.85v-.22s-1.44,0-1.44,0v.22c-.02,1.45,0,2.71.07,3.85h-6.14v6.18c-.02.9-.08,1.75-.18,2.55l-.18-1.13-.28.16c-.63.37-1.33.71-2.1,1.02v-5.51h2.43v-1.27h-2.43v-5.41h-1.35v5.41h-2.58v1.27h2.58v6.05c-.38.16-.8.31-1.24.45-.48.17-.99.34-1.49.46l-.27.07.71,1.32.17-.05c.77-.23,1.65-.57,2.77-1.05.88-.36,1.86-.81,3.17-1.45l.06-.03s0,.06-.01.1c-.15.87-.36,1.63-.62,2.25-.29.66-.64,1.26-1.04,1.79-.41.53-.86,1-1.38,1.46l-.16.14.87,1.08.17-.15c.55-.46,1.04-.97,1.52-1.57.47-.61.87-1.27,1.2-1.96.66-1.44,1-3.41,1.02-5.86v-.97h2.96c-.07,1.44-.13,2.37-.2,3.08-.09.87-.17,1.48-.25,1.78-.09.28-.27.62-.6.62-.15.01-.39.01-.74-.08-.33-.07-.68-.17-1.07-.33l-.3-.12v1.48l.14.05c.42.15.85.27,1.26.35.34.08.67.12.89.09.35.03.67-.09.9-.32.23-.19.44-.49.64-.95.15-.41.28-1.12.42-2.33.1-1.01.18-2.35.28-4.36v-.23s-4.32,0-4.32,0v-2.8h4.86c.13,2.21.36,4.22.69,5.97.08.51.17,1.06.3,1.57.1.48.22.92.35,1.33-1.03,1.46-2.42,2.79-4.23,4.05l-.19.13.84,1.09.17-.11c1.58-1.04,2.87-2.18,3.93-3.45.24.71.52,1.34.85,1.89.77,1.36,1.48,2.03,2.17,2.03.46,0,.85-.18,1.17-.56.14-.26.27-.64.4-1.16.13-.51.24-1.16.33-1.97v-.12s-1.25-1.01-1.25-1.01l-.05.49Z" fill="#231f20"/><path d="M207.99,15.98l-.1-.17c-.28-.49-.62-.98-1.02-1.49-.33-.43-.7-.87-1.16-1.38l-.13-.14-1.19.83.17.19c.7.77,1.29,1.57,1.77,2.38h-9.73v1.44h9.31v3.4h-6.99v10h1.52v-8.56h5.46v10.71h1.52v-10.71h5.72v6.26c0,.43-.1.59-.15.64-.03.03-.08.06-.21.06-.84.01-1.81-.2-2.92-.64l-.33-.13.13,1.49.13.05c.49.2,1,.34,1.57.44.47.1.95.15,1.43.15,1.23,0,1.88-.65,1.88-1.88v-7.87h-7.24v-3.4h9.31v-1.44h-9.04l.29-.21Z" fill="#231f20"/><path d="M239.24,29.54c-.9-.82-1.67-1.69-2.34-2.68-.72-.93-1.33-1.96-1.8-3.06-.46-1.03-.79-2.1-1.02-3.25h7.47v-1.52h-9.3c.21-1.55.39-3.38.56-5.6l.02-.24h-1.53l-.02.2c-.06.73-.12,1.42-.18,2.08-.03.35-.06.68-.09,1.01-.09.84-.19,1.73-.31,2.55h-7.72v1.52h7.47c-.23,1.12-.5,2.17-.81,3.14-.34,1-.7,1.82-1.07,2.43-1.37,2.24-3.52,4.17-6.39,5.74l-.27.15,1.17,1.08.14-.08c1.61-.88,2.94-1.8,4.07-2.8,1.14-1.03,2.07-2.16,2.75-3.35.8-1.37,1.47-3.49,1.98-6.3h.44c.26,1.35.63,2.56,1.11,3.68.56,1.3,1.19,2.41,1.91,3.38.75,1.15,1.56,2.15,2.48,3.04.88.86,1.88,1.65,3.08,2.43l.16.11,1.15-1.35-.22-.13c-1.09-.65-2.05-1.38-2.88-2.17Z" fill="#231f20"/><path d="M267.62,27.85h-9.28s0-.03-.01-.05v-.03c1.06-.32,2.01-.66,2.9-1.06,1.01-.43,1.9-.88,2.71-1.38l.1-.06v-1.09h-12.35v1.27h9.46c-1.08.45-2.22.84-3.41,1.15-.02-.03-.03-.06-.05-.09l-.03-.05c-.06-.07-.11-.15-.14-.23l-.09-.21-1.18.54.13.21c.06.11.13.22.19.33.06.11.13.23.19.32.07.15.14.29.2.43h-8.94v1.27h9.32l.1.68c.04.31.06.63.08.91-.02.3-.04.52-.08.67-.04.16-.08.2-.08.2h0c-.06.03-.13.05-.21.07-.06.02-.16.04-.25.04-.65,0-1.36-.16-2.17-.5l-.33-.14.13,1.51.14.04c.41.13.82.24,1.25.33.47.07.87.11,1.23.11.48,0,.88-.12,1.21-.37.35-.3.52-.93.52-1.95v-.12c-.03-.23-.05-.49-.09-.76l-.02-.15c-.03-.18-.05-.37-.08-.56h8.93v-1.27Z" fill="#231f20"/><path d="M250.07,23.21h15.54v2.15h1.33v-3.42h-1.37l.41-7.75h-5.12v1.27h3.71l-.08,1.31h-3.72v1.29h3.65l-.06,1.22h-3.93v1.27h3.86l-.08,1.39h-4.21l.73-.8-.18-.15c-.25-.21-.52-.44-.79-.7-.2-.16-.4-.34-.6-.52.39-.38.76-.83,1.18-1.4l.1-.14-.45-.51.74-.82-.18-.15c-.24-.2-.46-.4-.68-.6l-.05-.04c-.19-.14-.36-.29-.54-.45.21-.21.43-.44.63-.67.28-.3.53-.63.76-.93l.11-.14-.81-.91-.16.22c-.41.57-.9,1.12-1.48,1.68-.56-.4-1.18-.81-1.97-1.33l-.16-.1-.77.91.21.14c.41.27.82.56,1.25.86l.48.33c-.31.23-.58.4-.85.56-.37.25-.77.45-1.17.62h-.02s0-.1,0-.1h-3.99v-.74c.59-.1,1.22-.26,1.9-.47.65-.21,1.3-.47,1.96-.78l.22-.1-.74-1.2-.17.08c-1.41.62-2.87,1.03-4.35,1.24l-.19.03.17,7.13h-1.4v3.42h1.35v-2.15ZM258.34,16.49c.36.35.74.7,1.12,1.06-.38.53-.8,1.01-1.26,1.46-.27-.18-.53-.36-.8-.55-.32-.22-.63-.44-.96-.66l-.1-.06c.29-.15.59-.32.9-.5.41-.24.76-.49,1.09-.75ZM258.21,20.6c.21.21.43.4.65.59.24.24.51.51.77.75h-3.61c.75-.34,1.47-.78,2.19-1.34ZM255.31,17.33l.44.71.18-.08c.08-.04.16-.08.24-.12l-.65.79.65.45c.34.24.7.48,1.06.73-.58.44-1.24.82-1.98,1.15l-.23.1.57.87h0s-4.18,0-4.18,0l-.02-1.48h4.09v-1.27h-4.11l-.02-1.14h3.98v-.73Z" fill="#231f20"/><path d="M132.03,49.3c-.18.36-.41.71-.69,1.06-.28.35-.6.66-.95.94-.35.28-.74.5-1.15.67-.41.17-.83.25-1.27.25-.74,0-1.44-.13-2.07-.39-.63-.26-1.19-.63-1.65-1.11-.47-.48-.84-1.08-1.1-1.79-.27-.7-.4-1.51-.4-2.39s.14-1.7.41-2.41c.27-.71.65-1.32,1.12-1.81.47-.49,1.03-.88,1.66-1.14.63-.27,1.32-.4,2.05-.4.84,0,1.6.24,2.24.7.65.47,1.25,1.23,1.78,2.26l.06.11,1.14-.75-.06-.09c-.27-.44-.6-.87-.97-1.27-.38-.41-.82-.77-1.3-1.08-.48-.31-1.03-.56-1.62-.75-.59-.19-1.24-.28-1.94-.28s-1.42.08-2.07.25c-.64.17-1.24.41-1.79.71-.54.31-1.04.68-1.47,1.1-.43.42-.8.9-1.1,1.41-.3.51-.53,1.06-.69,1.65-.16.58-.24,1.19-.24,1.8,0,.92.18,1.81.52,2.63.35.83.84,1.56,1.47,2.18.63.62,1.4,1.12,2.28,1.48.88.36,1.88.55,2.96.55.75,0,1.44-.09,2.05-.28.61-.18,1.16-.44,1.65-.75.48-.31.92-.68,1.29-1.08.37-.4.69-.83.96-1.27l.06-.1-1.12-.71-.06.11Z" fill="#b01117"/><polygon points="135.61 43.28 135.61 53.08 137.81 53.08 137.81 42.68 137.12 42.68 135.61 43.28" fill="#b01117"/><path d="M137.58,38.27c-.11-.11-.25-.2-.4-.27-.3-.13-.67-.13-.97,0-.15.06-.28.15-.4.27-.11.11-.2.25-.27.4-.06.15-.1.31-.1.48s.03.33.1.48c.06.15.15.28.27.4.11.11.25.2.4.27.15.06.31.1.48.1s.33-.03.48-.1c.15-.06.28-.15.4-.27.11-.11.2-.25.27-.4.06-.15.1-.31.1-.48s-.03-.33-.1-.48c-.06-.15-.15-.28-.27-.4Z" fill="#b01117"/><path d="M145.58,51.28c-.13.15-.28.28-.45.39-.28.17-.65.2-.93.08-.12-.05-.22-.12-.3-.2-.08-.09-.15-.19-.2-.31-.05-.12-.07-.24-.07-.38v-6.92h2.22v-1.08h-2.22v-3.39h-.68l-1.53.59v2.83l-1.74.48v.57h1.74v6.92c0,.35.04.68.12.97.08.3.21.56.38.77.17.22.39.39.65.51.26.12.57.18.92.18.66,0,1.23-.14,1.68-.42.45-.28.82-.66,1.1-1.13l.06-.09-.67-.45-.07.08Z" fill="#b01117"/><path d="M152.76,49.93l-3.76-7.07h-2.51l5.16,9.64-.65,1.45c-.08.18-.17.37-.29.57-.11.2-.24.39-.39.56-.14.17-.3.31-.47.42-.3.19-.68.18-.96.11-.13-.03-.25-.07-.36-.12-.11-.05-.21-.1-.3-.15-.1-.05-.19-.1-.27-.13l-.1-.04-.91,2.04.07.05c.16.13.36.23.59.3.23.08.47.11.72.11.32,0,.66-.06,1-.18.34-.12.68-.3,1-.54.32-.24.62-.55.9-.91.28-.36.53-.8.75-1.29l5.17-11.9h-1.31l-3.09,7.07Z" fill="#b01117"/><path d="M171.92,48.43c0,.54-.09,1.05-.27,1.51-.18.47-.44.88-.78,1.23-.34.35-.75.63-1.23.84-.48.2-1.02.31-1.62.31s-1.14-.1-1.62-.31c-.48-.2-.9-.49-1.24-.84-.34-.35-.6-.77-.79-1.23-.18-.47-.28-.98-.28-1.51v-8.51h-2.4v8.45c0,.69.12,1.34.36,1.95.24.61.61,1.14,1.08,1.6.47.45,1.07.81,1.76,1.07.7.26,1.5.39,2.41.39,1.01,0,1.89-.13,2.61-.39.73-.26,1.33-.62,1.8-1.07.47-.45.82-.98,1.04-1.58.22-.59.33-1.24.33-1.91v-8.51h-1.18v8.51Z" fill="#b01117"/><path d="M183.51,43.6c-.24-.28-.52-.51-.83-.67-.32-.16-.66-.25-1.03-.25-.68,0-1.37.17-2.03.51-.59.3-1.16.75-1.72,1.33v-1.84h-.68l-1.54.59v9.81h2.22v-7.46c.21-.2.42-.38.65-.54.23-.17.47-.32.71-.44.24-.12.47-.22.7-.29.47-.14.89-.13,1.22.02.18.08.33.2.46.36.13.16.24.36.31.59.07.24.11.52.11.84v6.93h2.21v-7.27c0-.43-.07-.83-.2-1.21-.13-.38-.32-.71-.56-1Z" fill="#b01117"/><polygon points="187.21 43.28 187.21 53.08 189.41 53.08 189.41 42.68 188.72 42.68 187.21 43.28" fill="#b01117"/><path d="M189.18,38.27c-.11-.11-.25-.2-.4-.27-.3-.13-.67-.13-.97,0-.15.06-.28.15-.4.27-.11.11-.2.25-.27.4-.06.15-.1.31-.1.48s.03.33.1.48c.06.15.15.28.27.4.11.11.25.2.4.27.15.06.31.1.48.1s.33-.03.48-.1c.15-.06.28-.15.4-.27.11-.11.2-.25.27-.4.06-.15.1-.31.1-.48s-.03-.33-.1-.48c-.06-.15-.15-.28-.27-.4Z" fill="#b01117"/><polygon points="196.41 50.26 192.99 42.93 192.96 42.86 190.63 42.86 195.41 53.12 195.44 53.18 196.27 53.18 200.87 42.86 199.72 42.86 196.41 50.26" fill="#b01117"/><path d="M210.37,49.19c-.09.3-.24.59-.46.87-.22.28-.49.54-.8.76-.31.22-.66.4-1.05.54-.38.14-.79.2-1.2.2-.49,0-.95-.11-1.36-.34-.41-.22-.77-.54-1.08-.94-.3-.4-.54-.89-.71-1.45-.16-.53-.24-1.1-.25-1.72h7.44v-.11c0-.57-.11-1.12-.34-1.63-.22-.52-.54-.98-.94-1.38-.4-.4-.89-.71-1.44-.95-.56-.24-1.18-.36-1.84-.36-.75,0-1.45.14-2.06.43-.61.29-1.15.68-1.58,1.19-.44.5-.78,1.11-1.02,1.8-.24.69-.36,1.45-.36,2.26,0,.68.13,1.32.39,1.92.26.6.62,1.13,1.07,1.57.45.44.99.8,1.59,1.06.61.26,1.26.39,1.95.39.53,0,1.05-.1,1.56-.3.51-.2.99-.47,1.42-.81.43-.34.81-.74,1.14-1.2.33-.46.56-.96.71-1.48l.03-.09-.78-.35-.04.12ZM203.48,46.07c.03-.32.11-.62.23-.89.13-.31.31-.59.51-.81.2-.23.44-.4.7-.53.57-.28,1.23-.23,1.77,0,.3.13.56.31.78.54.22.23.4.5.53.81.11.28.18.58.19.9h-4.71Z" fill="#b01117"/><path d="M219.46,42.8c-.61-.17-1.27-.16-1.89.04-.32.1-.63.25-.92.44-.29.19-.56.41-.8.66-.16.17-.31.36-.43.55l-.23-1.81h-.4l-1.53.58v9.82h2.21v-7.04c.13-.27.28-.52.45-.72.17-.21.36-.38.57-.51.2-.13.42-.24.65-.3.37-.11.76-.12,1.15-.08.15.01.29.04.43.09.14.05.28.11.41.19.13.08.26.19.38.33l.13.14.72-1.93-.07-.05c-.26-.18-.53-.31-.83-.39Z" fill="#b01117"/><path d="M227.48,48.16c-.28-.24-.6-.46-.95-.64-.35-.18-.71-.36-1.07-.51l-1.06-.46c-.34-.15-.65-.31-.91-.48-.26-.17-.47-.36-.63-.57-.15-.2-.23-.44-.23-.71,0-.16.04-.32.13-.46.09-.15.21-.28.36-.39.16-.11.35-.2.57-.27.22-.07.47-.1.75-.1.5,0,.98.15,1.43.44.45.29.86.74,1.23,1.34l.07.12.91-.82-.07-.08c-.31-.39-.6-.72-.88-.97-.28-.25-.57-.44-.85-.58-.28-.13-.58-.23-.87-.27-.29-.05-.61-.07-.94-.07-.5,0-.98.07-1.4.22-.43.14-.8.35-1.11.6-.31.26-.56.57-.74.92-.18.36-.27.74-.27,1.16,0,.44.08.83.24,1.16.16.33.37.62.63.87.26.25.55.46.88.65.32.18.65.35.98.51.33.16.66.31.98.46.31.15.59.31.84.48.24.17.43.37.58.58.14.21.21.46.21.74,0,.17-.04.34-.12.5-.08.16-.2.31-.36.44-.16.13-.34.23-.56.31-.44.16-1.02.14-1.47.02-.23-.07-.46-.17-.68-.32-.22-.15-.44-.34-.66-.57-.22-.23-.45-.52-.68-.85l-.07-.1-.98.89.06.08c.3.4.62.72.94.97.32.25.64.44.96.58.32.14.64.23.96.28.31.05.62.07.92.07.65,0,1.23-.08,1.71-.24.49-.16.9-.38,1.22-.66.33-.28.58-.62.74-1,.16-.38.24-.79.24-1.23s-.09-.82-.26-1.15c-.17-.32-.4-.61-.68-.86Z" fill="#b01117"/><path d="M232.64,38.27c-.11-.11-.25-.2-.4-.27-.3-.13-.67-.13-.97,0-.15.06-.28.15-.4.27-.11.11-.2.25-.27.4-.06.15-.1.31-.1.48s.03.33.1.48c.06.15.15.28.27.4.11.11.25.2.4.27.15.06.31.1.48.1s.33-.03.48-.1c.15-.06.28-.15.4-.27.11-.11.2-.25.27-.4.06-.15.1-.31.1-.48s-.03-.33-.1-.48c-.06-.15-.15-.28-.27-.4Z" fill="#b01117"/><polygon points="230.67 43.28 230.67 53.08 232.87 53.08 232.87 42.68 232.18 42.68 230.67 43.28" fill="#b01117"/><path d="M240.63,51.28c-.13.15-.28.28-.45.39-.28.17-.65.2-.93.08-.12-.05-.22-.12-.3-.2-.08-.09-.15-.19-.2-.31-.05-.12-.07-.24-.07-.37v-6.92h2.22v-1.08h-2.22v-3.39h-.68l-1.53.59v2.83l-1.74.48v.57h1.74v6.92c0,.36.04.68.12.97.08.3.21.56.38.77.17.22.39.39.65.51.26.12.57.18.92.18.66,0,1.23-.14,1.68-.42.45-.28.82-.66,1.1-1.13l.05-.09-.67-.45-.07.08Z" fill="#b01117"/><path d="M247.82,49.93l-3.76-7.07h-2.51l5.16,9.64-.65,1.45c-.07.17-.17.37-.29.57-.11.2-.24.39-.39.56-.14.17-.3.31-.47.42-.17.11-.34.16-.52.16-.16,0-.31-.02-.43-.05-.13-.03-.25-.07-.36-.12-.11-.05-.21-.1-.3-.15-.1-.05-.19-.1-.27-.13l-.1-.04-.91,2.04.07.05c.16.13.36.23.59.3.23.08.47.11.72.11.32,0,.66-.06,1-.18.34-.12.68-.3,1-.54.32-.24.62-.55.9-.91.28-.36.53-.8.75-1.29l5.17-11.9h-1.31l-3.09,7.07Z" fill="#b01117"/><path d="M265.94,44.13c-.48-.45-1.05-.81-1.7-1.07-.65-.26-1.37-.39-2.14-.39s-1.51.14-2.16.42c-.65.28-1.23.67-1.7,1.16-.48.49-.85,1.07-1.12,1.73-.27.66-.4,1.37-.4,2.12s.14,1.39.4,2.02c.27.63.65,1.18,1.12,1.65.48.47,1.05.84,1.7,1.11.65.27,1.38.41,2.16.41s1.5-.15,2.15-.44c.65-.29,1.22-.7,1.7-1.21.48-.51.85-1.11,1.12-1.78.27-.68.4-1.41.4-2.17,0-.7-.14-1.36-.41-1.96-.27-.61-.65-1.14-1.12-1.59ZM263.49,52.05c-.31.19-.65.29-1.01.29-.52,0-.99-.13-1.4-.4-.41-.27-.76-.63-1.05-1.09-.29-.46-.51-1.01-.66-1.63-.15-.63-.23-1.31-.23-2.02,0-.49.07-.95.21-1.38.14-.43.33-.81.56-1.13.23-.32.49-.57.79-.75.29-.18.6-.27.91-.27.62,0,1.15.13,1.58.39.43.26.79.62,1.05,1.07.27.45.47,1,.59,1.61.12.62.18,1.3.18,2.01,0,.49-.06.96-.19,1.39-.13.44-.31.82-.53,1.15-.22.33-.49.59-.81.78Z" fill="#b01117"/><path d="M276.86,38.95c-.22-.25-.48-.47-.77-.64-.29-.17-.6-.3-.94-.4-.34-.09-.69-.14-1.05-.14-.53,0-1.03.11-1.5.32-.46.21-.87.51-1.22.87-.34.36-.62.8-.82,1.28-.2.49-.3,1.02-.3,1.58v1.04h-2.08v1.08h2.08v9.14h2.22v-9.14h2.66v-1.08h-2.66v-2.24c0-.24.03-.48.1-.71.06-.23.16-.43.28-.61.12-.17.26-.31.43-.42.16-.1.34-.15.53-.15.32,0,.58.06.79.19.21.13.39.29.53.5.14.21.26.45.36.7.1.26.18.53.25.78l.04.16,1.65-1.19-.04-.08c-.13-.31-.32-.59-.54-.84Z" fill="#b01117"/><polygon points="290.33 45.81 284.07 45.81 284.07 39.92 281.67 39.92 281.67 53.08 284.07 53.08 284.07 46.87 290.33 46.87 290.33 53.08 292.74 53.08 292.74 39.92 290.33 39.92 290.33 45.81" fill="#b01117"/><path d="M304.09,44.13c-.48-.45-1.05-.81-1.7-1.07-.65-.26-1.37-.39-2.14-.39s-1.51.14-2.16.42c-.65.28-1.23.67-1.7,1.16-.48.49-.85,1.07-1.12,1.73-.27.66-.4,1.37-.4,2.12s.14,1.39.4,2.02c.27.63.65,1.18,1.12,1.65.48.47,1.05.84,1.7,1.11.65.27,1.38.41,2.16.41s1.5-.15,2.15-.44c.65-.29,1.22-.7,1.7-1.21.48-.51.85-1.11,1.12-1.78.27-.68.4-1.41.4-2.17,0-.7-.14-1.36-.41-1.96-.27-.61-.64-1.14-1.12-1.59ZM301.64,52.05c-.31.19-.65.29-1.01.29-.52,0-.99-.13-1.4-.4-.41-.27-.76-.63-1.05-1.09-.29-.46-.51-1.01-.66-1.63-.15-.63-.23-1.31-.23-2.02,0-.49.07-.95.21-1.38.14-.43.33-.81.56-1.13.23-.32.49-.57.79-.75.29-.18.6-.27.91-.27.62,0,1.15.13,1.58.39.43.26.78.62,1.05,1.07.27.45.47,1,.59,1.61.12.62.18,1.3.18,2.01,0,.49-.06.96-.19,1.39-.13.44-.31.82-.53,1.15-.22.33-.49.59-.8.78Z" fill="#b01117"/><path d="M315.54,43.6c-.24-.28-.52-.51-.83-.67-.32-.16-.66-.25-1.03-.25-.68,0-1.37.17-2.03.51-.59.3-1.16.75-1.72,1.33v-1.84h-.68l-1.54.59v9.81h2.22v-7.46c.2-.2.42-.38.64-.54.24-.17.48-.32.71-.44.23-.12.47-.22.7-.29.47-.14.89-.13,1.22.02.18.08.33.2.46.36.13.16.24.36.31.59.07.24.11.52.11.84v6.93h2.21v-7.27c0-.43-.07-.84-.2-1.21-.13-.38-.32-.71-.56-1Z" fill="#b01117"/><path d="M325.34,43.13c-.2-.09-.43-.16-.68-.23-.26-.07-.53-.12-.82-.16-.29-.04-.6-.06-.9-.06-.63,0-1.22.1-1.76.29-.54.19-1.02.46-1.42.79-.41.33-.73.73-.96,1.18-.23.45-.35.93-.35,1.44,0,.69.2,1.3.59,1.83.34.46.8.84,1.38,1.12-.2.09-.38.19-.56.31-.25.17-.47.36-.66.56-.19.2-.35.42-.46.65-.11.23-.17.46-.17.68,0,.16.04.3.11.44.07.13.17.26.3.37.12.11.27.21.44.29.11.05.22.1.33.15-.2.16-.4.32-.61.49-.26.22-.51.45-.72.68-.22.24-.4.49-.54.74-.14.27-.22.55-.22.84,0,.34.11.64.33.92.21.26.54.49.96.68.42.18.94.32,1.57.42.62.1,1.36.15,2.18.15.93,0,1.77-.09,2.51-.28.74-.18,1.38-.45,1.89-.79.52-.34.92-.76,1.2-1.24.28-.49.42-1.04.42-1.63,0-.34-.05-.65-.15-.92-.1-.28-.28-.52-.53-.73-.25-.2-.58-.36-.98-.48-.4-.12-.91-.19-1.5-.21l-3.69-.17c-.38-.02-.68-.08-.88-.19-.18-.1-.27-.22-.27-.38,0-.18.06-.37.18-.56.11-.18.25-.34.41-.47.19.06.4.11.65.14.27.04.53.06.79.06.69,0,1.33-.09,1.9-.25.58-.17,1.08-.41,1.49-.73.42-.31.75-.69.98-1.13.24-.44.36-.93.36-1.47,0-.34-.06-.7-.19-1.05-.1-.27-.22-.53-.36-.76h1.79v-1.07h-2.92c-.12-.09-.26-.18-.45-.26ZM319.85,54.17c.04-.14.09-.29.17-.43.07-.14.17-.28.27-.41.09-.12.21-.22.33-.32.14.02.35.04.64.08.33.04.7.07,1.12.1.42.03.88.06,1.37.08.48.02.97.03,1.46.03.38,0,.72.03,1.01.08.29.05.55.13.75.22.2.1.35.22.45.36.1.14.15.31.15.51,0,.18-.09.37-.26.56-.18.2-.45.38-.8.55-.36.17-.8.3-1.31.41-.51.1-1.11.15-1.76.15-.61,0-1.16-.05-1.62-.13-.46-.09-.84-.21-1.15-.36-.3-.15-.52-.32-.66-.5-.14-.18-.21-.37-.21-.56,0-.13.02-.26.05-.41ZM321.89,43.62c.23-.13.5-.19.81-.19s.62.08.91.25c.29.17.55.4.76.7.22.3.39.65.53,1.06.13.41.19.85.19,1.33,0,.33-.06.64-.17.92-.11.28-.26.53-.45.74-.19.21-.41.38-.65.5-.54.26-1.16.23-1.63-.05-.26-.15-.49-.37-.69-.64-.19-.28-.35-.61-.45-.99-.11-.38-.16-.79-.16-1.23,0-.37.04-.71.11-1.03.07-.31.18-.59.33-.82.15-.23.33-.41.56-.53Z" fill="#b01117"/><polygon points="344.24 39.92 342.48 39.92 335.82 45.52 335.82 39.92 333.42 39.92 333.42 53.08 335.82 53.08 335.82 46.66 342.82 53.05 342.85 53.08 345.96 53.08 337.65 45.48 344.24 39.92" fill="#b01117"/><path d="M355.4,44.13c-.48-.45-1.05-.81-1.7-1.07-.65-.26-1.37-.39-2.14-.39s-1.51.14-2.16.42c-.65.28-1.23.67-1.7,1.16-.48.49-.85,1.07-1.12,1.73-.27.66-.4,1.37-.4,2.12s.14,1.39.4,2.02c.27.63.65,1.18,1.12,1.65.48.47,1.05.84,1.7,1.11.65.27,1.38.41,2.16.41s1.5-.15,2.15-.44c.65-.29,1.22-.7,1.7-1.21.48-.51.85-1.11,1.12-1.78.27-.68.4-1.41.4-2.17,0-.7-.14-1.36-.41-1.96-.27-.61-.64-1.14-1.12-1.59ZM352.95,52.05c-.31.19-.65.29-1.01.29-.52,0-.99-.13-1.4-.4-.41-.27-.76-.63-1.05-1.09-.29-.46-.51-1.01-.66-1.63-.15-.63-.23-1.31-.23-2.02,0-.49.07-.95.21-1.38.14-.43.33-.81.56-1.13.23-.32.49-.57.79-.75.29-.18.6-.27.91-.27.62,0,1.15.13,1.58.39.43.26.78.62,1.05,1.07.27.45.47,1,.59,1.61.12.62.18,1.3.18,2.01,0,.49-.06.96-.19,1.39-.13.44-.31.82-.53,1.15-.22.33-.49.59-.8.78Z" fill="#b01117"/><path d="M366.85,43.6c-.24-.28-.52-.51-.83-.67-.32-.16-.66-.25-1.03-.25-.68,0-1.37.17-2.03.51-.59.3-1.16.75-1.72,1.33v-1.84h-.68l-1.54.59v9.81h2.22v-7.46c.2-.2.42-.38.65-.54.24-.17.47-.32.71-.44.23-.12.47-.22.7-.29.47-.14.89-.13,1.22.02.18.08.33.2.46.36.13.16.24.36.31.59.07.24.11.52.11.84v6.93h2.21v-7.27c0-.43-.07-.84-.2-1.21-.13-.38-.32-.71-.56-1Z" fill="#b01117"/><path d="M380.02,43.39h-2.92c-.12-.09-.26-.18-.45-.26-.2-.09-.43-.16-.68-.23-.26-.07-.53-.12-.82-.16-.29-.04-.6-.06-.9-.06-.63,0-1.22.1-1.76.29-.54.19-1.02.46-1.42.79-.41.33-.73.73-.96,1.18-.23.45-.35.93-.35,1.44,0,.69.2,1.3.59,1.83.34.46.8.84,1.38,1.12-.2.09-.38.19-.56.31-.25.17-.47.36-.66.56-.19.2-.35.42-.46.65-.11.23-.17.46-.17.68,0,.16.04.3.11.44.07.13.17.26.3.37.12.11.27.21.44.29.11.05.22.1.33.15-.2.16-.4.32-.61.49-.26.22-.51.45-.72.68-.22.24-.4.49-.54.74-.14.27-.22.55-.22.84,0,.34.11.64.33.92.21.26.54.49.96.68.42.18.94.32,1.57.42.62.1,1.36.15,2.18.15.93,0,1.77-.09,2.51-.28.74-.18,1.38-.45,1.89-.79.52-.34.92-.76,1.2-1.24.28-.49.42-1.04.42-1.63,0-.34-.05-.65-.15-.92-.1-.28-.28-.52-.53-.73-.25-.2-.58-.36-.98-.48-.4-.12-.91-.19-1.5-.21l-3.69-.17c-.38-.02-.68-.08-.88-.19-.18-.1-.27-.22-.27-.38,0-.18.06-.37.18-.56.11-.18.25-.34.41-.47.19.06.4.11.65.14.27.04.53.06.79.06.69,0,1.33-.09,1.9-.25.58-.17,1.08-.41,1.49-.73.42-.31.75-.69.98-1.13.24-.44.36-.93.36-1.47,0-.34-.06-.7-.19-1.05-.1-.27-.22-.53-.36-.76h1.79v-1.07ZM371.16,54.17c.04-.14.09-.29.17-.43.07-.14.17-.28.27-.41.09-.12.21-.22.33-.32.14.02.35.04.64.08.33.04.7.07,1.12.1.42.03.88.06,1.37.08.48.02.97.03,1.46.03.38,0,.72.03,1.01.08.29.05.55.13.75.22.2.1.35.22.45.36.1.14.15.31.15.51,0,.18-.09.37-.26.56-.18.2-.45.38-.8.55-.36.17-.8.3-1.31.41-.51.1-1.11.15-1.76.15-.61,0-1.16-.05-1.62-.13-.46-.09-.84-.21-1.15-.36-.3-.15-.52-.32-.66-.5-.14-.18-.21-.37-.21-.56,0-.13.02-.26.05-.41ZM373.2,43.62c.23-.13.5-.19.81-.19s.62.08.91.25c.29.17.55.4.76.7.22.3.39.65.53,1.06.13.41.19.85.19,1.33,0,.33-.06.64-.17.92-.11.28-.26.53-.45.74-.19.21-.41.38-.65.5-.54.26-1.15.23-1.63-.05-.26-.15-.49-.37-.69-.64-.19-.28-.35-.61-.45-.99-.11-.38-.16-.79-.16-1.23,0-.37.04-.71.11-1.03.07-.31.18-.59.33-.82.15-.23.33-.41.56-.53Z" fill="#b01117"/><path d="M98.91.28c4.03-1.01,7.69,2.65,6.66,6.69l-14.41,56.25c-.02.08-.06.15-.08.22h.01s18.59-51.22,18.59-51.22c2.49-6.87-3.71-13.71-10.77-11.94Z" fill="#981b49"/><path d="M98.86.29L20.95,20.54c-1.8.47-4.2,2.07-5.33,3.55L.58,43.95c-1.13,1.49-.56,3.02,1.27,3.42l17,3.68c-.67-.44-1.29-.94-1.84-1.52-1.03-1.08-1.79-2.38-2.3-3.9-.51-1.51-.68-3.18-.52-5,.16-1.86.63-3.55,1.42-5.06.78-1.51,1.79-2.8,3.03-3.86,1.24-1.06,2.65-1.88,4.24-2.45,1.59-.57,3.28-.86,5.06-.86,1.65,0,3.25.29,4.79.87,1.54.58,2.76,1.43,3.66,2.55l-4.16,3.81c-.46-.72-1.11-1.26-1.94-1.61-.83-.35-1.69-.53-2.59-.53-.99,0-1.91.18-2.77.54-.86.36-1.61.86-2.26,1.5-.65.64-1.18,1.39-1.58,2.25-.41.87-.65,1.81-.74,2.84-.09,1.05-.01,2.02.24,2.89.25.88.64,1.63,1.17,2.25.53.62,1.18,1.11,1.97,1.46.78.35,1.66.53,2.63.53,1.12,0,2.12-.22,2.99-.66.87-.44,1.6-1.01,2.16-1.71l3.61,3.68c-1.14,1.18-2.5,2.12-4.08,2.81-1.16.51-2.43.83-3.81.96l28.64,6.19.82-3.75c.26.09.54.16.86.21.31.05.6.08.87.08.84,0,1.46-.19,1.87-.58.41-.38.77-.93,1.1-1.63l.65-1.35-5.46-16.11h6.01l2.74,10.52h.1l4.19-10.52h5.74l-9.01,18.84c-.4.85-.84,1.62-1.31,2.28-.47.67-1,1.24-1.6,1.71-.6.47-1.29.83-2.07,1.07-.28.09-.58.15-.89.21l26.56,5.74c1.82.39,3.69-.76,4.15-2.57l14.41-56.25c1.04-4.05-2.65-7.73-6.7-6.68ZM41.56,52.31h-5.41l1.43-16.37h5.41l-1.43,16.37ZM43.5,31.87c-.2.36-.44.67-.74.94-.3.26-.65.47-1.05.62-.4.15-.81.23-1.22.23-.88,0-1.59-.29-2.14-.87-.54-.58-.78-1.28-.71-2.09.03-.39.14-.77.33-1.13.19-.36.43-.67.74-.94.31-.26.66-.48,1.05-.64.39-.16.8-.25,1.24-.25.42,0,.81.08,1.18.23.37.15.68.36.94.62.25.26.44.58.58.94.13.36.18.75.15,1.17-.04.42-.15.81-.35,1.17ZM55.77,39.95h-3.86l-.55,6.27c-.07.77.03,1.35.29,1.73.26.39.78.58,1.55.58.26,0,.55-.02.85-.07.3-.04.55-.11.76-.2l-.28,3.95c-.39.13-.87.25-1.45.35-.58.1-1.16.15-1.73.15-1.1,0-2.01-.14-2.74-.41-.72-.27-1.29-.67-1.69-1.19-.41-.52-.68-1.13-.81-1.85-.14-.71-.16-1.51-.09-2.39l.61-6.92h-2.64l.35-4.01h2.61l.38-4.31h5.31l-.38,4.31h3.86l-.35,4.01ZM95.94,43.53c-.12,1.4-.47,2.68-1.05,3.83-.57,1.15-1.34,2.14-2.29,2.96-.95.82-2.07,1.46-3.35,1.92-1.28.46-2.68.69-4.2.69s-2.91-.23-4.1-.69c-1.19-.46-2.18-1.1-2.97-1.92-.79-.82-1.36-1.81-1.72-2.96-.36-1.15-.48-2.43-.36-3.83l1.27-14.5h5.61l-1.23,14.04c-.06.64-.03,1.24.09,1.81.12.57.32,1.08.63,1.53.3.45.72.81,1.26,1.07.54.26,1.2.39,1.99.39s1.48-.13,2.06-.39c.58-.26,1.07-.62,1.46-1.07.39-.45.69-.96.89-1.53.2-.57.33-1.17.39-1.81l1.23-14.04h5.64l-1.27,14.5Z" fill="url(#b)"/><path d="M55.85,59.05l.82-3.75c.26.09.54.16.86.21.31.05.6.08.87.08.84,0,1.46-.19,1.87-.58.41-.38.77-.93,1.1-1.63l.65-1.35-5.46-16.11h6.01l2.74,10.52h.1l4.19-10.52h5.74l-9.01,18.84c-.4.85-.84,1.62-1.31,2.28-.47.67-1,1.24-1.6,1.71-.6.47-1.29.83-2.07,1.07-.28.09-.58.15-.89.21l-4.6-.99ZM18.85,51.05c-.67-.44-1.29-.94-1.84-1.52-1.03-1.08-1.79-2.38-2.3-3.9-.51-1.51-.68-3.18-.52-5,.16-1.86.63-3.55,1.42-5.06.78-1.51,1.79-2.8,3.03-3.86,1.24-1.06,2.65-1.88,4.24-2.45,1.59-.57,3.28-.86,5.06-.86,1.65,0,3.25.29,4.79.87,1.54.58,2.76,1.43,3.66,2.55l-4.16,3.81c-.46-.72-1.11-1.26-1.94-1.61-.83-.35-1.69-.53-2.59-.53-.99,0-1.91.18-2.77.54-.86.36-1.61.86-2.26,1.5-.65.64-1.18,1.39-1.58,2.25-.41.87-.65,1.81-.74,2.84-.09,1.05-.01,2.02.24,2.89.25.88.64,1.63,1.17,2.25.53.62,1.18,1.11,1.97,1.46.78.35,1.66.53,2.63.53,1.12,0,2.12-.22,2.99-.66.87-.44,1.6-1.01,2.16-1.71l3.61,3.68c-1.14,1.18-2.5,2.12-4.08,2.81-1.16.51-2.43.83-3.81.96l-8.37-1.81ZM41.56,52.31h-5.41l1.43-16.37h5.41l-1.43,16.37ZM43.5,31.87c-.2.36-.44.67-.74.94-.3.26-.65.47-1.05.62-.4.15-.81.23-1.22.23-.88,0-1.59-.29-2.14-.87-.54-.58-.78-1.28-.71-2.09.03-.39.14-.77.33-1.13.19-.36.43-.67.74-.94.31-.26.66-.48,1.05-.64.39-.16.8-.25,1.24-.25.42,0,.81.08,1.18.23.37.15.68.36.94.62.25.26.44.58.58.94.13.36.18.75.15,1.17-.04.42-.15.81-.35,1.17ZM55.77,39.95h-3.86l-.55,6.27c-.07.77.03,1.35.29,1.73.26.39.78.58,1.55.58.26,0,.55-.02.85-.07.3-.04.55-.11.76-.2l-.28,3.95c-.39.13-.87.25-1.45.35-.58.1-1.16.15-1.73.15-1.1,0-2.01-.14-2.74-.41-.72-.27-1.29-.67-1.69-1.19-.41-.52-.68-1.13-.81-1.85-.14-.71-.16-1.51-.09-2.39l.61-6.92h-2.64l.35-4.01h2.61l.38-4.31h5.31l-.38,4.31h3.86l-.35,4.01ZM95.94,43.53c-.12,1.4-.47,2.68-1.05,3.83-.57,1.15-1.34,2.14-2.29,2.96-.95.82-2.07,1.46-3.35,1.92-1.28.46-2.68.69-4.2.69s-2.91-.23-4.1-.69c-1.19-.46-2.18-1.1-2.97-1.92-.79-.82-1.36-1.81-1.72-2.96-.36-1.15-.48-2.43-.36-3.83l1.27-14.5h5.61l-1.23,14.04c-.06.64-.03,1.24.09,1.81.12.57.32,1.08.63,1.53.3.45.72.81,1.26,1.07.54.26,1.2.39,1.99.39s1.48-.13,2.06-.39c.58-.26,1.07-.62,1.46-1.07.39-.45.69-.96.89-1.53.2-.57.33-1.17.39-1.81l1.23-14.04h5.64l-1.27,14.5Z" fill="#fff"/></svg>