<?xml version="1.0" encoding="UTF-8" standalone="no"?>
<!-- Created with Inkscape (http://www.inkscape.org/) -->

<svg
   version="1.1"
   id="svg1"
   width="133.46667"
   height="77.866669"
   viewBox="0 0 133.46667 77.866669"
   sodipodi:docname="HRT.eps"
   xmlns:inkscape="http://www.inkscape.org/namespaces/inkscape"
   xmlns:sodipodi="http://sodipodi.sourceforge.net/DTD/sodipodi-0.dtd"
   xmlns="http://www.w3.org/2000/svg"
   xmlns:svg="http://www.w3.org/2000/svg">
  <defs
     id="defs1" />
  <sodipodi:namedview
     id="namedview1"
     pagecolor="#ffffff"
     bordercolor="#000000"
     borderopacity="0.25"
     inkscape:showpageshadow="2"
     inkscape:pageopacity="0.0"
     inkscape:pagecheckerboard="0"
     inkscape:deskcolor="#d1d1d1">
    <inkscape:page
       x="0"
       y="0"
       inkscape:label="1"
       id="page1"
       width="133.46667"
       height="77.866669"
       margin="0"
       bleed="0" />
  </sodipodi:namedview>
  <g
     id="g1"
     inkscape:groupmode="layer"
     inkscape:label="1">
    <g
       id="group-R5">
      <g
         id="group-R9">
        <path
           id="path2"
           d="M 991,161 840,10 C 834,4 825,0 816,0 H 17 C 8,0 0,7 0,17 v 382 c 0,9 4,17 10,24 l 151,151 c 6,6 15,10 24,10 h 799 c 9,0 17,-7 17,-17 V 185 c 0,-9 -4,-17 -10,-24"
           style="fill:#ff8200;fill-opacity:1;fill-rule:evenodd;stroke:none"
           transform="matrix(0.13333333,0,0,-0.13333333,0,77.866667)" />
        <path
           id="path3"
           d="m 977,22 v 6 h 4 c 2,0 3,-1 3,-3 v -1 c 0,-2 -1,-3 -3,-3 h -4 z m 0,-4 h 3 l 4,-8 h 6 l -5,8 c 3,1 4,3 4,6 0,4 -3,7 -7,7 H 972 V 10 h 5 z m 3,-13 c -9,0 -15,6 -15,15 v 2 c 0,9 7,15 15,15 8,0 15,-6 15,-15 V 20 C 996,11 989,5 980,5 Z m 0,-5 c 12,0 21,9 21,21 0,12 -9,21 -21,21 -12,0 -21,-9 -21,-21 0,-12 9,-21 21,-21"
           style="fill:#ff8200;fill-opacity:1;fill-rule:nonzero;stroke:none"
           transform="matrix(0.13333333,0,0,-0.13333333,0,77.866667)" />
        <path
           id="path4"
           d="m 370,167 h -51 c -3,0 -6,3 -6,6 v 82 c 0,3 -3,6 -6,6 h -72 c -3,0 -6,-3 -6,-6 v -82 c 0,-3 -3,-6 -6,-6 h -51 c -3,0 -6,3 -6,6 v 238 c 0,3 3,6 6,6 h 51 c 3,0 6,-3 6,-6 v -82 c 0,-3 3,-6 6,-6 h 72 c 3,0 6,3 6,6 v 82 c 0,3 3,6 6,6 h 51 c 3,0 6,-3 6,-6 V 172 c -1,-2 -3,-5 -6,-5 z m 193,193 h -83 v -63 h 83 z m 67,-193 h -57 c -2,0 -4,1 -6,2 -2,1 -3,2 -4,4 l -38,66 c 0,1 -1,1 -3,1 h -41 c -1,0 -2,-1 -2,-2 v -64 c 0,-5 -2,-7 -7,-7 h -49 c -5,0 -7,2 -7,7 v 236 c 0,5 2,7 7,7 h 160 c 6,0 11,-1 16,-3 5,-2 10,-5 13,-9 4,-4 7,-8 9,-13 2,-5 3,-11 3,-16 v -94 c 0,-9 -3,-17 -8,-24 -5,-7 -12,-12 -21,-15 h -1 c -2,0 -2,-1 -1,-2 v -1 l 38,-66 c 1,-2 1,-3 0,-4 2,-2 1,-3 -1,-3 z m 219,188 h -56 c -3,0 -6,-3 -6,-6 V 173 c 0,-3 -3,-6 -6,-6 h -51 c -3,0 -6,3 -6,6 v 176 c 0,3 -3,6 -6,6 h -56 c -3,0 -6,3 -6,6 v 51 c 0,3 3,6 6,6 h 186 c 3,0 6,-3 6,-6 v -51 c 1,-4 -2,-6 -5,-6"
           style="fill:#ffffff;fill-opacity:1;fill-rule:evenodd;stroke:none"
           transform="matrix(0.13333333,0,0,-0.13333333,0,77.866667)" />
      </g>
    </g>
  </g>
</svg>
