<svg id="Layer_1" data-name="Layer 1" xmlns="http://www.w3.org/2000/svg" xmlns:xlink="http://www.w3.org/1999/xlink" viewBox="0 0 280 218"><defs><style>.cls-1{fill:none;}.cls-2{clip-path:url(#clip-path);}.cls-3{clip-path:url(#clip-path-2);}.cls-4{fill:#4c83c3;}.cls-5{fill:#b22c1b;}.cls-6{fill:#fdba12;}</style><clipPath id="clip-path"><rect class="cls-1" width="280" height="218"/></clipPath><clipPath id="clip-path-2"><rect class="cls-1" x="30" y="156.4667" width="220" height="41.0667"/></clipPath></defs><g class="cls-2"><g class="cls-3"><path class="cls-4" d="M37.9272,168.5967a3.5986,3.5986,0,0,1-.9727-.126,2.5227,2.5227,0,0,1-.7666-.3477,1.7173,1.7173,0,0,1-.498-.5224,1.2544,1.2544,0,0,1-.1817-.6641,1.361,1.361,0,0,1,.1895-.7031,1.964,1.964,0,0,1,.5136-.5693,2.4363,2.4363,0,0,1,.7666-.3789,3.2405,3.2405,0,0,1,.9493-.1348,3.1616,3.1616,0,0,1,.94.1348,2.4673,2.4673,0,0,1,.7588.3789,1.964,1.964,0,0,1,.5136.5693,1.3706,1.3706,0,0,1,.19.7031,1.2543,1.2543,0,0,1-.1816.6641,1.7189,1.7189,0,0,1-.4981.5224,2.5415,2.5415,0,0,1-.7588.3477A3.5078,3.5078,0,0,1,37.9272,168.5967Zm-1.4229,2.7988h2.9082v16.0137H36.5043Zm0,0h2.9082v16.0137H36.5043Z"/><path class="cls-4" d="M56.6957,176.7383H53.93a4.8027,4.8027,0,0,0-1.1543-2.4854,3.738,3.738,0,0,0-2.8936-.9922,3.9991,3.9991,0,0,0-3.8886,2.5323,9.5444,9.5444,0,0,0-.7588,4.0361,7.3289,7.3289,0,0,0,1.0752,4.0771,3.7418,3.7418,0,0,0,3.3828,1.6534,3.803,3.803,0,0,0,2.8056-1.0274,5.541,5.541,0,0,0,1.4317-2.8144h2.7656a6.9164,6.9164,0,0,1-2.3711,4.6718,7.6641,7.6641,0,0,1-4.8535,1.4786,6.6268,6.6268,0,0,1-5.2959-2.3008A8.5289,8.5289,0,0,1,42.2,179.8057a9.3787,9.3787,0,0,1,2.166-6.5928,7.1629,7.1629,0,0,1,5.5166-2.3555,7.6645,7.6645,0,0,1,4.6563,1.32Q56.333,173.4976,56.6957,176.7383Z"/><path class="cls-4" d="M59.3529,171.3955H62.12v2.1338a6.7965,6.7965,0,0,1,1.8653-1.6914,6.2412,6.2412,0,0,1,3.3828-.9014,6.5145,6.5145,0,0,1,4.8857,2.0947,8.3082,8.3082,0,0,1,2.0069,5.9834q0,5.2486-2.8926,7.51a6.7672,6.7672,0,0,1-4.2686,1.4229,6.057,6.057,0,0,1-3.209-.7911,7.4715,7.4715,0,0,1-1.6914-1.5488v8.2207H59.3529Zm11.9991,7.8721a8.5017,8.5017,0,0,0-.585-3.3037,4.3632,4.3632,0,0,0-8.0947.1582,10.6108,10.6108,0,0,0-.584,3.81,7.67,7.67,0,0,0,.584,3.1622,4.0468,4.0468,0,0,0,4.0478,2.498,4.1386,4.1386,0,0,0,3.3115-1.5811A7.2642,7.2642,0,0,0,71.352,179.2676Z"/><path class="cls-4" d="M90.7709,176.7383H88.0043a4.8019,4.8019,0,0,0-1.1543-2.4854,3.7356,3.7356,0,0,0-2.8926-.9922,3.9983,3.9983,0,0,0-3.8886,2.5323,9.5437,9.5437,0,0,0-.76,4.0361,7.3289,7.3289,0,0,0,1.0752,4.0771A3.7435,3.7435,0,0,0,83.768,185.56a3.806,3.806,0,0,0,2.8056-1.0274,5.54,5.54,0,0,0,1.4307-2.8144h2.7666A6.9206,6.9206,0,0,1,88.4,186.39a7.6641,7.6641,0,0,1-4.8535,1.4786,6.6268,6.6268,0,0,1-5.2959-2.3008,8.53,8.53,0,0,1-1.9766-5.7617,9.3782,9.3782,0,0,1,2.1661-6.5928,7.1661,7.1661,0,0,1,5.5175-2.3555,7.6632,7.6632,0,0,1,4.6553,1.32Q90.4072,173.4976,90.7709,176.7383Z"/><path class="cls-4" d="M95.3158,187.4883a3.8144,3.8144,0,0,1-.9726-.1182,2.2993,2.2993,0,0,1-.7666-.3476,1.8253,1.8253,0,0,1-.4981-.53,1.2568,1.2568,0,0,1-.1816-.6641,1.388,1.388,0,0,1,.1894-.6953,1.9317,1.9317,0,0,1,.5137-.5771,2.4353,2.4353,0,0,1,.7666-.3789,3.2394,3.2394,0,0,1,.9492-.1348,3.1623,3.1623,0,0,1,.9405.1348,2.4446,2.4446,0,0,1,.7587.3789,1.9169,1.9169,0,0,1,.5137.5771,1.377,1.377,0,0,1,.1895.6953,1.2569,1.2569,0,0,1-.1817.6641,1.8262,1.8262,0,0,1-.498.53,2.3031,2.3031,0,0,1-.7588.3476A3.7129,3.7129,0,0,1,95.3158,187.4883Z"/><path class="cls-4" d="M102.1977,166.415q.996-1.3755,3.8418-1.375c.18,0,.3632.003.5537.0079s.4052.0185.6474.039v2.4668c-.2949-.0215-.5078-.0342-.64-.04s-.2559-.0078-.3721-.0078q-1.2963,0-1.5488.6406a11.99,11.99,0,0,0-.2529,3.249h2.8134v2.1338h-2.8447v13.88h-2.8144v-13.88H99.226v-2.1338h2.3555v-2.5137A4.6216,4.6216,0,0,1,102.1977,166.415Z"/><path class="cls-4" d="M123.9223,179.03a10.091,10.091,0,0,1-1.9922,6.4267q-1.9921,2.5371-6.1817,2.5371A7.1517,7.1517,0,0,1,110.2,185.749a8.572,8.572,0,0,1-2.0547-6.0224,9.2922,9.2922,0,0,1,2.166-6.4659,7.4421,7.4421,0,0,1,5.8174-2.4033,7.8921,7.8921,0,0,1,5.5332,2.0713Q123.9219,175,123.9223,179.03Zm-2.9727.0791a7.6944,7.6944,0,0,0-.76-3.667,4.3184,4.3184,0,0,0-4.1485-2.23,4.15,4.15,0,0,0-3.8008,1.8975,8.4426,8.4426,0,0,0-1.1875,4.5683,7.34,7.34,0,0,0,1.1875,4.2764,4.2626,4.2626,0,0,0,3.77,1.7158,3.9732,3.9732,0,0,0,3.8867-2.04A9.7042,9.7042,0,0,0,120.95,179.1094Z"/><path class="cls-4" d="M129.7777,171.332v10.6592a4.2682,4.2682,0,0,0,.4112,2.0049,2.8969,2.8969,0,0,0,2.83,1.4531,4.0061,4.0061,0,0,0,4.0468-2.5263,9.595,9.595,0,0,0,.585-3.711v-7.88h2.8457v16.0772H137.809l.0312-2.3711a5.53,5.53,0,0,1-1.375,1.5488,6.2467,6.2467,0,0,1-3.9521,1.2656q-3.62,0-4.9326-2.3086a6.5663,6.5663,0,0,1-.711-3.288V171.332Z"/><path class="cls-4" d="M144.4076,171.332h2.7031v2.2764a7.5562,7.5562,0,0,1,2.5489-2.0234,7.0983,7.0983,0,0,1,2.9922-.6172q3.6093,0,4.8759,2.3877a8.0307,8.0307,0,0,1,.6973,3.73v10.3233h-2.9092V177.2764a5.2649,5.2649,0,0,0-.458-2.3721,2.8054,2.8054,0,0,0-2.751-1.502,6.0144,6.0144,0,0,0-1.66.1905,4.28,4.28,0,0,0-2.0547,1.3281,3.8676,3.8676,0,0,0-.9248,1.6357,10.4956,10.4956,0,0,0-.2139,2.4268v8.4258h-2.8457Z"/><path class="cls-4" d="M171.55,171.8223a7.2222,7.2222,0,0,1,1.7227,1.58v-8.125h2.7353v22.1319h-2.5615V185.165a5.9548,5.9548,0,0,1-2.3555,2.1573,7.0777,7.0777,0,0,1-3.1142.6562,6.4335,6.4335,0,0,1-4.9-2.2607,8.5451,8.5451,0,0,1-2.0713-6.0069,10.0038,10.0038,0,0,1,1.89-6.0947,7.0467,7.0467,0,0,1,8.6553-1.7939Zm-2.6875,13.8007a3.9623,3.9623,0,0,0,3.249-1.6123,7.3394,7.3394,0,0,0,1.2725-4.6318,6.604,6.604,0,0,0-1.3125-4.5137,4.1844,4.1844,0,0,0-3.2412-1.4629,4.3746,4.3746,0,0,0-3.4854,1.5577,6.8825,6.8825,0,0,0-1.3359,4.5927,7.6653,7.6653,0,0,0,1.1543,4.3311A4.1117,4.1117,0,0,0,168.8627,185.623Z"/><path class="cls-4" d="M188.8471,177.6553a1.5316,1.5316,0,0,0,1.3125-.7744,2.2664,2.2664,0,0,0,.1894-1.0274,2.1755,2.1755,0,0,0-1.0351-2.0156,5.78,5.78,0,0,0-2.9649-.625,3.8746,3.8746,0,0,0-3.1611,1.1387,3.6453,3.6453,0,0,0-.68,1.8808H179.852a4.5594,4.5594,0,0,1,2.0312-4.1338,8.69,8.69,0,0,1,4.5293-1.1621,9.6522,9.6522,0,0,1,4.8535,1.0752,3.6394,3.6394,0,0,1,1.85,3.3672v9.2637a1.14,1.14,0,0,0,.1817.68.9059.9059,0,0,0,.7666.2529c.1269,0,.2685-.0078.4267-.0234s.3272-.0391.5059-.0713v2.0078a9.4181,9.4181,0,0,1-1.0117.2217,7.4847,7.4847,0,0,1-.9483.0468,2.3775,2.3775,0,0,1-2.1338-.9951,3.66,3.66,0,0,1-.49-1.4863,7.0847,7.0847,0,0,1-2.498,1.8808,8.1054,8.1054,0,0,1-3.5889.7911,5.4956,5.4956,0,0,1-3.85-1.36,4.4058,4.4058,0,0,1-1.4932-3.3984,4.2709,4.2709,0,0,1,1.47-3.4619,7.1746,7.1746,0,0,1,3.8575-1.5176Zm-3.8574,7.999a6.7349,6.7349,0,0,0,2.9091-.6641,3.7005,3.7005,0,0,0,2.3711-3.5879v-2.1816a5.068,5.068,0,0,1-1.3437.5293,12.21,12.21,0,0,1-1.6123.3086l-1.7237.2051a6.6608,6.6608,0,0,0-2.3232.6172,2.3566,2.3566,0,0,0-1.3125,2.2441,2.1933,2.1933,0,0,0,.9014,1.85A3.4416,3.4416,0,0,0,184.99,185.6543Z"/><path class="cls-4" d="M197.6908,166.8418h2.877v4.49h2.7031v2.2129h-2.7031V184.03a1.1484,1.1484,0,0,0,.6006,1.1367,2.7824,2.7824,0,0,0,1.1064.1582c.1377,0,.2852-.002.4434-.0078s.3418-.0186.5527-.0391V187.41a5.8327,5.8327,0,0,1-1.02.1972,11.2744,11.2744,0,0,1-1.1455.0547,3.182,3.182,0,0,1-2.7041-.9629,4.1274,4.1274,0,0,1-.711-2.5107V173.5449h-2.292V171.332h2.292Z"/><path class="cls-4" d="M207.0385,168.5967a3.5992,3.5992,0,0,1-.9727-.126,2.5238,2.5238,0,0,1-.7666-.3477,1.7185,1.7185,0,0,1-.498-.5224,1.2544,1.2544,0,0,1-.1817-.6641,1.361,1.361,0,0,1,.19-.7031,1.9629,1.9629,0,0,1,.5137-.5693,2.4342,2.4342,0,0,1,.7666-.3789,3.2394,3.2394,0,0,1,.9492-.1348,3.1611,3.1611,0,0,1,.94.1348,2.4662,2.4662,0,0,1,.7588.3789,1.9658,1.9658,0,0,1,.5137.5693,1.3706,1.3706,0,0,1,.1894.7031,1.2543,1.2543,0,0,1-.1816.6641,1.7177,1.7177,0,0,1-.4981.5224,2.5409,2.5409,0,0,1-.7587.3477A3.5091,3.5091,0,0,1,207.0385,168.5967Zm-1.4229,2.7988h2.9082v16.0137h-2.9082Zm0,0h2.9082v16.0137h-2.9082Z"/><path class="cls-4" d="M227.0883,179.03a10.091,10.091,0,0,1-1.9922,6.4267q-1.9922,2.5371-6.1816,2.5371a7.1519,7.1519,0,0,1-5.5489-2.2451,8.572,8.572,0,0,1-2.0547-6.0224,9.2918,9.2918,0,0,1,2.1661-6.4659,7.4417,7.4417,0,0,1,5.8173-2.4033,7.8921,7.8921,0,0,1,5.5332,2.0713Q227.0879,175,227.0883,179.03Zm-2.9727.0791a7.6944,7.6944,0,0,0-.76-3.667,4.3184,4.3184,0,0,0-4.1485-2.23,4.15,4.15,0,0,0-3.8008,1.8975,8.4426,8.4426,0,0,0-1.1875,4.5683,7.34,7.34,0,0,0,1.1875,4.2764,4.2626,4.2626,0,0,0,3.77,1.7158,3.9731,3.9731,0,0,0,3.8867-2.04A9.7042,9.7042,0,0,0,224.1156,179.1094Z"/><path class="cls-4" d="M230.1156,171.332h2.7032v2.2764a7.5454,7.5454,0,0,1,2.5488-2.0234,7.0954,7.0954,0,0,1,2.9922-.6172q3.6093,0,4.8759,2.3877a8.0449,8.0449,0,0,1,.6963,3.73v10.3233h-2.9091V177.2764a5.2528,5.2528,0,0,0-.458-2.3721,2.8047,2.8047,0,0,0-2.751-1.502,6.0074,6.0074,0,0,0-1.6592.1905,4.2834,4.2834,0,0,0-2.0557,1.3281,3.8783,3.8783,0,0,0-.9248,1.6357,10.4967,10.4967,0,0,0-.2138,2.4268v8.4258h-2.8448Z"/><path class="cls-4" d="M37.9451,168.6772a4.42,4.42,0,0,1-1.1455-.1416,2.7729,2.7729,0,0,1-.9028-.4067,2.0824,2.0824,0,0,1-.5865-.6192,1.472,1.472,0,0,1-.2143-.7783A1.6459,1.6459,0,0,1,35.32,165.9a2.19,2.19,0,0,1,.605-.6719,2.9482,2.9482,0,0,1,.9033-.4424,3.8112,3.8112,0,0,1,1.1172-.1592,3.7248,3.7248,0,0,1,1.1079.1592,2.97,2.97,0,0,1,.8936.4424,2.1892,2.1892,0,0,1,.6049.6719,1.645,1.645,0,0,1,.2237.8315,1.4757,1.4757,0,0,1-.2144.7783,2.09,2.09,0,0,1-.5864.6192,2.7873,2.7873,0,0,1-.8936.4067A4.31,4.31,0,0,1,37.9451,168.6772Z"/></g><g id="solve"><path class="cls-5" d="M241.2731,94.8576l-17.512-.0024c7.7164,5.7605,12.0775,11.7457,12.9669,17.7914.7078,4.835-.8056,9.7212-4.4984,14.5247l-.1491.1932c-6.7128,8.5593-20.4155,15.0276-25.9967,17.4107-.631.1921-1.2643.38-1.9046.567h37.0939A8.7562,8.7562,0,0,0,250,136.5758V103.6217A8.7549,8.7549,0,0,0,241.2731,94.8576Z"/><path class="cls-5" d="M219.8214,95.1661l-.4051-.31h-24.06a8.7555,8.7555,0,0,0-8.7246,8.7653v32.9529a8.756,8.756,0,0,0,8.7246,8.7676h.13l.9965-.3306c22.3854-7.4067,36.7447-18.63,37.4689-29.2914C234.6884,104.9873,221.3465,96.1393,219.8214,95.1661Z"/><path id="Bill" class="cls-5" d="M238.7865,53.7949a24.9715,24.9715,0,0,0,.3634-4.1832,18.18,18.18,0,0,0-8.4643-15.8432c-7.4077-4.8813-18.0424-5.039-25.2852-.3658-5.62,3.6238-8.5886,9.4682-8.5886,16.9a31.3815,31.3815,0,0,0,.4016,4.8691,30.574,30.574,0,0,0,11.8132,19.7515c-3.3394-.906-7.7018-1.3386-9.59,1.7258a2.7,2.7,0,0,0,.61,3.9131c2.4286,1.7426,8.33,1.2813,11.8945-.7578l-2.4454,5.6987h16.4217l-3.2844-6.5711c3.9729,1.6613,8.579,3.1624,11.0674,1.6445a3.4769,3.4769,0,0,0,1.6327-2.9831,3.5806,3.5806,0,0,0-1.4582-3.3227c-1.2525-.8867-3.3011-1.1091-6.1-.6572.2893-.2367.5665-.4734.8414-.7172A32.241,32.241,0,0,0,238.7865,53.7949Zm-37.531,25.0868c-.2367-.17-.5283-.3826-.055-1.1474,1.4223-2.3187,6.1768-1.4294,10.042.1076C208.2688,79.8186,202.7948,79.9884,201.2555,78.8817Zm31.4285-2.921a1.535,1.535,0,0,1,.5832,1.5225,1.51,1.51,0,0,1-.6454,1.3267c-.937.5738-3.3418.6861-9.4228-1.8812C226.9088,75.693,231.1183,74.8588,232.684,75.9607Zm-12.0929-.2965c-.2487.0981-.4351.1722-.5235.2079l-.7242.2511-.3467.17.012.0214-1.1952.4949,1.8526.8295,2.9018,5.7965h-9.93l2.8589-6.669-1.04-.6191c-8.6483-5.1321-13.7637-12.2984-15.1979-21.3a28.9328,28.9328,0,0,1-.3729-4.5178c0-6.712,2.6413-11.9637,7.6372-15.186,6.583-4.2452,16.2687-4.0994,23.0215.3538a16.225,16.225,0,0,1,7.5321,14.1462,22.9707,22.9707,0,0,1-.3324,3.8078C234.08,69.1338,222.8333,74.7009,220.5911,75.6642Z"/><path class="cls-5" d="M222.8823,94.4491l-.142-.099c-.0024-.0023-.0263-.0142-.0645-.0382a13.0793,13.0793,0,0,1-5.9592-8.8084h-2.23a13.5588,13.5588,0,0,0,4.5681,8.8084c.0559.0474.1165.0922.175.1383.0861.068.1709.1367.2577.2035l.3348,0,2.9952-.002.3559,0Z"/></g><g id="create"><path class="cls-6" d="M163.0991,94.8587h-3.1453l-.014.3385a19.6519,19.6519,0,0,1-5.9129,13.9371,14.6285,14.6285,0,0,1-5.453,3.5015l-1.4683,10.1731H132.7891l-1.2558-10.0914c-10.7695-4.1282-11.1794-15.4462-11.3-17.6744l-.0082-.1867-3.156.0023a8.778,8.778,0,0,0-8.7491,8.7865V136.68a8.7632,8.7632,0,0,0,7.4966,8.6627h48.5347a8.7623,8.7623,0,0,0,7.4964-8.6627V103.6452A8.7772,8.7772,0,0,0,163.0991,94.8587ZM132.9537,125.21h14.2324v2.0986H132.9537Zm0,4.0209h14.2324v2.0985H132.9537Zm9.8112,10.14H137.16v-2.0986h5.6047Zm4.46-4.0209H132.9922v-2.0985h14.2325Z"/><path class="cls-6" d="M132.74,105.1827l8.1584-3.3393-7.0085-2.1368,4.9241-4.5133.3276-.3369H122.9057v.3369c.1124,2.0229.4374,12.0291,10.4818,15.7906l.1936.0712.0262.2039,1.1616,9.1642H139.01V109.3545l2.247-1.8475Z"/><path class="cls-6" d="M142.1278,94.8552l-.2868.3392-3.6429,3.484,9.3844,2.6325-8.3926,3.4485,6.59,1.8475-4.5847,3.7378v10.08h3.8652l1.3386-9.4346.1793-.0759a17.3784,17.3784,0,0,0,10.7661-15.7195v-.3392Z"/><rect class="cls-6" x="157.9922" y="82.3958" width="16.1863" height="2.0696" transform="translate(-19.7772 83.0717) rotate(-26.5614)"/><rect class="cls-6" x="151.8465" y="74.1193" width="17.3813" height="2.07" transform="translate(-9.3949 125.5868) rotate(-41.6162)"/><rect class="cls-6" x="142.7015" y="67.5333" width="17.2956" height="2.0707" transform="translate(28.3725 180.3048) rotate(-66.631)"/><rect class="cls-6" x="139.0478" y="56.9993" width="2.0701" height="17.7603"/><polygon class="cls-6" points="126.476 60.533 126.34 60.22 124.437 61.042 131.162 76.603 131.3 76.919 133.2 76.097 126.476 60.533"/><rect class="cls-6" x="118.5964" y="66.4636" width="2.07" height="17.3813" transform="translate(-15.9513 114.8678) rotate(-48.4635)"/><rect class="cls-6" x="113.0483" y="75.3375" width="2.0696" height="16.1863" transform="translate(-11.5227 148.2288) rotate(-63.4671)"/></g><path id="_4" data-name="4" class="cls-4" d="M66.62,153.4383c-2.9879,0-5.4165,2.015-5.4165,4.4939s2.4286,4.4939,5.4165,4.4939,5.4191-2.0151,5.4191-4.4939S69.608,153.4383,66.62,153.4383Zm0,7.26c-2.0341,0-3.6882-1.24-3.6882-2.7656s1.6541-2.7657,3.6882-2.7657,3.6908,1.2407,3.6908,2.7657S68.6542,160.6978,66.62,160.6978Z"/><path id="_3" data-name="3" class="cls-4" d="M60.0873,161.32a4.4469,4.4469,0,0,0-8.7616.8906c.2058,2.0242,2.1968,3.3072,4.736,3.0491C58.5987,165.0019,60.2931,163.3443,60.0873,161.32Zm-4.184,2.3811c-1.3373.136-2.8362-.3237-2.9714-1.6537a2.85,2.85,0,0,1,5.5471-.5639C58.6142,162.8135,57.2384,163.5654,55.9033,163.7011Z"/><path id="_2" data-name="2" class="cls-4" d="M45.9874,161.3288c-2.3786,0-3.8541,1.1182-3.8541,2.9181s1.4755,2.9182,3.8541,2.9182c2.3762,0,3.8519-1.118,3.8519-2.9182S48.3636,161.3288,45.9874,161.3288Zm-.0025,4.2873c-1.0674,0-2.3436-.2356-2.3436-1.3694,0-1.1306,1.2762-1.3663,2.3436-1.3663,1.07,0,2.3463.2357,2.3463,1.3663C48.3312,165.3805,47.0549,165.6161,45.9849,165.6161Z"/><path class="cls-4" d="M99.8086,128.6857c-.17-2.8828-2.1036-5.5719-5.737-7.9957-.0475-.031-.0893-.0642-.1365-.0974l-.0212-.0151-.1818-.12v2.5888c.0813.0527.21.1411.34.2343,1.0327.7314,3.3179,2.6342,3.5832,5.3305.22,2.2278-.99,4.5226-3.5832,6.8221-.0311.0311-.06.06-.0932.0884l-.2463.2176-.172.15.172.067.34.1362.0048.0024c.0383.0167,3.7887,1.5991,2.003,7.1473-.0262.0859-2.5886,8.61-13.0273,8.61h-.0886c-.0573.0095-6.42.33-14.88-4.4605l-.2319-.1291-.1841.1913c-.04.043-4.13,4.2453-8.7965,4.15-.06.012-4.1569.3131-6.8221-5.0652l-.1363-.27-.2843.0979c-.0336.01-3.1123,1.03-4.75-.509a2.7834,2.7834,0,0,1-.3036-.34h-.4518l-.0023-.0048H44.5434v.0048H44.19l.0238.0861c0,.0029.0182.0519.0434.1168.0157.04.0319.0817.0546.1366.3442.8222,1.8119,3.4468,6.5018,2.854.588.9682,3.2915,4.9266,8.0531,4.9266h.0025c.17.0143,4.2142.3537,9.2889-3.7864,1.2955.6694,8.1965,4.0779,14.23,4.0779A14.283,14.283,0,0,0,84.03,153.84c.1505.0023,9.6521.0741,13.7325-9.1455.0263-.0527,2.51-5.0963-1.066-8.9974C97.5377,134.8934,100.0188,132.2139,99.8086,128.6857Z"/><path class="cls-4" d="M93.5272,123.1135l-.2691-.1482c-4.727-3.7478-9.1074-5.648-13.02-5.648a11.6343,11.6343,0,0,0-2.0868.1868,11.3118,11.3118,0,0,0-7.2376,4.8134l-.7785,1.3154-.2288-1.51c-.6022-3.9334-2.5794-4.1936-2.6191-4.1995a2.1643,2.1643,0,0,0-.433-.042c-2.1511,0-5.0025,2.8584-5.0329,2.89l-.6711.6793-.2439-.92c-1.5138-5.6327-5.327-5.7506-5.4694-5.7529-5.1624.419-7.1582,2.7744-7.1839,2.8047-2.5771,2.9039.18,5.9922.5019,6.3331l.5416.5649-.72.3127c-7.2422,3.1421-6.8256,5.802-6.8174,5.8452.2474,1.9095,4.4621,3.847,7.06,4.6185l.74.2218-.4576.6244c-4.1562,5.6643-2.9132,8.4643-2.6156,8.9638l.09.2475H84.78a8.7769,8.7769,0,0,0,8.7479-8.7864v-.789Z"/><path class="cls-4" d="M84.78,94.8552H38.7491A8.765,8.765,0,0,0,30,103.616v32.9386a8.765,8.765,0,0,0,8.7491,8.7608h5.132l-.0362-.0841c-1.1473-3.2879.8392-7.0543,1.6726-8.4176-4.0629-1.683-6.1732-3.6929-6.2735-5.9747-.1506-3.5214,4.5134-6.39,6.22-7.3181a6.9485,6.9485,0,0,1-.3828-5.5919,8.6714,8.6714,0,0,1,4.825-4.4131,11.8519,11.8519,0,0,1,4.922-1.2033,7.9037,7.9037,0,0,1,3.0042.5765,9.1031,9.1031,0,0,1,4.4983,4.29,8.6065,8.6065,0,0,1,4.5882-1.655,4.69,4.69,0,0,1,1.4484.2241,5.1516,5.1516,0,0,1,2.8631,2.5269,12.7453,12.7453,0,0,1,8.686-3.2867c6.1556,0,11.9448,3.8925,13.573,5.0865l.04.028V103.616A8.765,8.765,0,0,0,84.78,94.8552Z"/></g></svg>