<?xml version="1.0" encoding="UTF-8" standalone="no"?>
<!DOCTYPE svg PUBLIC "-//W3C//DTD SVG 1.1//EN" "http://www.w3.org/Graphics/SVG/1.1/DTD/svg11.dtd">
<svg xmlns="http://www.w3.org/2000/svg" xmlns:xlink="http://www.w3.org/1999/xlink" version="1.1" width="297.638pt" height="112.351pt" viewBox="0 0 297.638 112.351">
<g enable-background="new">
<g id="Layer-1" data-name="Layer 1">
<clipPath id="cp1">
<path transform="matrix(1,0,0,-1,0,112.351)" d="M 0 112.351 L 297.638 112.351 L 297.638 0 L 0 0 Z "/>
</clipPath>
<g clip-path="url(#cp1)">
<path transform="matrix(1,0,0,-1,123.8079,43.8817)" d="M 0 0 L 6.214 0 L 6.214 -4.687 L 6.537 -4.687 C 7.687 -1.544 10.452 .359 14.152 .359 C 17.869 .359 20.545 -1.562 21.604 -4.687 L 21.892 -4.687 C 23.113 -1.616 26.166 .359 30.171 .359 C 35.235 .359 38.791 -2.909 38.791 -9.069 L 38.791 -27.584 L 32.272 -27.584 L 32.272 -10.075 C 32.272 -6.663 30.188 -5.118 27.567 -5.118 C 24.424 -5.118 22.574 -7.273 22.574 -10.38 L 22.574 -27.584 L 16.199 -27.584 L 16.199 -9.805 C 16.199 -6.968 14.313 -5.118 11.565 -5.118 C 8.765 -5.118 6.502 -7.417 6.502 -10.811 L 6.502 -27.584 L 0 -27.584 Z " fill="#212721"/>
<path transform="matrix(1,0,0,-1,182.1839,61.570699)" d="M 0 0 L 0 3.25 C -.844 2.568 -4.256 2.137 -5.963 1.904 C -8.872 1.491 -11.045 .449 -11.045 -2.047 C -11.045 -4.436 -9.105 -5.675 -6.394 -5.675 C -2.479 -5.675 0 -3.071 0 0 M -17.312 -2.155 C -17.312 4.059 -12.194 5.657 -6.843 6.231 C -1.976 6.753 -.018 6.842 -.018 8.71 L -.018 8.817 C -.018 11.529 -1.67 13.074 -4.687 13.074 C -7.866 13.074 -9.697 11.458 -10.345 9.572 L -16.414 10.434 C -14.978 15.462 -10.523 18.048 -4.724 18.048 C .539 18.048 6.483 15.857 6.483 8.566 L 6.483 -9.895 L .233 -9.895 L .233 -6.106 L .018 -6.106 C -1.167 -8.423 -3.754 -10.452 -8.082 -10.452 C -13.344 -10.452 -17.312 -7.579 -17.312 -2.155 " fill="#212721"/>
<path transform="matrix(1,0,0,-1,206.6126,48.909997)" d="M 0 0 L -5.441 0 L -5.441 -14.259 C -5.441 -16.881 -4.13 -17.456 -2.496 -17.456 C -1.687 -17.456 -.951 -17.294 -.593 -17.205 L .503 -22.287 C -.197 -22.52 -1.473 -22.879 -3.322 -22.933 C -8.207 -23.077 -11.979 -20.527 -11.942 -15.337 L -11.942 0 L -15.857 0 L -15.857 5.028 L -11.942 5.028 L -11.942 11.637 L -5.441 11.637 L -5.441 5.028 L 0 5.028 Z " fill="#212721"/>
<path transform="matrix(1,0,0,-1,217.3275,71.4657)" d="M 0 0 L -6.501 0 L -6.501 36.779 L -.144 36.779 L -.144 22.897 L .18 22.897 C 1.455 26.022 4.148 27.943 8.387 27.943 C 14.116 27.943 17.887 24.226 17.887 17.563 L 17.887 0 L 11.386 0 L 11.386 16.558 C 11.386 20.275 9.375 22.448 5.963 22.448 C 2.479 22.448 0 20.149 0 16.163 Z " fill="#212721"/>
<path transform="matrix(1,0,0,-1,258.4534,57.7636)" d="M 0 0 C 0 5.046 -2.19 9.087 -6.591 9.087 C -11.062 9.087 -13.254 5.046 -13.254 0 C -13.254 -5.046 -11.062 -9.033 -6.591 -9.033 C -2.19 -9.033 0 -5.046 0 0 M -19.845 -.018 C -19.845 8.53 -14.708 14.241 -6.627 14.241 C 1.454 14.241 6.592 8.53 6.592 -.018 C 6.592 -8.548 1.454 -14.241 -6.627 -14.241 C -14.708 -14.241 -19.845 -8.548 -19.845 -.018 " fill="#212721"/>
<path transform="matrix(1,0,0,-1,284.0325,51.8192)" d="M 0 0 C -.503 1.813 -2.084 3.448 -5.083 3.448 C -7.795 3.448 -9.859 2.155 -9.842 .287 C -9.859 -1.311 -8.746 -2.28 -5.944 -2.909 L -1.239 -3.915 C 3.969 -5.046 6.501 -7.453 6.519 -11.386 C 6.501 -16.611 1.634 -20.186 -5.262 -20.186 C -12.032 -20.186 -16.289 -17.187 -17.098 -12.122 L -10.758 -11.512 C -10.201 -13.99 -8.262 -15.283 -5.28 -15.283 C -2.191 -15.283 -.145 -13.864 -.145 -11.979 C -.145 -10.416 -1.329 -9.393 -3.862 -8.835 L -8.567 -7.848 C -13.864 -6.752 -16.343 -4.094 -16.325 -.072 C -16.343 5.028 -11.817 8.297 -5.172 8.297 C 1.292 8.297 5.027 5.316 5.926 .646 Z " fill="#212721"/>
<path transform="matrix(1,0,0,-1,50.2552,73.945697)" d="M 0 0 C -9.799 0 -17.771 7.972 -17.771 17.771 C -17.771 19.087 -17.625 20.37 -17.353 21.605 C -17.225 21.589 -17.097 21.58 -16.97 21.58 C -15.754 21.58 -14.602 22.306 -14.116 23.501 C -10.956 31.285 -2.053 35.046 5.73 31.886 C 7.638 31.111 9.335 29.988 10.774 28.547 C 11.78 27.541 13.309 27.376 14.485 28.053 C 16.553 25.149 17.77 21.599 17.77 17.771 C 17.77 7.972 9.798 0 0 0 M -18.394 21.931 C -18.696 20.592 -18.856 19.2 -18.856 17.771 C -18.856 7.373 -10.397 -1.086 0 -1.086 C 10.397 -1.086 18.856 7.373 18.856 17.771 C 18.856 21.865 17.543 25.658 15.318 28.753 C 16.327 29.962 16.265 31.763 15.13 32.899 C 13.104 34.926 10.722 36.505 8.048 37.591 C -2.882 42.028 -15.383 36.747 -19.821 25.818 C -20.423 24.334 -19.785 22.656 -18.394 21.931 " fill="#0e47bb"/>
<path transform="matrix(1,0,0,-1,29.0941,35.014497)" d="M 0 0 C 5.652 5.652 13.167 8.765 21.161 8.765 C 29.154 8.765 36.669 5.652 42.321 0 C 47.974 -5.652 51.087 -13.167 51.087 -21.161 C 51.087 -24.224 50.628 -27.216 49.746 -30.061 C 48.364 -29.813 46.945 -30.541 46.372 -31.887 C 45 -35.116 43.034 -38.024 40.528 -40.529 C 35.355 -45.702 28.477 -48.551 21.161 -48.551 C 13.845 -48.551 6.966 -45.702 1.793 -40.529 C -3.381 -35.355 -6.229 -28.477 -6.229 -21.161 C -6.229 -19.698 -7.25 -18.475 -8.617 -18.161 C -7.939 -11.301 -4.939 -4.939 0 0 M 44.883 -44.883 C 47.949 -41.817 50.356 -38.255 52.039 -34.296 C 52.651 -32.855 52.081 -31.21 50.767 -30.438 C 51.691 -27.474 52.173 -24.355 52.173 -21.161 C 52.173 -12.877 48.947 -5.089 43.09 .768 C 37.232 6.625 29.444 9.852 21.161 9.852 C 12.877 9.852 5.089 6.625 -.769 .768 C -5.9 -4.364 -9.012 -10.978 -9.704 -18.108 C -11.217 -18.302 -12.387 -19.595 -12.387 -21.161 C -12.387 -30.122 -8.897 -38.546 -2.562 -44.883 C 3.775 -51.219 12.2 -54.709 21.161 -54.709 C 30.122 -54.709 38.546 -51.219 44.883 -44.883 " fill="#0e47bb"/>
<path transform="matrix(1,0,0,-1,20.4984,85.932)" d="M 0 0 C -3.865 3.865 -6.899 8.365 -9.019 13.376 C -11.213 18.564 -12.325 24.075 -12.325 29.757 C -12.325 35.438 -11.213 40.949 -9.019 46.137 C -7.182 50.481 -4.655 54.441 -1.497 57.937 C -.32 57.15 1.284 57.257 2.347 58.278 C 5.987 61.78 10.231 64.523 14.96 66.431 C 24.756 70.383 35.505 70.284 45.227 66.152 C 54.948 62.02 62.479 54.349 66.431 44.553 C 70.383 34.757 70.283 24.008 66.151 14.287 C 62.02 4.565 54.349 -2.965 44.553 -6.917 C 39.81 -8.831 34.837 -9.801 29.771 -9.801 C 29.767 -9.801 29.761 -9.801 29.757 -9.801 C 28.283 -9.801 27.052 -10.837 26.749 -12.22 C 22.13 -11.896 17.644 -10.824 13.376 -9.019 C 8.365 -6.899 3.865 -3.865 0 0 M 72.141 46.857 C 69.833 52.577 66.472 57.676 62.152 62.011 C 57.981 66.197 53.097 69.497 47.635 71.818 C 42.174 74.14 36.408 75.367 30.499 75.465 C 24.379 75.566 18.377 74.449 12.656 72.141 C 7.194 69.937 2.289 66.766 -1.922 62.717 C -3.043 61.638 -3.17 59.915 -2.28 58.69 C -5.53 55.099 -8.13 51.027 -10.02 46.56 C -12.271 41.237 -13.412 35.584 -13.412 29.757 C -13.412 23.929 -12.271 18.276 -10.02 12.954 C -7.845 7.813 -4.732 3.196 -.768 -.768 C 3.196 -4.732 7.812 -7.845 12.953 -10.019 C 17.343 -11.876 21.957 -12.976 26.708 -13.306 C 26.915 -14.804 28.2 -15.958 29.756 -15.959 L 29.771 -15.959 C 35.63 -15.959 41.379 -14.838 46.856 -12.627 C 52.577 -10.32 57.676 -6.959 62.011 -2.639 C 66.197 1.532 69.497 6.417 71.818 11.878 C 74.14 17.34 75.367 23.105 75.465 29.014 C 75.567 35.133 74.448 41.136 72.141 46.857 " fill="#0e47bb"/>
<path transform="matrix(1,0,0,-1,52.3763,58.1532)" d="M 0 0 C -.547 -.542 -1.271 -.839 -2.039 -.839 L -2.054 -.839 C -2.828 -.836 -3.555 -.531 -4.1 .02 C -4.645 .57 -4.942 1.299 -4.938 2.073 C -4.936 2.848 -4.63 3.574 -4.08 4.119 C -3.533 4.661 -2.81 4.958 -2.04 4.958 L -2.026 4.958 C -1.252 4.955 -.525 4.65 .02 4.1 C .565 3.549 .863 2.82 .859 2.046 C .855 1.271 .551 .545 0 0 M -1.995 11.475 L -2.041 11.475 C -4.539 11.475 -6.89 10.508 -8.666 8.749 C -10.452 6.979 -11.443 4.62 -11.455 2.104 C -11.468 -.411 -10.499 -2.78 -8.729 -4.566 C -6.959 -6.354 -4.6 -7.344 -2.085 -7.356 L -2.038 -7.356 C .459 -7.356 2.811 -6.389 4.586 -4.63 C 6.373 -2.86 7.364 -.5 7.376 2.015 C 7.388 4.53 6.42 6.899 4.649 8.686 C 2.88 10.472 .521 11.463 -1.995 11.475 " fill="#0e47bb"/>
</g>
</g>
</g>
</svg>
