<?xml version="1.0" encoding="UTF-8" standalone="no"?>
<svg
   xmlns:dc="http://purl.org/dc/elements/1.1/"
   xmlns:cc="http://creativecommons.org/ns#"
   xmlns:rdf="http://www.w3.org/1999/02/22-rdf-syntax-ns#"
   xmlns:svg="http://www.w3.org/2000/svg"
   xmlns="http://www.w3.org/2000/svg"
   xmlns:sodipodi="http://sodipodi.sourceforge.net/DTD/sodipodi-0.dtd"
   xmlns:inkscape="http://www.inkscape.org/namespaces/inkscape"
   version="1.1"
   width="298.92566pt"
   height="111.42437pt"
   viewBox="0 0 298.92566 111.42437"
   id="svg30"
   sodipodi:docname="ocpc.svg"
   inkscape:version="0.92.5 (2060ec1f9f, 2020-04-08)"
   inkscape:export-filename="/home/thuustalu/public_html/osijek/src/images/ocpc.png"
   inkscape:export-xdpi="206.50664"
   inkscape:export-ydpi="206.50664">
  <metadata
     id="metadata36">
    <rdf:RDF>
      <cc:Work
         rdf:about="">
        <dc:format>image/svg+xml</dc:format>
        <dc:type
           rdf:resource="http://purl.org/dc/dcmitype/StillImage" />
        <dc:title></dc:title>
      </cc:Work>
    </rdf:RDF>
  </metadata>
  <defs
     id="defs34" />
  <sodipodi:namedview
     pagecolor="#ffffff"
     bordercolor="#666666"
     borderopacity="1"
     objecttolerance="10"
     gridtolerance="10"
     guidetolerance="10"
     inkscape:pageopacity="0"
     inkscape:pageshadow="2"
     inkscape:window-width="1920"
     inkscape:window-height="1016"
     id="namedview32"
     showgrid="true"
     inkscape:zoom="1.7487686"
     inkscape:cx="110.50989"
     inkscape:cy="78.54663"
     inkscape:window-x="0"
     inkscape:window-y="27"
     inkscape:window-maximized="1"
     inkscape:current-layer="Layer-1"
     fit-margin-top="10"
     fit-margin-bottom="10"
     fit-margin-right="10"
     fit-margin-left="10">
    <inkscape:grid
       spacingx="3.75"
       spacingy="3.75"
       type="xygrid"
       id="grid2425"
       empspacing="5"
       originx="-3.3037104"
       originy="-0.53264193" />
  </sodipodi:namedview>
  <g
     id="g28"
     transform="translate(2.7614724,-0.39399416)"
     style="enable-background:new">
    <g
       id="Layer-1"
       data-name="Layer 1">
      <clipPath
         id="cp1">
        <path
           transform="matrix(1,0,0,-1,0,112.351)"
           d="M 0,112.351 H 297.638 V 0 H 0 Z"
           id="path2"
           inkscape:connector-curvature="0" />
      </clipPath>
      <path
         d="m 50.406829,73.873014 c -9.799,0 -17.770999,-7.971999 -17.770999,-17.770999 0,-1.316 0.146,-2.599 0.417999,-3.834 0.128001,0.016 0.256001,0.025 0.383001,0.025 1.215999,0 2.367999,-0.726 2.853999,-1.921 3.160001,-7.784 12.063,-11.545 19.846,-8.384999 1.908,0.774999 3.605,1.897999 5.044,3.339 1.006,1.005999 2.535,1.170999 3.711,0.493999 2.068,2.904 3.285,6.454 3.285,10.282 0,9.799 -7.972,17.770999 -17.77,17.770999 m -18.394,-21.930996 c -0.301999,1.339 -0.461999,2.731 -0.461999,4.16 0,10.398 8.459,18.856999 18.855999,18.856999 10.397,0 18.856,-8.458999 18.856,-18.856999 0,-4.094 -1.313,-7.887 -3.538,-10.982 1.009,-1.209 0.947,-3.009999 -0.188,-4.146 -2.026,-2.027 -4.408,-3.606 -7.082,-4.692 -10.929999,-4.437 -23.430999,0.844 -27.868999,11.773 -0.602,1.484 0.036,3.162 1.426999,3.887"
         id="path17"
         inkscape:connector-curvature="0"
         style="fill:#fdb731;fill-opacity:1;stroke-width:0.99999994;enable-background:new" />
      <path
         style="fill:#0e47bb;stroke-width:1.33333325;enable-background:new"
         d="m 75,33.482422 c -10.93309,0.07729 -21.203549,4.34354 -28.943359,12.082031 -6.841334,6.842667 -10.991396,15.661302 -11.914063,25.167969 -2.017333,0.258667 -3.578125,1.984265 -3.578125,4.072266 0,11.948 4.654897,23.179572 13.101563,31.628902 8.378473,8.37715 19.498216,12.99493 31.333984,13.07227 v -8.21094 C 65.357546,111.21776 56.299147,107.45344 49.472656,100.62695 42.57399,93.728286 38.775391,84.559354 38.775391,74.804688 c 0,-1.950667 -1.360926,-3.581334 -3.183594,-4 0.904,-9.146667 4.904902,-17.629511 11.490234,-24.214844 C 54.547182,39.124693 64.453598,35.008885 75,34.931641 Z"
         id="path6235"
         transform="matrix(0.75,0,0,0.75,-6.0651829,0)"
         inkscape:connector-curvature="0" />
      <path
         style="fill:#af2c1e;fill-opacity:1;stroke-width:1.33333325;enable-background:new"
         d="m 75,33.482422 v 1.449219 c 0.100093,-7.33e-4 0.194715,-0.0293 0.294922,-0.0293 10.657332,0 20.678844,4.1515 28.214848,11.6875 7.53733,7.536 11.6875,17.556177 11.6875,28.214844 0,4.084 -0.61111,8.071899 -1.78711,11.865234 -1.84267,-0.330667 -3.736,0.640881 -4.5,2.435547 -1.82934,4.305333 -4.44969,8.181484 -7.79102,11.521484 -6.897333,6.89734 -16.069551,10.69727 -25.824218,10.69727 -0.10019,0 -0.194857,-0.0285 -0.294922,-0.0293 v 8.21094 c 0.1001,6.5e-4 0.19472,0.0293 0.294922,0.0293 11.948,0 23.181527,-4.65357 31.630858,-13.10157 4.088,-4.088 7.29702,-8.83852 9.54102,-14.117187 0.816,-1.921333 0.0567,-4.113243 -1.69532,-5.142578 1.232,-3.952 1.87305,-8.110474 1.87305,-12.36914 0,-11.045334 -4.30004,-21.430902 -12.10937,-29.240235 -7.810669,-7.80933 -18.196238,-12.111325 -29.240238,-12.111325 -0.100198,0 -0.194834,0.02859 -0.294922,0.0293 z"
         id="path19"
         transform="matrix(0.75,0,0,0.75,-6.0651829,0)"
         inkscape:connector-curvature="0" />
      <path
         style="fill:#0e47bb;stroke-width:1.33333325;enable-background:new"
         d="m 75,13.902344 c -7.712907,0.03476 -15.280558,1.473797 -22.505859,4.388672 -7.282666,2.938666 -13.820882,7.165786 -19.435547,12.564453 -1.494667,1.438666 -1.665183,3.73776 -0.478516,5.371093 -4.333333,4.788001 -7.800312,10.215875 -10.320312,16.171876 -3.001334,7.097332 -4.521485,14.634963 -4.521485,22.404296 0,7.770667 1.520151,15.308297 4.521485,22.404297 2.9,6.854669 7.050605,13.011539 12.335937,18.296879 5.285333,5.28533 11.440257,9.43531 18.294922,12.33398 5.853333,2.476 12.005177,3.94281 18.339844,4.38281 0.262161,1.89719 1.835876,3.3373 3.769531,3.48242 v -8.05078 c -1.814983,0.14631 -3.333979,1.38074 -3.714844,3.11914 C 65.12649,130.33949 59.145745,128.91057 53.455078,126.50391 46.773745,123.67724 40.774427,119.63184 35.621094,114.47852 30.467762,109.32518 26.42237,103.32586 23.595703,96.644531 20.670369,89.727199 19.1875,82.378734 19.1875,74.802734 c 0,-7.574666 1.482869,-14.922511 4.408203,-21.839843 2.449333,-5.792 5.818632,-11.071089 10.029297,-15.732422 1.569335,1.049333 3.707667,0.906254 5.125,-0.455078 C 43.603335,32.106057 49.261073,28.448297 55.566406,25.904297 61.848096,23.370075 68.424174,22.1183 75,22.080078 Z"
         id="path6230"
         transform="matrix(0.75,0,0,0.75,-6.0651829,0)"
         inkscape:connector-curvature="0" />
      <path
         style="fill:#af2c1e;fill-opacity:1;stroke-width:1.33333325;enable-background:new"
         d="m 75,13.902344 v 8.177734 c 7.097095,-0.04125 14.1954,1.33758 20.923828,4.197266 12.961332,5.509333 23.002152,15.735541 28.271482,28.796875 5.26933,13.061332 5.13628,27.394136 -0.37304,40.355469 -5.508,12.962662 -15.7375,23.002152 -28.798832,28.271482 -6.324001,2.552 -12.95432,3.84571 -19.708985,3.84571 h -0.01758 c -0.112543,0 -0.186628,0.0966 -0.296875,0.10546 v 8.05078 c 0.102072,0.008 0.190898,0.0546 0.294922,0.0547 h 0.01953 c 7.812,0 15.478585,-1.49535 22.78125,-4.44336 7.628,-3.076 14.42508,-7.5564 20.20508,-13.3164 5.58133,-5.56134 9.9815,-12.07414 13.07617,-19.355472 3.096,-7.282665 4.73262,-14.970943 4.86328,-22.849609 0.136,-8.158667 -1.35564,-16.161063 -4.43164,-23.789063 C 128.73126,44.377238 124.25023,37.576875 118.49023,31.796875 112.9289,26.215542 106.41548,21.817323 99.132812,18.722656 91.85148,15.626656 84.163823,13.990042 76.285156,13.859375 75.854372,13.852266 75.429875,13.900406 75,13.902344 Z"
         id="path21"
         transform="matrix(0.75,0,0,0.75,-6.0651829,0)"
         inkscape:connector-curvature="0" />
      <path
         d="m 52.52793,58.080517 c -0.547,0.542 -1.271,0.839 -2.039,0.839 h -0.015 c -0.774,-0.003 -1.501,-0.308 -2.046,-0.858999 -0.545,-0.550001 -0.842,-1.279001 -0.838,-2.053001 0.002,-0.775 0.308,-1.501 0.858,-2.046 0.547,-0.541999 1.27,-0.838999 2.04,-0.838999 h 0.014 c 0.774,0.003 1.501,0.307999 2.046,0.858 0.545,0.550999 0.843,1.279999 0.839,2.053999 -0.004,0.775001 -0.308,1.501001 -0.859,2.046 m -1.995,-11.474999 h -0.046 c -2.498,0 -4.849,0.967 -6.625,2.725999 -1.786,1.77 -2.777,4.129 -2.789,6.645 -0.013,2.515 0.956,4.884 2.726,6.67 1.77,1.788 4.129,2.778 6.644,2.79 h 0.047 c 2.497,0 4.849,-0.967 6.624,-2.726 1.787,-1.77 2.778,-4.13 2.79,-6.644999 0.012,-2.515001 -0.956,-4.884 -2.727,-6.671001 -1.769,-1.785999 -4.128,-2.776999 -6.644,-2.788999"
         id="path23"
         inkscape:connector-curvature="0"
         style="fill:#fdb731;fill-opacity:1;stroke-width:0.99999994;enable-background:new" />
      <g
         aria-label="ocpc"
         style="font-style:normal;font-variant:normal;font-weight:normal;font-stretch:normal;font-size:60px;line-height:1.25;font-family:C059;-inkscape-font-specification:C059;letter-spacing:0px;word-spacing:0px;fill:#000000;fill-opacity:1;stroke:none;stroke-width:0.75"
         id="text6245">
        <path
           d="m 133.83939,76.289725 c 11.25,0 20.775,-9.3 20.775,-20.325 0,-11.025 -9.525,-20.25 -20.775,-20.25 -11.25,0 -20.775,9.225 -20.775,20.25 0,11.025 9.525,20.325 20.775,20.325 z m 0,-7.8 c -6.45,0 -11.85,-5.7 -11.85,-12.525 0,-6.75 5.4,-12.45 11.85,-12.45 6.375,0 11.775,5.7 11.775,12.45 0,6.825 -5.4,12.525 -11.775,12.525 z"
           style="font-style:normal;font-variant:normal;font-weight:normal;font-stretch:normal;font-size:75px;font-family:'Metropolis Semi Bold';-inkscape-font-specification:'Metropolis Semi Bold, ';stroke-width:0.75"
           id="path5161"
           inkscape:connector-curvature="0" />
        <path
           d="m 181.23935,76.289725 c 6.15,0 11.325,-2.55 15.075,-6.525 l -6.15,-5.325 c -2.175,2.475 -5.475,4.05 -8.85,4.05 -6.375,0 -11.7,-5.7 -11.7,-12.525 0,-6.75 5.325,-12.45 11.7,-12.45 3.3,0 6.525,1.575 8.625,3.9 l 6.15,-5.4 c -3.675,-3.825 -8.85,-6.3 -14.7,-6.3 -11.325,0 -20.85,9.225 -20.85,20.25 0,11.025 9.525,20.325 20.7,20.325 z"
           style="font-style:normal;font-variant:normal;font-weight:normal;font-stretch:normal;font-size:75px;font-family:'Metropolis Semi Bold';-inkscape-font-specification:'Metropolis Semi Bold, ';stroke-width:0.75"
           id="path5163"
           inkscape:connector-curvature="0" />
        <path
           d="m 226.38932,35.714725 c -5.775,0 -10.425,2.625 -13.5,7.05 v -6.15 h -9.15 v 51.675 h 9.15 v -19.05 c 3.075,4.425 7.725,7.05 13.5,7.05 10.275,0 17.775,-8.4 17.775,-20.325 0,-11.85 -7.5,-20.25 -17.775,-20.25 z m -2.475,32.775 c -6.45,0 -10.95,-5.25 -10.95,-12.525 0,-7.275 4.5,-12.45 10.95,-12.45 6.525,0 11.175,5.175 11.175,12.45 0,7.275 -4.65,12.525 -11.175,12.525 z"
           style="font-style:normal;font-variant:normal;font-weight:normal;font-stretch:normal;font-size:75px;font-family:'Metropolis Semi Bold';-inkscape-font-specification:'Metropolis Semi Bold, ';stroke-width:0.75"
           id="path5165"
           inkscape:connector-curvature="0" />
        <path
           d="m 271.08921,76.289725 c 6.15,0 11.325,-2.55 15.075,-6.525 l -6.15,-5.325 c -2.175,2.475 -5.475,4.05 -8.85,4.05 -6.375,0 -11.7,-5.7 -11.7,-12.525 0,-6.75 5.325,-12.45 11.7,-12.45 3.3,0 6.525,1.575 8.625,3.9 l 6.15,-5.4 c -3.675,-3.825 -8.85,-6.3 -14.7,-6.3 -11.325,0 -20.85,9.225 -20.85,20.25 0,11.025 9.525,20.325 20.7,20.325 z"
           style="font-style:normal;font-variant:normal;font-weight:normal;font-stretch:normal;font-size:75px;font-family:'Metropolis Semi Bold';-inkscape-font-specification:'Metropolis Semi Bold, ';stroke-width:0.75"
           id="path5167"
           inkscape:connector-curvature="0" />
      </g>
    </g>
  </g>
</svg>
