<?xml version="1.0" encoding="UTF-8" standalone="no"?>
<!-- Created with Inkscape (http://www.inkscape.org/) -->

<svg
   version="1.1"
   id="svg2"
   width="339.21332"
   height="243.33333"
   viewBox="0 0 339.21332 243.33333"
   sodipodi:docname="Order Capital logo.eps"
   xmlns:inkscape="http://www.inkscape.org/namespaces/inkscape"
   xmlns:sodipodi="http://sodipodi.sourceforge.net/DTD/sodipodi-0.dtd"
   xmlns="http://www.w3.org/2000/svg"
   xmlns:svg="http://www.w3.org/2000/svg">
  <defs
     id="defs6" />
  <sodipodi:namedview
     id="namedview4"
     pagecolor="#ffffff"
     bordercolor="#000000"
     borderopacity="0.25"
     inkscape:showpageshadow="2"
     inkscape:pageopacity="0.0"
     inkscape:pagecheckerboard="0"
     inkscape:deskcolor="#d1d1d1" />
  <g
     id="g8"
     inkscape:groupmode="layer"
     inkscape:label="ink_ext_XXXXXX"
     transform="matrix(1.3333333,0,0,-1.3333333,0,243.33333)">
    <g
       id="g10"
       transform="scale(0.1)">
      <path
         d="m 207.066,192.82 c 0,-30.179 -6.429,-65.109 -27.945,-90.539 -13.414,-15.6521 -36.324,-26.8318 -65.668,-26.8318 -45.5507,0 -69.578,24.0391 -82.4335,55.0508 -8.3828,21.238 -10.9023,40.801 -10.9023,62.32 0,20.961 2.5195,40.52 10.9023,62.039 4.4688,10.61 10.0586,20.121 16.7657,27.661 13.4101,16.21 36.6054,27.671 65.6678,27.671 45.27,0 70.145,-24.882 82.156,-55.332 9.223,-21.519 11.457,-41.078 11.457,-62.039 z m -93.613,119.879 c -32.4178,0 -59.2421,-10.898 -81.0389,-32.687 C 10.6211,258.211 0,229.148 0,192.82 0,141.68 24.8672,103.121 58.125,85.7891 75.4492,77.1289 93.8945,72.6602 113.453,72.6602 c 39.961,0 75.172,16.7695 96.969,53.9298 11.176,18.441 16.769,40.801 16.769,66.23 0,36.328 -10.625,65.391 -32.421,87.192 -21.797,21.789 -48.622,32.687 -81.317,32.687"
         style="fill:#231f20;fill-opacity:1;fill-rule:nonzero;stroke:none"
         id="path12" />
      <path
         d="m 440.402,242.281 c -9.226,7.821 -20.679,11.739 -34.093,11.739 -23.754,0 -64.832,-14.25 -83.274,-84.11 l 1.113,83.828 -46.105,-6.988 0.281,-2.512 29.903,4.473 V 78.25 h -26.266 v -2.8008 h 75.168 V 78.25 h -33.531 v 84.391 c 15.64,61.199 46.382,87.738 80.195,87.738 21.238,0 33.531,-11.168 33.254,-28.777 -0.274,-11.743 -4.75,-18.442 -13.695,-20.954 -1.668,-9.507 4.476,-16.488 12.3,-16.488 9.496,0 18.161,7.262 18.442,25.699 0.558,13.7 -4.196,24.879 -13.692,32.422"
         style="fill:#231f20;fill-opacity:1;fill-rule:nonzero;stroke:none"
         id="path14" />
      <path
         d="m 649.426,157.332 c -11.735,-54.773 -36.328,-82.1601 -73.219,-82.1601 -36.324,0 -54.769,28.7891 -54.769,86.6291 0,60.64 18.726,89.699 65.39,89.699 19.559,0 34.652,-6.422 45.824,-19 10.907,-12.301 16.774,-27.109 16.774,-43.871 z m 15.371,182.758 -45.555,-6.711 0.281,-2.238 29.903,4.468 v -48.621 l 0.277,-82.429 c -2.238,13.691 -9.504,25.152 -20.68,34.652 -11.171,9.777 -25.144,14.809 -42.195,14.809 -25.152,0 -45.551,-8.391 -60.918,-25.43 -15.09,-16.77 -22.633,-39.121 -22.633,-67.352 0,-26.269 6.707,-47.5 20.118,-63.988 13.691,-16.4883 31.023,-24.5898 52.539,-24.5898 37.164,0 61.757,26.2695 74.05,78.5198 l -0.558,-41.348 V 75.4492 h 41.637 V 78.25 h -26.266 v 261.84"
         style="fill:#231f20;fill-opacity:1;fill-rule:nonzero;stroke:none"
         id="path16" />
      <path
         d="m 830.504,251.5 c 25.144,0 41.355,-13.969 46.664,-28.5 2.516,-7.551 3.914,-15.371 3.914,-24.309 0,-5.031 -0.559,-10.062 -1.676,-15.089 H 758.965 c 5.594,39.957 30.18,67.898 71.539,67.898 z M 869.906,99.2109 C 855.938,88.8711 841.117,83.5586 825.473,83.5586 c -19,0 -35.207,6.9805 -48.34,21.5114 -13.133,14.258 -19.289,34.649 -19.289,61.2 0,5.031 0.289,10.058 0.84,14.812 h 138.05 c 5.028,21.52 1.668,38.848 -10.621,52.539 -12.297,13.688 -30.734,20.399 -55.332,20.399 -25.984,0 -47.781,-8.391 -64.832,-25.149 -17.32,-16.769 -25.707,-39.121 -25.707,-67.07 0,-25.43 7.547,-46.391 21.801,-63.7112 14.809,-17.0507 33.809,-25.4296 57.844,-25.4296 40.238,0 67.902,28.2188 83.554,71.5388 l -1.679,0.832 c -6.989,-19.562 -17.61,-35.199 -31.856,-45.8201"
         style="fill:#231f20;fill-opacity:1;fill-rule:nonzero;stroke:none"
         id="path18" />
      <path
         d="m 1112.18,242.281 c -9.5,7.821 -20.96,11.739 -34.37,11.739 -23.75,0 -64.55,-14.25 -82.997,-84.11 l 1.117,83.828 -46.383,-6.988 0.277,-2.512 29.903,4.473 V 78.25 h -25.985 v -2.8008 h 74.888 V 78.25 h -33.532 v 84.391 c 15.922,61.199 46.662,87.738 80.472,87.738 21.24,0 33.54,-11.168 33.26,-28.777 -0.28,-11.743 -4.75,-18.442 -13.7,-20.954 -1.67,-9.507 4.2,-16.488 12.3,-16.488 9.5,0 18.17,7.262 18.45,25.699 0.28,13.7 -4.47,24.879 -13.7,32.422"
         style="fill:#231f20;fill-opacity:1;fill-rule:nonzero;stroke:none"
         id="path20" />
      <path
         d="m 1337.51,282.52 c 13.42,16.21 36.61,27.671 65.68,27.671 48.06,0 73.77,-30.742 78.23,-91.941 h 2.24 l -4.75,93.332 -14.53,-12.852 c -19.84,9.219 -40.24,13.969 -61.19,13.969 -32.42,0 -59.25,-10.898 -81.05,-32.687 -21.79,-21.801 -32.41,-50.864 -32.41,-87.192 0,-36.609 10.62,-65.672 32.41,-87.468 21.8,-21.7934 48.63,-32.6918 81.05,-32.6918 20.95,0 41.35,4.75 61.19,14.25 l 14.53,-13.1289 4.75,93.6097 h -2.24 c -4.46,-61.481 -30.17,-91.9418 -78.23,-91.9418 -45.56,0 -69.59,24.8708 -82.44,55.3318 -8.38,21.52 -10.9,40.801 -10.9,62.039 0,20.961 2.52,40.52 10.9,62.039 4.47,10.61 10.06,20.121 16.76,27.661"
         style="fill:#231f20;fill-opacity:1;fill-rule:nonzero;stroke:none"
         id="path22" />
      <path
         d="m 1687.66,156.211 c -5.87,-22.91 -17.05,-41.633 -33.54,-56.7227 -16.48,-14.5274 -33.81,-22.0781 -52.25,-22.0781 -23.76,0 -35.49,13.6914 -35.49,36.6098 0,13.691 5.86,23.75 11.73,28.781 2.8,2.789 7.55,5.031 13.97,6.711 6.72,1.949 12.02,3.347 15.65,3.629 3.92,0.839 10.07,1.398 18.45,2.507 10.62,0.84 18.16,1.961 23.47,2.801 5.87,1.121 12.02,3.071 19.84,6.153 7.82,3.07 13.7,6.98 18.17,11.726 z m 24.3,-79.3594 c -6.98,0 -8.93,8.3789 -8.93,32.4184 v 83.269 c 0,48.902 -38.57,61.481 -73.78,61.481 -22.36,0 -43.31,-3.918 -59.52,-18.45 -8.1,-6.98 -12.29,-15.64 -12.29,-26.539 0,-14.25 7.26,-21.519 15.64,-21.519 7.83,0 13.97,6.988 12.3,16.769 -6.43,1.11 -10.62,7.821 -10.62,15.918 0,13.699 15.65,24.039 31.29,28.231 8.11,1.949 15.93,3.07 23.2,3.07 11.74,0 22.36,-1.68 36.05,-8.102 13.13,-5.867 22.36,-20.117 22.36,-40.238 v -23.75 c -14.54,-15.09 -33.54,-18.449 -70.7,-21.238 -21.24,-1.402 -33.54,-3.352 -48.35,-9.781 -14.25,-6.153 -21.79,-18.442 -21.79,-36.891 0,-25.7109 18.16,-38.8398 45.26,-38.8398 21.52,0 41.36,7.2617 58.97,21.2382 17.88,14.5316 30.18,32.6916 36.61,55.3316 v -39.96 c 0,-26.5512 5.02,-36.6098 19.28,-36.6098 13.41,0 20.12,11.7304 20.67,35.7698 h -2.23 c -0.28,-21.2386 -4.47,-31.5784 -13.42,-31.5784"
         style="fill:#231f20;fill-opacity:1;fill-rule:nonzero;stroke:none"
         id="path24" />
      <path
         d="m 1918.76,97.8086 c -12.58,-15.0898 -28.51,-22.3594 -48.35,-22.3594 -19.84,0 -34.93,6.1524 -45.27,18.4492 C 1814.8,106.191 1809.49,121 1809.49,137.77 v 41.64 c 17.05,48.059 45.83,72.93 76.29,72.09 34.65,-0.84 51.98,-26.82 51.98,-78.238 0,-35.211 -6.43,-60.364 -19,-75.4534 z M 1888.01,254.02 c -33.25,0 -61.75,-23.481 -79.07,-69.301 l 1.11,69.019 -46.11,-6.988 0.28,-2.512 29.63,5.032 V 2.80078 h -26 V 0 h 72.1 v 2.80078 h -30.18 V 119.609 c 6.71,-26.8277 27.38,-46.9488 60.64,-46.9488 35.77,0 63.43,21.5195 75.73,51.1408 6.43,15.09 9.22,31.019 9.22,48.898 0,24.59 -6.15,44.43 -18.72,59.242 -12.3,14.809 -28.79,22.079 -48.63,22.079"
         style="fill:#231f20;fill-opacity:1;fill-rule:nonzero;stroke:none"
         id="path26" />
      <path
         d="m 2050.37,253.738 -45.55,-7.828 0.56,-2.23 29.62,4.75 V 78.25 h -25.98 v -2.8008 h 69.02 V 78.25 h -27.67 v 175.488"
         style="fill:#231f20;fill-opacity:1;fill-rule:nonzero;stroke:none"
         id="path28" />
      <path
         d="m 2054.28,292.578 c 6.15,6.434 6.15,16.492 0,22.91 -6.42,6.153 -16.48,6.153 -22.91,0 -6.43,-6.418 -6.43,-16.476 0,-22.91 6.43,-6.43 16.49,-6.43 22.91,0"
         style="fill:#231f20;fill-opacity:1;fill-rule:nonzero;stroke:none"
         id="path30" />
      <path
         d="m 2177.24,76.8516 c -9.78,0 -14.81,12.0195 -14.81,36.6094 v 135.25 h 32.97 v 2.789 h -32.97 v 58.129 h -2.24 v -8.391 c 0,-13.687 -1.68,-27.656 -5.03,-42.75 -8.38,-4.75 -17.88,-6.988 -27.66,-6.988 h -3.36 v -2.789 h 22.92 V 114.578 c 0,-30.7382 6.14,-41.9178 23.75,-41.9178 14.53,0 24.87,7.539 25.15,35.7698 H 2194 c -0.28,-21.2386 -5.59,-31.5784 -16.76,-31.5784"
         style="fill:#231f20;fill-opacity:1;fill-rule:nonzero;stroke:none"
         id="path32" />
      <path
         d="m 2389.33,156.211 c -5.59,-22.91 -17.04,-41.633 -33.53,-56.7227 -16.21,-14.5274 -33.81,-22.0781 -52.25,-22.0781 -23.76,0 -35.49,13.6914 -35.49,36.6098 0,13.691 6.15,23.75 11.73,28.781 3.08,2.789 7.83,5.031 14.26,6.711 6.7,1.949 12.01,3.347 15.65,3.629 3.63,0.839 10.05,1.398 18.44,2.507 10.34,0.84 18.16,1.961 23.47,2.801 5.59,1.121 12.02,3.071 19.84,6.153 7.55,3.07 13.69,6.98 17.88,11.726 z m 24.6,-79.3594 c -6.99,0 -9.23,8.3789 -9.23,32.4184 v 83.269 c 0,48.902 -38.28,61.481 -73.49,61.481 -22.63,0 -43.31,-3.918 -59.8,-18.45 -8.11,-6.98 -12.01,-15.64 -12.01,-26.539 0,-14.25 6.98,-21.519 15.37,-21.519 8.1,0 14.25,6.988 12.57,16.769 -6.43,1.11 -10.9,7.821 -10.9,15.918 0,13.699 15.93,24.039 31.58,28.231 8.1,1.949 15.65,3.07 23.19,3.07 11.74,0 22.35,-1.68 35.77,-8.102 13.42,-5.867 22.35,-20.117 22.35,-40.238 v -23.75 c -14.25,-15.09 -33.53,-18.449 -70.7,-21.238 -20.96,-1.402 -33.53,-3.352 -48.06,-9.781 -14.52,-6.153 -21.8,-18.442 -21.8,-36.891 0,-25.7109 17.89,-38.8398 45.28,-38.8398 21.23,0 41.07,7.2617 58.95,21.2382 17.61,14.5316 30.19,32.6916 36.33,55.3316 v -39.96 c 0,-26.5512 5.04,-36.6098 19.56,-36.6098 13.42,0 20.13,11.7304 20.41,35.7698 h -1.96 c -0.28,-21.2386 -4.75,-31.5784 -13.41,-31.5784"
         style="fill:#231f20;fill-opacity:1;fill-rule:nonzero;stroke:none"
         id="path34" />
      <path
         d="m 2517.88,78.25 v 261.84 l -45.55,-6.988 0.28,-2.243 29.9,4.2 V 78.25 h -26.27 v -2.8008 h 67.91 V 78.25 h -26.27"
         style="fill:#231f20;fill-opacity:1;fill-rule:nonzero;stroke:none"
         id="path36" />
      <path
         d="m 737.105,1117.67 c -16.816,89.88 -10.687,183.24 14.122,270.81 24.347,87.99 72.91,168.15 134.714,234.59 122.959,134.88 312.939,203.9 494.519,181.86 182.3,-19.07 351.9,-130.57 444.72,-291.09 -43.16,81.96 -107,153.12 -183.46,206.49 -76.75,53.08 -166.57,87.32 -259.44,99.39 -92.92,12.98 -188.85,1.7 -277.05,-30.31 -88.35,-31.63 -169.57,-83.95 -233.472,-153.05 -63.524,-68.99 -112.985,-152.14 -137.551,-242.97 -24.684,-90.34 -31.418,-186.6 -11.812,-278.51 17.902,-92.01 58.894,-178.966 116.546,-252.181 29.426,-36.144 62.336,-69.429 99.008,-98.039 36.864,-28.328 76.811,-52.34 118.871,-71.68 -166.222,82.231 -288.093,244.383 -319.715,424.69"
         style="fill:#231f20;fill-opacity:1;fill-rule:nonzero;stroke:none"
         id="path38" />
      <path
         d="m 1409.35,606.422 c -25.46,27.137 -32.61,26.93 -37.66,26.93 -5.04,0 -256.84,-22.09 -328.15,145.976 16.98,18.313 52.35,-7.226 79.36,-4.406 26.82,0.469 59.79,9.777 86.61,7.25 26.82,-2.524 28.19,-5.152 63.95,-13.981 35.76,-8.839 74.88,-11.363 92.13,-37.453 24.37,-88.707 97.41,-131.867 180.07,-114.847 19.71,-56.711 -100.92,-49.391 -136.31,-9.469 z m -299.17,228.555 c 13.06,3.707 27.84,7.91 42.32,13.113 18.16,6.539 38.67,2.066 48,-6.031 4.33,-3.754 6.22,-8.207 5.32,-12.528 -0.89,-4.371 -5.13,-10.582 -20.15,-15.34 -22.94,-7.261 -44.06,-9.543 -61.49,-9.543 -28.03,0 -46.52,5.883 -47.76,6.274 l -0.47,0.219 c -3.36,1.918 -4.91,4.148 -4.6,6.621 0.75,6.136 12.45,9.715 38.83,17.215 z M 1549.97,619.68 c 42.59,25.242 16.09,94.968 16.09,94.968 164.38,44.872 64.1,91.692 121.37,187.321 21.04,34.5 55.96,33.238 61.43,28.609 13.72,-15.976 -26.38,-79.777 -16.83,-116.957 -25.66,-48.383 -144.72,-128.312 -144.72,-128.312 225.15,108.972 361.97,456.671 246.32,642.731 -12.79,17.98 -23.44,38.19 -18.3,62.48 2.05,30.88 8.11,36.53 -13.25,95.18 -13.26,34.5 -37.45,58.06 -49.65,60.37 -19.02,1.37 4.42,-93.46 -18.4,-144.83 -5.32,-11.97 -1.27,-28.29 5.78,-34.92 20.97,-18.19 10.08,-23.73 -8.52,-13.56 -4.84,1.05 -11.25,1.47 -17.56,-18.09 -17.19,-63.07 -68.04,-35.2 -84.88,-65.63 -6.31,-17.99 40.47,-23.18 55.53,-23.35 17.67,-0.2 44.18,2.84 70.68,0 26.51,-2.84 22.41,-26.82 22.41,-26.82 6.02,-58.5 -23.87,-121.56 -75.74,-173.86 -37.08,-51.287 -174.9,-98.487 -164.91,-12.2 -0.11,20.89 0.44,89.15 0,115.69 -0.42,5.47 -7.99,28.19 -42.07,-13.88 -34.08,-42.07 -55.95,-126.63 -60.58,-161.554 -20.3,-93.726 -125.9,-55.605 -208.88,-60.261 -50.49,-1.895 -82.36,-14.832 -82.36,-14.832 -167.293,-67.403 -115.51,-163.735 11.05,-237.063 91.29,-46.699 197.52,-40.922 210.46,-40.922 12.93,0 20.82,-12.297 46.38,-33.437 26.4,-33.512 173.17,-38.071 139.15,33.129"
         style="fill:#231f20;fill-opacity:1;fill-rule:nonzero;stroke:none"
         id="path40" />
    </g>
  </g>
</svg>
