<?xml version="1.0" encoding="UTF-8" standalone="no"?>
<svg
   width="127.74219pt"
   height="91.845932pt"
   viewBox="0 0 127.74219 91.845935"
   version="1.1"
   id="svg15"
   xmlns="http://www.w3.org/2000/svg"
   xmlns:svg="http://www.w3.org/2000/svg">
  <defs
     id="defs15" />
  <path
     fill-rule="nonzero"
     fill="#231f20"
     fill-opacity="1"
     d="m 5.921875,87.572493 c -1.890625,0 -3.164062,-0.85156 -3.890625,-2.59766 -0.367187,-0.93359 -0.527344,-1.83984 -0.527344,-3.02344 0,-1.14453 0.164063,-2.07421 0.53125,-3.01171 0.21875,-0.52344 0.484375,-0.96485 0.789063,-1.3086 0.6875,-0.82812 1.8125,-1.29687 3.097656,-1.29687 2.355469,0 3.410156,1.41797 3.878906,2.60547 0.488282,1.14453 0.554688,2.16406 0.554688,3.01171 0,1.27344 -0.230469,3.0586 -1.339844,4.36719 -0.679688,0.79688 -1.808594,1.25391 -3.09375,1.25391 m 0,-11.86719 c -1.671875,0 -3.09375,0.57422 -4.226562,1.71094 C 0.570313,78.541243 0,80.064683 0,81.951393 c 0,2.46094 1.164063,4.59766 3.039063,5.57422 0.914062,0.45703 1.878906,0.6875 2.882812,0.6875 2.234375,0 3.984375,-0.97656 5.066406,-2.82031 0.578125,-0.95703 0.875,-2.11328 0.875,-3.44141 0,-1.88671 -0.570312,-3.41015 -1.695312,-4.53515 -1.152344,-1.15235 -2.539063,-1.71094 -4.246094,-1.71094"
     id="path1" />
  <path
     fill-rule="nonzero"
     fill="#231f20"
     fill-opacity="1"
     d="m 20.570313,78.642803 c -0.65625,0 -2.667969,0.23438 -3.894532,2.93359 l 0.03516,-2.66796 0.0039,-0.29297 -0.292969,0.043 -2.304688,0.34765 -0.238281,0.0391 0.02734,0.23829 0.01563,0.125 0.02734,0.25781 0.257812,-0.0391 1.207032,-0.17969 v 7.98437 h -1.3125 v 0.64063 h 4.257818 v -0.64063 h -1.675781 v -3.9375 c 0.695312,-2.6914 2.03125,-4.17187 3.761719,-4.17187 0.492187,0 0.878906,0.13281 1.121093,0.3789 0.199219,0.19922 0.296875,0.47266 0.289063,0.8086 -0.01172,0.59375 -0.261719,0.74219 -0.5,0.8125 l -0.152344,0.0391 -0.02734,0.15625 c -0.05469,0.30859 0.01563,0.59375 0.199219,0.80859 0.164063,0.19922 0.402344,0.3086 0.664063,0.3086 0.554687,0 1.152343,-0.40235 1.171874,-1.53125 0.03125,-0.75781 -0.238281,-1.39063 -0.78125,-1.82031 -0.5,-0.42579 -1.125,-0.64063 -1.859374,-0.64063"
     id="path2" />
  <path
     fill-rule="nonzero"
     fill="#231f20"
     fill-opacity="1"
     d="m 29.066406,87.588113 c -1.675781,0 -2.488281,-1.33593 -2.488281,-4.08593 0,-2.96875 0.902344,-4.23438 3.019531,-4.23438 0.898438,0 1.585938,0.28516 2.105469,0.86719 0.515625,0.57812 0.777344,1.26172 0.777344,2.02734 v 1.53906 c -0.558594,2.57813 -1.707032,3.88672 -3.414063,3.88672 M 33.75,87.431863 v -13.13281 l -0.289063,0.0391 -2.277343,0.33594 -0.242188,0.0352 0.03125,0.24609 0.01172,0.10938 0.03125,0.2539 0.253906,-0.0391 1.210938,-0.17969 v 2.14063 l 0.0078,2.87109 c -0.167968,-0.23828 -0.371094,-0.46094 -0.617187,-0.66797 -0.605458,-0.53129 -1.371083,-0.80082 -2.273427,-0.80082 -1.332031,0 -2.421875,0.45313 -3.230469,1.35547 -0.792968,0.87891 -1.199218,2.07031 -1.199218,3.53125 0,1.36328 0.359375,2.49219 1.066406,3.35937 0.726562,0.87891 1.675781,1.32422 2.820312,1.32422 1.546876,0 2.695313,-0.85156 3.429688,-2.53125 l -0.0039,0.41797 v 1.97266 h 2.582031 v -0.64063 z m 0,0"
     id="path3" />
  <path
     fill-rule="nonzero"
     fill="#231f20"
     fill-opacity="1"
     d="m 41.785156,79.267803 c 1.210938,0 1.886719,0.67969 2.097657,1.26172 0.125,0.36719 0.183593,0.72656 0.183593,1.12891 0,0.16796 -0.01563,0.33593 -0.04297,0.5039 h -5.519531 c 0.351563,-1.84375 1.535157,-2.89453 3.28125,-2.89453 m 3.675781,4.85156 -0.253906,-0.125 -0.09375,0.26563 c -0.339844,0.94922 -0.84375,1.67969 -1.507812,2.17187 -0.65625,0.48828 -1.351563,0.73438 -2.070313,0.73438 -0.898437,0 -1.628906,-0.32422 -2.234375,-0.99219 -0.605468,-0.66016 -0.898437,-1.60547 -0.898437,-2.89453 0,-0.16406 0.0039,-0.32813 0.01953,-0.48828 h 6.875 l 0.04297,-0.19531 c 0.277343,-1.17188 0.08203,-2.10547 -0.585938,-2.85157 -0.660155,-0.73047 -1.652342,-1.10156 -2.953124,-1.10156 -1.371094,0 -2.523437,0.44531 -3.417968,1.32813 -0.902344,0.875 -1.359376,2.0625 -1.359376,3.53125 0,1.29687 0.382813,2.42187 1.144532,3.34765 0.796875,0.91797 1.808594,1.36328 3.085937,1.36328 2.003907,0 3.53125,-1.29687 4.414063,-3.74218 l 0.07813,-0.21094 -0.199219,-0.0977 z m 0,0"
     id="path4" />
  <path
     fill-rule="nonzero"
     fill="#231f20"
     fill-opacity="1"
     d="m 54.156255,78.642803 c -0.65625,0 -2.65625,0.23438 -3.882818,2.92969 l 0.03516,-2.66406 0.0039,-0.29297 -0.289063,0.043 -2.320312,0.34765 -0.238281,0.0391 0.02734,0.23829 0.01172,0.125 0.03125,0.25781 0.253907,-0.0391 1.210937,-0.17969 v 7.98437 h -1.300781 v 0.64063 h 4.246096 v -0.64063 h -1.67969 v -3.9375 c 0.70703,-2.6914 2.05078,-4.17187 3.77734,-4.17187 0.49219,0 0.87891,0.13281 1.1211,0.3789 0.19922,0.19922 0.29687,0.47266 0.29297,0.8086 -0.0156,0.59375 -0.26172,0.74219 -0.50391,0.8125 l -0.15234,0.0391 -0.0273,0.15625 c -0.0547,0.30859 0.0156,0.59766 0.19532,0.8125 0.16406,0.19922 0.40234,0.30469 0.66796,0.30469 0.55469,0 1.15625,-0.40235 1.17188,-1.53125 0.0156,-0.76172 -0.25391,-1.39063 -0.77734,-1.82031 -0.51954,-0.42579 -1.14844,-0.64063 -1.875,-0.64063"
     id="path5" />
  <path
     fill-rule="nonzero"
     fill="#231f20"
     fill-opacity="1"
     d="m 67.328125,77.631083 c 0.6875,-0.82812 1.81641,-1.29687 3.10156,-1.29687 2.25,0 3.44922,1.42578 3.66016,4.36328 l 0.0195,0.23437 h 0.60547 l -0.0117,-0.26172 -0.23828,-4.66796 -0.0273,-0.51954 -0.38672,0.34375 -0.60547,0.53516 c -0.98438,-0.43359 -2,-0.65234 -3.01563,-0.65234 -1.67578,0 -3.09765,0.57031 -4.23047,1.70703 -1.125,1.125 -1.69531,2.64844 -1.69531,4.53515 0,1.89844 0.57031,3.42969 1.69531,4.55079 1.13282,1.13671 2.55469,1.71093 4.23047,1.71093 1.02344,0 2.03907,-0.22656 3.01563,-0.66797 l 0.60156,0.54688 0.39063,0.35156 0.0273,-0.52344 0.23828,-4.68359 0.0117,-0.26172 h -0.60544 l -0.0195,0.23047 c -0.21094,2.9375 -1.41016,4.36719 -3.66016,4.36719 -1.8789,0 -3.15234,-0.85547 -3.89453,-2.61328 -0.36719,-0.94532 -0.52344,-1.84766 -0.52344,-3.00782 0,-1.14453 0.16016,-2.07421 0.52344,-3.01171 0.22266,-0.52344 0.49219,-0.96485 0.79297,-1.3086"
     id="path6" />
  <path
     fill-rule="nonzero"
     fill="#231f20"
     fill-opacity="1"
     d="m 79.937495,84.361553 c 0.28907,-0.0859 0.57032,-0.16016 0.73829,-0.17578 0.16015,-0.0312 0.32812,-0.0508 0.54296,-0.0781 l 0.39454,-0.0469 c 0.5039,-0.043 0.88281,-0.0937 1.17968,-0.14063 0.30469,-0.0586 0.625,-0.16015 1.04688,-0.32421 0.21094,-0.082 0.39844,-0.17579 0.5664,-0.28907 v 0.44532 c -0.28125,1.08203 -0.80468,1.96093 -1.59765,2.68359 -0.79297,0.69922 -1.59375,1.03906 -2.44531,1.03906 -1.01172,0 -1.52344,-0.53125 -1.52344,-1.58203 0,-0.60547 0.25781,-1.04297 0.5,-1.25 0.0859,-0.0859 0.24609,-0.19141 0.59765,-0.28125 m 6.60547,1.5625 h -0.24609 l -0.004,0.24609 c -0.008,0.60938 -0.0898,1.33204 -0.42187,1.33204 -0.13281,0 -0.19531,-0.46094 -0.19531,-1.3711 v -4.16406 c 0,-2.11328 -1.4375,-3.32422 -3.94141,-3.32422 -1.39453,0 -2.39453,0.3125 -3.14453,0.98438 -0.46094,0.39843 -0.69922,0.91015 -0.69922,1.51562 0,0.91406 0.51953,1.32422 1.03516,1.32422 0.2539,0 0.49609,-0.10938 0.66015,-0.30469 0.1836,-0.21484 0.25391,-0.50781 0.19922,-0.82422 l -0.0273,-0.17578 -0.17578,-0.0273 c -0.19141,-0.0352 -0.32422,-0.26172 -0.32422,-0.55078 0,-0.55078 0.71484,-0.99219 1.3789,-1.17188 0.39844,-0.0937 0.76953,-0.14453 1.09766,-0.14453 0.625,0 1.11719,0.10938 1.69531,0.38281 0.61328,0.27344 0.97656,0.9375 0.97656,1.78516 v 1.08203 c -0.64843,0.625 -1.52734,0.78516 -3.30468,0.91797 -1.03516,0.0703 -1.70703,0.16406 -2.5,0.51172 -0.8125,0.34765 -1.24219,1.0664 -1.24219,2.07031 0,1.375 0.94141,2.19531 2.51562,2.19531 1.125,0 2.17188,-0.375 3.10547,-1.11718 0.60157,-0.49219 1.07422,-1.04688 1.42578,-1.6875 v 0.72265 c 0,1.08203 0.14454,2.08203 1.21485,2.08203 0.82031,0 1.25,-0.68359 1.28125,-2.03515 l 0.008,-0.25391 z m 0,0"
     id="path7" />
  <path
     fill-rule="nonzero"
     fill="#231f20"
     fill-opacity="1"
     d="m 91.917965,80.431863 c 0.0664,-0.082 0.13672,-0.14843 0.20703,-0.22656 -0.0703,0.0781 -0.14062,0.14453 -0.20703,0.22656 m -0.43359,0.6211 c 0.0547,-0.0937 0.11719,-0.16797 0.17187,-0.25391 -0.0547,0.0859 -0.11718,0.16406 -0.17187,0.25391 m -0.39063,0.73047 c 0.0391,-0.0898 0.0859,-0.16407 0.12891,-0.25 -0.043,0.0859 -0.0898,0.16015 -0.12891,0.25 m 2.03907,-2.39454 c -0.082,0.0469 -0.16407,0.082 -0.24219,0.13282 0.0781,-0.0508 0.16016,-0.0859 0.24219,-0.13282 m 0.53906,-0.23046 c -0.0859,0.0273 -0.16797,0.0469 -0.25391,0.082 0.0859,-0.0352 0.16797,-0.0547 0.25391,-0.082 m 0.55469,-0.11329 c -0.0859,0.008 -0.17578,0.008 -0.26172,0.0273 0.0859,-0.0195 0.17578,-0.0195 0.26172,-0.0273 m -1.61328,0.69532 c -0.0742,0.0586 -0.15235,0.11328 -0.22266,0.17968 0.0703,-0.0664 0.14844,-0.12109 0.22266,-0.17968 m 1.18359,7.83203 c -0.92578,0 -1.60156,-0.27344 -2.07422,-0.83203 -0.48047,-0.57422 -0.72266,-1.25782 -0.72266,-2.03516 v -2.03906 c 0.77344,-2.16016 2.04688,-3.39844 3.48829,-3.39844 h 0.0703 c 1.58594,0.0391 2.35547,1.23828 2.35547,3.66406 0,1.6875 -0.30078,2.90235 -0.89453,3.61328 -0.57422,0.69141 -1.30079,1.02735 -2.22266,1.02735 m 0.87892,-8.92969 c -1.50782,0 -2.78907,0.88672 -3.6875,2.52344 l 0.0391,-2.25781 0.004,-0.29297 -0.29296,0.043 -2.30469,0.35156 -0.23828,0.0352 0.0273,0.23829 0.0117,0.125 0.0312,0.26562 0.26172,-0.0469 1.1875,-0.20313 v 11.78125 h -1.29688 v 0.64062 h 4.10547 v -0.64062 h -1.51172 v -4.39453 c 0.59375,0.89453 1.57422,1.40234 2.78516,1.40234 1.78125,0 3.32031,-1.03906 4.01562,-2.71484 0.32422,-0.75781 0.48047,-1.58984 0.48047,-2.53906 0,-1.29688 -0.33203,-2.34766 -0.99609,-3.125 -0.65625,-0.78907 -1.53906,-1.19141 -2.62109,-1.19141"
     id="path8" />
  <path
     fill-rule="nonzero"
     fill="#231f20"
     fill-opacity="1"
     d="m 103.04687,87.431863 v -8.82031 l -0.29297,0.0469 -2.27734,0.39062 -0.26563,0.0469 0.0625,0.26171 0.0312,0.11329 0.0547,0.22265 0.22656,-0.0391 1.19141,-0.19141 v 7.96875 h -1.30078 v 0.64063 h 3.95312 v -0.64063 z m 0,0"
     id="path9" />
  <path
     fill-rule="nonzero"
     fill="#231f20"
     fill-opacity="1"
     d="m 102.41796,75.588113 c 0.20703,0 0.41407,0.0742 0.57422,0.23047 -0.16015,-0.15625 -0.36719,-0.23047 -0.57422,-0.23047 -0.20703,0 -0.41015,0.0742 -0.57422,0.23047 0.16407,-0.15625 0.36719,-0.23047 0.57422,-0.23047 m 0,1.86719 c 0.28125,0 0.54688,-0.11328 0.75,-0.31641 0.40625,-0.42187 0.40625,-1.07812 0.004,-1.49609 -0.21094,-0.19922 -0.47266,-0.30469 -0.75391,-0.30469 -0.27734,0 -0.54297,0.10547 -0.74609,0.29688 -0.42188,0.42578 -0.42188,1.08594 -0.004,1.5039 0.20313,0.20313 0.46875,0.31641 0.75,0.31641"
     id="path10" />
  <path
     fill-rule="nonzero"
     fill="#231f20"
     fill-opacity="1"
     d="m 109.98046,85.924053 h -0.25 v 0.24609 c -0.0195,1.33204 -0.43359,1.33204 -0.58984,1.33204 -0.3125,0 -0.49219,-0.57422 -0.49219,-1.58204 v -6.51171 h 1.65235 v -0.64063 h -1.65235 v -2.90625 h -0.60937 v 0.66797 c 0,0.625 -0.0742,1.27344 -0.22266,1.97266 -0.34766,0.17578 -0.73828,0.26562 -1.16406,0.26562 h -0.41797 v 0.64063 h 1.14844 v 6.45703 c 0,1.41015 0.24218,2.34765 1.4375,2.34765 1,0 1.49218,-0.66797 1.50781,-2.03906 v -0.25 z m 0,0"
     id="path11" />
  <path
     fill-rule="nonzero"
     fill="#231f20"
     fill-opacity="1"
     d="m 115.04687,84.361553 c 0.28516,-0.0859 0.57031,-0.16016 0.73828,-0.17578 0.14844,-0.0312 0.32031,-0.0508 0.53516,-0.0781 0.12109,-0.0117 0.2539,-0.0273 0.40234,-0.0469 0.52734,-0.043 0.92578,-0.10156 1.17969,-0.14063 0.30859,-0.0625 0.64844,-0.16796 1.04297,-0.32421 0.20703,-0.082 0.39062,-0.17969 0.55468,-0.28516 v 0.44141 c -0.26171,1.05078 -0.80078,1.95312 -1.59765,2.68359 -0.76563,0.6875 -1.58985,1.03906 -2.44531,1.03906 -1.01172,0 -1.52344,-0.53125 -1.52344,-1.58203 0,-0.58984 0.26172,-1.03125 0.5039,-1.25391 0.125,-0.10937 0.32813,-0.20703 0.60938,-0.27734 m 6.60156,1.5625 h -0.24609 l -0.004,0.24609 c -0.0117,0.84766 -0.16406,1.33204 -0.41797,1.33204 -0.0977,0 -0.21484,-0.23829 -0.21484,-1.3711 v -4.16406 c 0,-2.14453 -1.39453,-3.32422 -3.92188,-3.32422 -1.41015,0 -2.38671,0.30469 -3.16015,0.98438 -0.45703,0.39843 -0.6836,0.89062 -0.6836,1.51562 0,0.91406 0.51172,1.32422 1.01954,1.32422 0.26171,0 0.50781,-0.10938 0.67578,-0.30859 0.17968,-0.21485 0.2539,-0.50782 0.19922,-0.82032 l -0.0312,-0.17578 -0.17188,-0.0273 c -0.19531,-0.0352 -0.33984,-0.26563 -0.33984,-0.55078 0,-0.54688 0.72265,-0.99219 1.39453,-1.17188 0.41015,-0.0977 0.75781,-0.14453 1.09765,-0.14453 0.62891,0 1.11329,0.10938 1.67969,0.38281 0.6211,0.26953 0.97656,0.92188 0.97656,1.78516 v 1.08594 c -0.63671,0.61718 -1.51562,0.78125 -3.30468,0.91406 -1.04297,0.0703 -1.71485,0.16797 -2.48828,0.51172 -0.82032,0.34765 -1.23829,1.04297 -1.23829,2.07031 0,1.375 0.94141,2.19531 2.51563,2.19531 1.10937,0 2.15625,-0.375 3.10156,-1.11718 0.59375,-0.48829 1.06641,-1.05079 1.41406,-1.67969 v 0.71484 c 0,1.00781 0.0937,2.08203 1.22657,2.08203 0.82812,0 1.2539,-0.68359 1.26953,-2.03515 l 0.004,-0.25391 z m 0,0"
     id="path12" />
  <path
     fill-rule="nonzero"
     fill="#231f20"
     fill-opacity="1"
     d="m 127.49218,87.431863 h -1.0664 v -13.13672 l -0.28515,0.043 -2.28125,0.35157 -0.23829,0.0352 0.0312,0.24219 0.0117,0.11328 0.0352,0.25 0.25,-0.0352 1.21093,-0.16796 v 12.30468 h -1.3164 v 0.64063 h 3.89844 v -0.64063 z m 0,0"
     id="path13" />
  <path
     fill-rule="nonzero"
     fill="#231f20"
     fill-opacity="1"
     d="m 37.113281,35.314678 c -0.839844,-4.484375 -0.535156,-9.148437 0.703125,-13.519531 1.214844,-4.394532 3.640625,-8.394532 6.726563,-11.710938 6.140626,-6.7382807 15.624996,-10.18359365 24.691406,-9.0820307 9.10156,0.953125 17.57031,6.519531 22.20312,14.5351557 -2.15234,-4.09375 -5.33984,-7.6484367 -9.16015,-10.3124997 -3.83203,-2.648437 -8.31641,-4.35937495 -12.95313,-4.96093695 -4.63671,-0.648438 -9.42968,-0.08594 -13.83203,1.51171795 -4.41015,1.582032 -8.464841,4.191407 -11.656248,7.644532 -3.171874,3.4414057 -5.640624,7.5937497 -6.871093,12.1289057 -1.230469,4.511719 -1.566407,9.316406 -0.585938,13.90625 0.890625,4.59375 2.9375,8.9375 5.816407,12.59375 1.46875,1.800781 3.113281,3.464844 4.945312,4.894531 1.839844,1.414063 3.83594,2.613281 5.93359,3.578125 C 44.777344,52.416241 38.691406,44.318584 37.113281,35.314678"
     id="path14" />
  <path
     fill-rule="nonzero"
     fill="#231f20"
     fill-opacity="1"
     d="m 70.675785,60.842022 c -1.26953,-1.355469 -1.62891,-1.34375 -1.87891,-1.34375 -0.25391,0 -12.82422,1.101562 -16.38672,-7.289063 0.84766,-0.914062 2.61719,0.363282 3.96485,0.21875 1.33984,-0.02344 2.98437,-0.488281 4.32421,-0.359375 1.33985,0.125 1.40625,0.257813 3.19141,0.695313 1.78516,0.441406 3.73828,0.570312 4.60156,1.871094 1.21485,4.429687 4.86328,6.585942 8.99219,5.734374 0.98047,2.832028 -5.03906,2.464848 -6.80859,0.472657 m -14.9375,-11.410157 c 0.65234,-0.1875 1.39062,-0.394531 2.11328,-0.65625 0.90625,-0.324218 1.92969,-0.101562 2.39844,0.300782 0.21484,0.1875 0.30859,0.410156 0.26562,0.625 -0.0469,0.21875 -0.25781,0.527344 -1.00781,0.765625 -1.14453,0.363281 -2.19922,0.476562 -3.07031,0.476562 -1.39844,0 -2.32032,-0.292969 -2.38282,-0.3125 l -0.0234,-0.01172 c -0.16797,-0.09375 -0.2461,-0.207031 -0.23047,-0.328124 0.0352,-0.308594 0.62109,-0.484376 1.9375,-0.859376 m 36.12106,-24.621092 c -0.63672,-0.894531 -1.16797,-1.90625 -0.91406,-3.117188 0.10547,-1.542969 0.40625,-1.824219 -0.66016,-4.753906 -0.66016,-1.722656 -1.87109,-2.898437 -2.48047,-3.011719 -0.94922,-0.07031 0.22266,4.664063 -0.91797,7.230469 -0.26562,0.597656 -0.0625,1.414063 0.28907,1.742187 1.04687,0.910157 0.5039,1.183594 -0.42579,0.679688 -0.24218,-0.05469 -0.55859,-0.07422 -0.875,0.902344 -0.85937,3.148437 -3.39843,1.757812 -4.23828,3.277344 -0.3164,0.898437 2.01953,1.15625 2.77344,1.164062 0.87891,0.01172 2.20313,-0.140625 3.52734,0 1.32422,0.140625 1.11719,1.339844 1.11719,1.339844 0.30469,2.921875 -1.1914,6.070312 -3.77734,8.679687 -1.85547,2.5625 -8.73438,4.917969 -8.23438,0.609375 -0.008,-1.042968 0.0195,-4.449218 0,-5.777344 -0.0234,-0.273437 -0.40234,-1.40625 -2.10156,0.695313 -1.70312,2.101563 -2.79297,6.320313 -3.02734,8.066406 -1.01172,4.679688 -6.28516,2.773438 -10.42578,3.007813 -2.52344,0.09375 -4.11328,0.742187 -4.11328,0.742187 -8.351568,3.363281 -5.76954,8.171875 0.55078,11.835938 4.55859,2.332031 9.86328,2.042969 10.50781,2.042969 0.64453,0 1.03906,0.613281 2.31641,1.667972 1.32031,1.67187 8.64843,1.90234 6.94921,-1.652348 2.125,-1.261718 0.80078,-4.742187 0.80078,-4.742187 8.20704,-2.242187 3.20313,-4.578125 6.0625,-9.355469 1.05079,-1.71875 2.79297,-1.65625 3.06641,-1.425781 0.68359,0.796875 -1.31641,3.980469 -0.83984,5.839844 -1.28125,2.414062 -7.22657,6.40625 -7.22657,6.40625 11.24219,-5.441407 18.07032,-22.800781 12.29688,-32.09375"
     id="path15" />
</svg>
