<?xml version="1.0" encoding="UTF-8"?>
<svg xmlns="http://www.w3.org/2000/svg" xmlns:xlink="http://www.w3.org/1999/xlink" width="226.772pt" height="170.079pt" viewBox="0 0 226.772 170.079">
<path fill-rule="nonzero" fill="rgb(13.729858%, 12.159729%, 12.548828%)" fill-opacity="1" d="M 55.4375 126.429688 C 53.546875 126.429688 52.273438 125.578125 51.546875 123.832031 C 51.179688 122.898438 51.019531 121.992188 51.019531 120.808594 C 51.019531 119.664062 51.183594 118.734375 51.550781 117.796875 C 51.769531 117.273438 52.035156 116.832031 52.339844 116.488281 C 53.027344 115.660156 54.152344 115.191406 55.4375 115.191406 C 57.792969 115.191406 58.847656 116.609375 59.316406 117.796875 C 59.804688 118.941406 59.871094 119.960938 59.871094 120.808594 C 59.871094 122.082031 59.640625 123.867188 58.53125 125.175781 C 57.851562 125.972656 56.722656 126.429688 55.4375 126.429688 M 55.4375 114.5625 C 53.765625 114.5625 52.34375 115.136719 51.210938 116.273438 C 50.085938 117.398438 49.515625 118.921875 49.515625 120.808594 C 49.515625 123.269531 50.679688 125.40625 52.554688 126.382812 C 53.46875 126.839844 54.433594 127.070312 55.4375 127.070312 C 57.671875 127.070312 59.421875 126.09375 60.503906 124.25 C 61.082031 123.292969 61.378906 122.136719 61.378906 120.808594 C 61.378906 118.921875 60.808594 117.398438 59.683594 116.273438 C 58.53125 115.121094 57.144531 114.5625 55.4375 114.5625 "/>
<path fill-rule="nonzero" fill="rgb(13.729858%, 12.159729%, 12.548828%)" fill-opacity="1" d="M 70.085938 117.5 C 69.429688 117.5 67.417969 117.734375 66.191406 120.433594 L 66.226562 117.765625 L 66.230469 117.472656 L 65.9375 117.515625 L 63.632812 117.863281 L 63.394531 117.902344 L 63.421875 118.140625 L 63.4375 118.265625 L 63.464844 118.523438 L 63.722656 118.484375 L 64.929688 118.304688 L 64.929688 126.289062 L 63.617188 126.289062 L 63.617188 126.929688 L 67.875 126.929688 L 67.875 126.289062 L 66.199219 126.289062 L 66.199219 122.351562 C 66.894531 119.660156 68.230469 118.179688 69.960938 118.179688 C 70.453125 118.179688 70.839844 118.3125 71.082031 118.558594 C 71.28125 118.757812 71.378906 119.03125 71.371094 119.367188 C 71.359375 119.960938 71.109375 120.109375 70.871094 120.179688 L 70.71875 120.21875 L 70.691406 120.375 C 70.636719 120.683594 70.707031 120.96875 70.890625 121.183594 C 71.054688 121.382812 71.292969 121.492188 71.554688 121.492188 C 72.109375 121.492188 72.707031 121.089844 72.726562 119.960938 C 72.757812 119.203125 72.488281 118.570312 71.945312 118.140625 C 71.445312 117.714844 70.820312 117.5 70.085938 117.5 "/>
<path fill-rule="nonzero" fill="rgb(13.729858%, 12.159729%, 12.548828%)" fill-opacity="1" d="M 78.582031 126.445312 C 76.90625 126.445312 76.09375 125.109375 76.09375 122.359375 C 76.09375 119.390625 76.996094 118.125 79.113281 118.125 C 80.011719 118.125 80.699219 118.410156 81.21875 118.992188 C 81.734375 119.570312 81.996094 120.253906 81.996094 121.019531 L 81.996094 122.558594 C 81.4375 125.136719 80.289062 126.445312 78.582031 126.445312 M 83.265625 126.289062 L 83.265625 113.15625 L 82.976562 113.195312 L 80.699219 113.53125 L 80.457031 113.566406 L 80.488281 113.8125 L 80.5 113.921875 L 80.53125 114.175781 L 80.785156 114.136719 L 81.996094 113.957031 L 81.996094 116.097656 L 82.003906 118.96875 C 81.835938 118.730469 81.632812 118.507812 81.386719 118.300781 C 80.78125 117.769531 80.015625 117.5 79.113281 117.5 C 77.78125 117.5 76.691406 117.953125 75.882812 118.855469 C 75.089844 119.734375 74.683594 120.925781 74.683594 122.386719 C 74.683594 123.75 75.042969 124.878906 75.75 125.746094 C 76.476562 126.625 77.425781 127.070312 78.570312 127.070312 C 80.117188 127.070312 81.265625 126.21875 82 124.539062 L 81.996094 124.957031 L 81.996094 126.929688 L 84.578125 126.929688 L 84.578125 126.289062 Z M 83.265625 126.289062 "/>
<path fill-rule="nonzero" fill="rgb(13.729858%, 12.159729%, 12.548828%)" fill-opacity="1" d="M 91.300781 118.125 C 92.511719 118.125 93.1875 118.804688 93.398438 119.386719 C 93.523438 119.753906 93.582031 120.113281 93.582031 120.515625 C 93.582031 120.683594 93.566406 120.851562 93.539062 121.019531 L 88.019531 121.019531 C 88.371094 119.175781 89.554688 118.125 91.300781 118.125 M 94.976562 122.976562 L 94.722656 122.851562 L 94.628906 123.117188 C 94.289062 124.066406 93.785156 124.796875 93.121094 125.289062 C 92.464844 125.777344 91.769531 126.023438 91.050781 126.023438 C 90.152344 126.023438 89.421875 125.699219 88.816406 125.03125 C 88.210938 124.371094 87.917969 123.425781 87.917969 122.136719 C 87.917969 121.972656 87.921875 121.808594 87.9375 121.648438 L 94.8125 121.648438 L 94.855469 121.453125 C 95.132812 120.28125 94.9375 119.347656 94.269531 118.601562 C 93.609375 117.871094 92.617188 117.5 91.316406 117.5 C 89.945312 117.5 88.792969 117.945312 87.898438 118.828125 C 86.996094 119.703125 86.539062 120.890625 86.539062 122.359375 C 86.539062 123.65625 86.921875 124.78125 87.683594 125.707031 C 88.480469 126.625 89.492188 127.070312 90.769531 127.070312 C 92.773438 127.070312 94.300781 125.773438 95.183594 123.328125 L 95.261719 123.117188 L 95.0625 123.019531 Z M 94.976562 122.976562 "/>
<path fill-rule="nonzero" fill="rgb(13.729858%, 12.159729%, 12.548828%)" fill-opacity="1" d="M 103.671875 117.5 C 103.015625 117.5 101.015625 117.734375 99.789062 120.429688 L 99.824219 117.765625 L 99.828125 117.472656 L 99.539062 117.515625 L 97.21875 117.863281 L 96.980469 117.902344 L 97.007812 118.140625 L 97.019531 118.265625 L 97.050781 118.523438 L 97.304688 118.484375 L 98.515625 118.304688 L 98.515625 126.289062 L 97.214844 126.289062 L 97.214844 126.929688 L 101.460938 126.929688 L 101.460938 126.289062 L 99.78125 126.289062 L 99.78125 122.351562 C 100.488281 119.660156 101.832031 118.179688 103.558594 118.179688 C 104.050781 118.179688 104.4375 118.3125 104.679688 118.558594 C 104.878906 118.757812 104.976562 119.03125 104.972656 119.367188 C 104.957031 119.960938 104.710938 120.109375 104.46875 120.179688 L 104.316406 120.21875 L 104.289062 120.375 C 104.234375 120.683594 104.304688 120.972656 104.484375 121.1875 C 104.648438 121.386719 104.886719 121.492188 105.152344 121.492188 C 105.707031 121.492188 106.308594 121.089844 106.324219 119.960938 C 106.339844 119.199219 106.070312 118.570312 105.546875 118.140625 C 105.027344 117.714844 104.398438 117.5 103.671875 117.5 "/>
<path fill-rule="nonzero" fill="rgb(13.729858%, 12.159729%, 12.548828%)" fill-opacity="1" d="M 116.84375 116.488281 C 117.53125 115.660156 118.660156 115.191406 119.945312 115.191406 C 122.195312 115.191406 123.394531 116.617188 123.605469 119.554688 L 123.625 119.789062 L 124.230469 119.789062 L 124.21875 119.527344 L 123.980469 114.859375 L 123.953125 114.339844 L 123.566406 114.683594 L 122.960938 115.21875 C 121.976562 114.785156 120.960938 114.566406 119.945312 114.566406 C 118.269531 114.566406 116.847656 115.136719 115.714844 116.273438 C 114.589844 117.398438 114.019531 118.921875 114.019531 120.808594 C 114.019531 122.707031 114.589844 124.238281 115.714844 125.359375 C 116.847656 126.496094 118.269531 127.070312 119.945312 127.070312 C 120.96875 127.070312 121.984375 126.84375 122.960938 126.402344 L 123.5625 126.949219 L 123.953125 127.300781 L 123.980469 126.777344 L 124.21875 122.09375 L 124.230469 121.832031 L 123.625 121.832031 L 123.605469 122.0625 C 123.394531 125 122.195312 126.429688 119.945312 126.429688 C 118.066406 126.429688 116.792969 125.574219 116.050781 123.816406 C 115.683594 122.871094 115.527344 121.96875 115.527344 120.808594 C 115.527344 119.664062 115.6875 118.734375 116.050781 117.796875 C 116.273438 117.273438 116.542969 116.832031 116.84375 116.488281 "/>
<path fill-rule="nonzero" fill="rgb(13.729858%, 12.159729%, 12.548828%)" fill-opacity="1" d="M 129.453125 123.21875 C 129.742188 123.132812 130.023438 123.058594 130.191406 123.042969 C 130.351562 123.011719 130.519531 122.992188 130.734375 122.964844 L 131.128906 122.917969 C 131.632812 122.875 132.011719 122.824219 132.308594 122.777344 C 132.613281 122.71875 132.933594 122.617188 133.355469 122.453125 C 133.566406 122.371094 133.753906 122.277344 133.921875 122.164062 L 133.921875 122.609375 C 133.640625 123.691406 133.117188 124.570312 132.324219 125.292969 C 131.53125 125.992188 130.730469 126.332031 129.878906 126.332031 C 128.867188 126.332031 128.355469 125.800781 128.355469 124.75 C 128.355469 124.144531 128.613281 123.707031 128.855469 123.5 C 128.941406 123.414062 129.101562 123.308594 129.453125 123.21875 M 136.058594 124.78125 L 135.8125 124.78125 L 135.808594 125.027344 C 135.800781 125.636719 135.71875 126.359375 135.386719 126.359375 C 135.253906 126.359375 135.191406 125.898438 135.191406 124.988281 L 135.191406 120.824219 C 135.191406 118.710938 133.753906 117.5 131.25 117.5 C 129.855469 117.5 128.855469 117.8125 128.105469 118.484375 C 127.644531 118.882812 127.40625 119.394531 127.40625 120 C 127.40625 120.914062 127.925781 121.324219 128.441406 121.324219 C 128.695312 121.324219 128.9375 121.214844 129.101562 121.019531 C 129.285156 120.804688 129.355469 120.511719 129.300781 120.195312 L 129.273438 120.019531 L 129.097656 119.992188 C 128.90625 119.957031 128.773438 119.730469 128.773438 119.441406 C 128.773438 118.890625 129.488281 118.449219 130.152344 118.269531 C 130.550781 118.175781 130.921875 118.125 131.25 118.125 C 131.875 118.125 132.367188 118.234375 132.945312 118.507812 C 133.558594 118.78125 133.921875 119.445312 133.921875 120.292969 L 133.921875 121.375 C 133.273438 122 132.394531 122.160156 130.617188 122.292969 C 129.582031 122.363281 128.910156 122.457031 128.117188 122.804688 C 127.304688 123.152344 126.875 123.871094 126.875 124.875 C 126.875 126.25 127.816406 127.070312 129.390625 127.070312 C 130.515625 127.070312 131.5625 126.695312 132.496094 125.953125 C 133.097656 125.460938 133.570312 124.90625 133.921875 124.265625 L 133.921875 124.988281 C 133.921875 126.070312 134.066406 127.070312 135.136719 127.070312 C 135.957031 127.070312 136.386719 126.386719 136.417969 125.035156 L 136.425781 124.78125 Z M 136.058594 124.78125 "/>
<path fill-rule="nonzero" fill="rgb(13.729858%, 12.159729%, 12.548828%)" fill-opacity="1" d="M 141.433594 119.289062 C 141.5 119.207031 141.570312 119.140625 141.640625 119.0625 C 141.570312 119.140625 141.5 119.207031 141.433594 119.289062 M 141 119.910156 C 141.054688 119.816406 141.117188 119.742188 141.171875 119.65625 C 141.117188 119.742188 141.054688 119.820312 141 119.910156 M 140.609375 120.640625 C 140.648438 120.550781 140.695312 120.476562 140.738281 120.390625 C 140.695312 120.476562 140.648438 120.550781 140.609375 120.640625 M 142.648438 118.246094 C 142.566406 118.292969 142.484375 118.328125 142.40625 118.378906 C 142.484375 118.328125 142.566406 118.292969 142.648438 118.246094 M 143.1875 118.015625 C 143.101562 118.042969 143.019531 118.0625 142.933594 118.097656 C 143.019531 118.0625 143.101562 118.042969 143.1875 118.015625 M 143.742188 117.902344 C 143.65625 117.910156 143.566406 117.910156 143.480469 117.929688 C 143.566406 117.910156 143.65625 117.910156 143.742188 117.902344 M 142.128906 118.597656 C 142.054688 118.65625 141.976562 118.710938 141.90625 118.777344 C 141.976562 118.710938 142.054688 118.65625 142.128906 118.597656 M 143.3125 126.429688 C 142.386719 126.429688 141.710938 126.15625 141.238281 125.597656 C 140.757812 125.023438 140.515625 124.339844 140.515625 123.5625 L 140.515625 121.523438 C 141.289062 119.363281 142.5625 118.125 144.003906 118.125 L 144.074219 118.125 C 145.660156 118.164062 146.429688 119.363281 146.429688 121.789062 C 146.429688 123.476562 146.128906 124.691406 145.535156 125.402344 C 144.960938 126.09375 144.234375 126.429688 143.3125 126.429688 M 144.191406 117.5 C 142.683594 117.5 141.402344 118.386719 140.503906 120.023438 L 140.542969 117.765625 L 140.546875 117.472656 L 140.253906 117.515625 L 137.949219 117.867188 L 137.710938 117.902344 L 137.738281 118.140625 L 137.75 118.265625 L 137.78125 118.53125 L 138.042969 118.484375 L 139.230469 118.28125 L 139.230469 130.0625 L 137.933594 130.0625 L 137.933594 130.703125 L 142.039062 130.703125 L 142.039062 130.0625 L 140.527344 130.0625 L 140.527344 125.667969 C 141.121094 126.5625 142.101562 127.070312 143.3125 127.070312 C 145.09375 127.070312 146.632812 126.03125 147.328125 124.355469 C 147.652344 123.597656 147.808594 122.765625 147.808594 121.816406 C 147.808594 120.519531 147.476562 119.46875 146.8125 118.691406 C 146.15625 117.902344 145.273438 117.5 144.191406 117.5 "/>
<path fill-rule="nonzero" fill="rgb(13.729858%, 12.159729%, 12.548828%)" fill-opacity="1" d="M 152.5625 126.289062 L 152.5625 117.46875 L 152.269531 117.515625 L 149.992188 117.90625 L 149.726562 117.953125 L 149.789062 118.214844 L 149.820312 118.328125 L 149.875 118.550781 L 150.101562 118.511719 L 151.292969 118.320312 L 151.292969 126.289062 L 149.992188 126.289062 L 149.992188 126.929688 L 153.945312 126.929688 L 153.945312 126.289062 Z M 152.5625 126.289062 "/>
<path fill-rule="nonzero" fill="rgb(13.729858%, 12.159729%, 12.548828%)" fill-opacity="1" d="M 151.933594 114.445312 C 152.140625 114.445312 152.347656 114.519531 152.507812 114.675781 C 152.347656 114.519531 152.140625 114.445312 151.933594 114.445312 C 151.726562 114.445312 151.523438 114.519531 151.359375 114.675781 C 151.523438 114.519531 151.726562 114.445312 151.933594 114.445312 M 151.933594 116.3125 C 152.214844 116.3125 152.480469 116.199219 152.683594 115.996094 C 153.089844 115.574219 153.089844 114.917969 152.6875 114.5 C 152.476562 114.300781 152.214844 114.195312 151.933594 114.195312 C 151.65625 114.195312 151.390625 114.300781 151.1875 114.492188 C 150.765625 114.917969 150.765625 115.578125 151.183594 115.996094 C 151.386719 116.199219 151.652344 116.3125 151.933594 116.3125 "/>
<path fill-rule="nonzero" fill="rgb(13.729858%, 12.159729%, 12.548828%)" fill-opacity="1" d="M 159.496094 124.78125 L 159.246094 124.78125 L 159.246094 125.027344 C 159.226562 126.359375 158.8125 126.359375 158.65625 126.359375 C 158.34375 126.359375 158.164062 125.785156 158.164062 124.777344 L 158.164062 118.265625 L 159.816406 118.265625 L 159.816406 117.625 L 158.164062 117.625 L 158.164062 114.71875 L 157.554688 114.71875 L 157.554688 115.386719 C 157.554688 116.011719 157.480469 116.660156 157.332031 117.359375 C 156.984375 117.535156 156.59375 117.625 156.167969 117.625 L 155.75 117.625 L 155.75 118.265625 L 156.898438 118.265625 L 156.898438 124.722656 C 156.898438 126.132812 157.140625 127.070312 158.335938 127.070312 C 159.335938 127.070312 159.828125 126.402344 159.84375 125.03125 L 159.84375 124.78125 Z M 159.496094 124.78125 "/>
<path fill-rule="nonzero" fill="rgb(13.729858%, 12.159729%, 12.548828%)" fill-opacity="1" d="M 164.5625 123.21875 C 164.847656 123.132812 165.132812 123.058594 165.300781 123.042969 C 165.449219 123.011719 165.621094 122.992188 165.835938 122.964844 C 165.957031 122.953125 166.089844 122.9375 166.238281 122.917969 C 166.765625 122.875 167.164062 122.816406 167.417969 122.777344 C 167.726562 122.714844 168.066406 122.609375 168.460938 122.453125 C 168.667969 122.371094 168.851562 122.273438 169.015625 122.167969 L 169.015625 122.609375 C 168.753906 123.660156 168.214844 124.5625 167.417969 125.292969 C 166.652344 125.980469 165.828125 126.332031 164.972656 126.332031 C 163.960938 126.332031 163.449219 125.800781 163.449219 124.75 C 163.449219 124.160156 163.710938 123.71875 163.953125 123.496094 C 164.078125 123.386719 164.28125 123.289062 164.5625 123.21875 M 171.164062 124.78125 L 170.917969 124.78125 L 170.914062 125.027344 C 170.902344 125.875 170.75 126.359375 170.496094 126.359375 C 170.398438 126.359375 170.28125 126.121094 170.28125 124.988281 L 170.28125 120.824219 C 170.28125 118.679688 168.886719 117.5 166.359375 117.5 C 164.949219 117.5 163.972656 117.804688 163.199219 118.484375 C 162.742188 118.882812 162.515625 119.375 162.515625 120 C 162.515625 120.914062 163.027344 121.324219 163.535156 121.324219 C 163.796875 121.324219 164.042969 121.214844 164.210938 121.015625 C 164.390625 120.800781 164.464844 120.507812 164.410156 120.195312 L 164.378906 120.019531 L 164.207031 119.992188 C 164.011719 119.957031 163.867188 119.726562 163.867188 119.441406 C 163.867188 118.894531 164.589844 118.449219 165.261719 118.269531 C 165.671875 118.171875 166.019531 118.125 166.359375 118.125 C 166.988281 118.125 167.472656 118.234375 168.039062 118.507812 C 168.660156 118.777344 169.015625 119.429688 169.015625 120.292969 L 169.015625 121.378906 C 168.378906 121.996094 167.5 122.160156 165.710938 122.292969 C 164.667969 122.363281 163.996094 122.460938 163.222656 122.804688 C 162.402344 123.152344 161.984375 123.847656 161.984375 124.875 C 161.984375 126.25 162.925781 127.070312 164.5 127.070312 C 165.609375 127.070312 166.65625 126.695312 167.601562 125.953125 C 168.195312 125.464844 168.667969 124.902344 169.015625 124.273438 L 169.015625 124.988281 C 169.015625 125.996094 169.109375 127.070312 170.242188 127.070312 C 171.070312 127.070312 171.496094 126.386719 171.511719 125.035156 L 171.515625 124.78125 Z M 171.164062 124.78125 "/>
<path fill-rule="nonzero" fill="rgb(13.729858%, 12.159729%, 12.548828%)" fill-opacity="1" d="M 177.007812 126.289062 L 175.941406 126.289062 L 175.941406 113.152344 L 175.65625 113.195312 L 173.375 113.546875 L 173.136719 113.582031 L 173.167969 113.824219 L 173.179688 113.9375 L 173.214844 114.1875 L 173.464844 114.152344 L 174.675781 113.984375 L 174.675781 126.289062 L 173.359375 126.289062 L 173.359375 126.929688 L 177.257812 126.929688 L 177.257812 126.289062 Z M 177.007812 126.289062 "/>
<path fill-rule="nonzero" fill="rgb(13.729858%, 12.159729%, 12.548828%)" fill-opacity="1" d="M 86.628906 74.171875 C 85.789062 69.6875 86.09375 65.023438 87.332031 60.652344 C 88.546875 56.257812 90.972656 52.257812 94.058594 48.941406 C 100.199219 42.203125 109.683594 38.757812 118.75 39.859375 C 127.851562 40.8125 136.320312 46.378906 140.953125 54.394531 C 138.800781 50.300781 135.613281 46.746094 131.792969 44.082031 C 127.960938 41.433594 123.476562 39.722656 118.839844 39.121094 C 114.203125 38.472656 109.410156 39.035156 105.007812 40.632812 C 100.597656 42.214844 96.542969 44.824219 93.351562 48.277344 C 90.179688 51.71875 87.710938 55.871094 86.480469 60.40625 C 85.25 64.917969 84.914062 69.722656 85.894531 74.3125 C 86.785156 78.90625 88.832031 83.25 91.710938 86.90625 C 93.179688 88.707031 94.824219 90.371094 96.65625 91.800781 C 98.496094 93.214844 100.492188 94.414062 102.589844 95.378906 C 94.292969 91.273438 88.207031 83.175781 86.628906 74.171875 "/>
<path fill-rule="nonzero" fill="rgb(13.729858%, 12.159729%, 12.548828%)" fill-opacity="1" d="M 120.191406 99.699219 C 118.921875 98.34375 118.5625 98.355469 118.3125 98.355469 C 118.058594 98.355469 105.488281 99.457031 101.925781 91.066406 C 102.773438 90.152344 104.542969 91.429688 105.890625 91.285156 C 107.230469 91.261719 108.875 90.796875 110.214844 90.925781 C 111.554688 91.050781 111.621094 91.183594 113.40625 91.621094 C 115.191406 92.0625 117.144531 92.191406 118.007812 93.492188 C 119.222656 97.921875 122.871094 100.078125 127 99.226562 C 127.980469 102.058594 121.960938 101.691406 120.191406 99.699219 M 105.253906 88.289062 C 105.90625 88.101562 106.644531 87.894531 107.367188 87.632812 C 108.273438 87.308594 109.296875 87.53125 109.765625 87.933594 C 109.980469 88.121094 110.074219 88.34375 110.03125 88.558594 C 109.984375 88.777344 109.773438 89.085938 109.023438 89.324219 C 107.878906 89.6875 106.824219 89.800781 105.953125 89.800781 C 104.554688 89.800781 103.632812 89.507812 103.570312 89.488281 L 103.546875 89.476562 C 103.378906 89.382812 103.300781 89.269531 103.316406 89.148438 C 103.351562 88.839844 103.9375 88.664062 105.253906 88.289062 M 141.375 63.667969 C 140.738281 62.773438 140.207031 61.761719 140.460938 60.550781 C 140.566406 59.007812 140.867188 58.726562 139.800781 55.796875 C 139.140625 54.074219 137.929688 52.898438 137.320312 52.785156 C 136.371094 52.714844 137.542969 57.449219 136.402344 60.015625 C 136.136719 60.613281 136.339844 61.429688 136.691406 61.757812 C 137.738281 62.667969 137.195312 62.941406 136.265625 62.4375 C 136.023438 62.382812 135.707031 62.363281 135.390625 63.339844 C 134.53125 66.488281 131.992188 65.097656 131.152344 66.617188 C 130.835938 67.515625 133.171875 67.773438 133.925781 67.78125 C 134.804688 67.792969 136.128906 67.640625 137.453125 67.78125 C 138.777344 67.921875 138.570312 69.121094 138.570312 69.121094 C 138.875 72.042969 137.378906 75.191406 134.792969 77.800781 C 132.9375 80.363281 126.058594 82.71875 126.558594 78.410156 C 126.550781 77.367188 126.578125 73.960938 126.558594 72.632812 C 126.535156 72.359375 126.15625 71.226562 124.457031 73.328125 C 122.753906 75.429688 121.664062 79.648438 121.429688 81.394531 C 120.417969 86.074219 115.144531 84.167969 111.003906 84.402344 C 108.480469 84.496094 106.890625 85.144531 106.890625 85.144531 C 98.539062 88.507812 101.121094 93.316406 107.441406 96.980469 C 112 99.3125 117.304688 99.023438 117.949219 99.023438 C 118.59375 99.023438 118.988281 99.636719 120.265625 100.691406 C 121.585938 102.363281 128.914062 102.59375 127.214844 99.039062 C 129.339844 97.777344 128.015625 94.296875 128.015625 94.296875 C 136.222656 92.054688 131.21875 89.71875 134.078125 84.941406 C 135.128906 83.222656 136.871094 83.285156 137.144531 83.515625 C 137.828125 84.3125 135.828125 87.496094 136.304688 89.355469 C 135.023438 91.769531 129.078125 95.761719 129.078125 95.761719 C 140.320312 90.320312 147.148438 72.960938 141.375 63.667969 "/>
</svg>
