<?xml version="1.0" encoding="UTF-8"?>
<svg id="Layer_1" data-name="Layer 1" xmlns="http://www.w3.org/2000/svg" viewBox="0 0 1633 640">
  <defs>
    <style>
      .cls-1 {
        fill: #9e302d;
      }
    </style>
  </defs>
  <path class="cls-1" d="M445.73,353.31c17.18,14.88,32.06,21.37,49.66,21.37s29.97-7.12,29.97-18.44c0-10.06-6.71-15.09-24.1-18.02l-29.12-5.03c-25.15-4.19-38.35-17.81-38.35-39.19,0-27.45,22.21-44.42,57.83-44.42,21.38,0,44.22,7.75,60.56,20.54l-16.35,22.63c-15.71-11.95-30.38-17.6-46.31-17.6s-26.82,6.5-26.82,16.56c0,9.01,5.87,13.62,20.96,15.92l27.66,4.61c29.33,4.82,43.79,18.65,43.79,41.28,0,28.71-24.1,46.94-61.81,46.94-23.68,0-47.36-9.22-64.96-25.36l17.39-21.79Z"/>
  <path class="cls-1" d="M611.08,251.67h30.39v146.68h-30.39v-146.68Z"/>
  <path class="cls-1" d="M705.8,251.67h30.39v119.86h80.26v26.82h-110.64v-146.68Z"/>
  <path class="cls-1" d="M924.58,251.67h35.2l59.51,146.68h-32.9l-14.88-38.56h-60.56l-15.09,38.56h-31.64l60.35-146.68ZM962.3,335.49l-20.74-54.06-21.16,54.06h41.91Z"/>
  <path class="cls-1" d="M1069.39,251.67h71.66c29.76,0,50.71,18.65,50.71,45.47,0,18.65-11.31,33.95-28.71,40.86l32.48,60.35h-33.95l-28.71-56.16h-33.11v56.16h-30.39v-146.68ZM1099.78,277.87v39.39h38.55c13.62,0,22.63-7.96,22.63-19.7s-9.01-19.7-22.63-19.7h-38.55Z"/>
  <path class="cls-1" d="M1249.41,251.67h112.74v26.4h-82.35v33.53h54.27v25.57h-54.27v34.78h83.19v26.4h-113.58v-146.68Z"/>
  <path class="cls-1" d="M1427.11,353.31c17.18,14.88,32.06,21.37,49.66,21.37s29.97-7.12,29.97-18.44c0-10.06-6.71-15.09-24.1-18.02l-29.12-5.03c-25.15-4.19-38.35-17.81-38.35-39.19,0-27.45,22.21-44.42,57.83-44.42,21.38,0,44.22,7.75,60.56,20.54l-16.35,22.63c-15.71-11.95-30.38-17.6-46.31-17.6s-26.82,6.5-26.82,16.56c0,9.01,5.87,13.62,20.96,15.92l27.66,4.61c29.33,4.82,43.79,18.65,43.79,41.28,0,28.71-24.1,46.94-61.81,46.94-23.68,0-47.36-9.22-64.96-25.36l17.39-21.79Z"/>
  <g>
    <polygon class="cls-1" points="180.03 188.99 96.5 36.86 96.5 214.05 180.03 366.18 180.03 188.99"/>
    <polygon class="cls-1" points="180.03 424.95 263.56 272.82 263.56 450 180.03 602.13 180.03 424.95"/>
  </g>
</svg>