<svg id="Layer_1" data-name="Layer 1" xmlns="http://www.w3.org/2000/svg" viewBox="0 0 273.14 188.99"><defs><style>.cls-1{fill:#b49032;}</style></defs><path class="cls-1" d="M18.39,169.58l12.55-28.41,12.55,28.41,9.25-25.17h9.14L44.2,188.91,30.94,158.79,17.68,188.91,0,144.41H9.13Z"/><path class="cls-1" d="M64.82,144.41h8.25v41.25H64.82Z"/><path class="cls-1" d="M110.49,144.41h8.25v43.32L89,160.74v24.92H80.73V142.35l29.76,27Z"/><path class="cls-1" d="M136.84,154.55a15.39,15.39,0,0,0,0,21,13.47,13.47,0,0,0,9.9,4.12,16.51,16.51,0,0,0,7.69-1.82,15.46,15.46,0,0,0,5.56-4.72v9.78q-5.18,4.55-13.25,4.54-10,0-16.33-6.27T124.05,165q0-9.84,6.36-16.12t16.33-6.27q8.07,0,13.25,4.53V157a15.53,15.53,0,0,0-5.56-4.71,16.4,16.4,0,0,0-7.69-1.83A13.47,13.47,0,0,0,136.84,154.55Z"/><path class="cls-1" d="M175.61,168V178.3h18.56v7.36H167.36V144.41h26.81v7.37H175.61v9.13H193V168Z"/><path class="cls-1" d="M231.3,144.41h8.25v43.32l-29.76-27v24.92h-8.25V142.35l29.76,27Z"/><path class="cls-1" d="M243.67,151.78v-7.37h29.47v7.37H262.53v33.88h-8.25V151.78Z"/><path class="cls-1" d="M207.86,31.69a32.89,32.89,0,0,0-6.46-9.28l-.15-.14a21.72,21.72,0,0,0,13.39-4.85,6.17,6.17,0,0,0-1.35-.09c-7.73,1.35-14.75-.32-21.3-4-1.82-1-3.64-2-5.47-3.07A18,18,0,0,0,195.72.09,16,16,0,0,1,180,4.92c-1.08-.3-2.12-.72-3.22-.93a6.81,6.81,0,0,0-1.63-.11,14,14,0,0,0-7.56-1.39A25.35,25.35,0,0,1,161,1.83a1.84,1.84,0,0,0-2.21.84,3.93,3.93,0,0,1-.86,1,1.18,1.18,0,0,0,.38.61,2.39,2.39,0,0,0,1.69.54c4.79-.69,5.18,1.64,7.83,1.14a8.73,8.73,0,0,1-6.61,1,7.94,7.94,0,0,1-4.3-2.95,3.26,3.26,0,0,1-1.13-.16,50.89,50.89,0,0,1-5.14-2.11,8.2,8.2,0,0,1-.89-.55c-2.69-1.57-3.55-1.75-5.46.8a1.05,1.05,0,0,0,.07.11,1.82,1.82,0,0,0,1.6.32,4.64,4.64,0,0,1,1.69-.14c.38.08.75.36.74.74a.78.78,0,0,1-.51.64,1.63,1.63,0,0,1-.85.09,5.7,5.7,0,0,1-3-1.45l-.26.38a9.09,9.09,0,0,0-1.42,5.6,9.85,9.85,0,0,0,1.11,5A10.54,10.54,0,0,1,143.75,8a7.5,7.5,0,0,1,.6-1.36,1.38,1.38,0,0,1,1.08.66A3.83,3.83,0,0,1,146,9.43a33,33,0,0,0,.44,3.72,6.37,6.37,0,0,0,1.21,3.43,8.72,8.72,0,0,1,.4-4.39,2.19,2.19,0,0,1,1-1.25,2.44,2.44,0,0,1,1.63.08,11.3,11.3,0,0,0,4.38,1.48c2.9.3,4.9,3.52,9.08,2.81.22,0,.13,2.9-2.71,3.24-1.35.17-2-.23-3.35-.52a5.78,5.78,0,0,0-4.25.48,26.25,26.25,0,0,1-3.1,1.57,5.77,5.77,0,0,1-3.77.08,4.23,4.23,0,0,1-.69-1.53,4.32,4.32,0,0,1,.16-2.39,3.63,3.63,0,0,0-1.26,3,1.36,1.36,0,0,1-1.26,1.45c-.42,0-.62-.08-1-.1a.94.94,0,0,1-.53-.36,2.44,2.44,0,0,1-.31-.81,9.56,9.56,0,0,1,.52-3.34,6,6,0,0,0-1.34,2.69,5.5,5.5,0,0,0,.16,2.84l.15,1.15a1.2,1.2,0,0,0-.23,1.06c.33.76,0,.27,2.69.51a39.56,39.56,0,0,0,4.85.45,11.06,11.06,0,0,0,4.32-1.28,6,6,0,0,1,5.69-.31c1.73.87,3.39,1.85,5,2.85a11.6,11.6,0,0,0,4.36,1.69,7.28,7.28,0,0,0,4.31-.27,28.06,28.06,0,0,0,4.69-2.73c-.1.19-.17.4-.29.6a9.52,9.52,0,0,1-7.7,4.48c2.7,3.88,4.61,7.67,5.29,11.43a22.47,22.47,0,0,1,0,7.63,37.08,37.08,0,0,1-1,4l-.63,1.83c.17-.31-13.85,26.33-13.85,26.33l-8.87-14.53L126.55,27.11l0,.05,0-.05L94,81.1S81.85,62.29,78.06,52.51a19.55,19.55,0,0,1-.89-8.36c2-11.16,7.58-9.53,8.25-17.52-1,3.05-6.68,1.31-9.68,5.29,5.11-9.15,14.18-6.75,17.41-16.86-3.66,3.51-7.37,2-10.71,2.33,8.68-3.08,14.2-14.85,21.2-10.71C102.86,3.42,92.39-1,83.84,8.93,87.22,5.52,85.71,1.86,90.2.08c-13.48,1.42-10.55,7.39-14.65,11,.26-3.66-.41-7.64-2.77-9,.45,6.75-3.63,6.56-4.65,17.63.72,1.23-3.13-5.11-6.94-4.81,5.31,7.88-1.29,16.34-2.47,27.83a20.13,20.13,0,0,0-.11,4.89,20.54,20.54,0,0,0,1.23,4.67,22.82,22.82,0,0,0,1.54,3.09c-.14.29-.3.56-.42.86a17.84,17.84,0,0,0-1.5,9.24,14.45,14.45,0,0,0,1.3,4.84,12.72,12.72,0,0,0,3.35,4.22c2.63,2.12,4.89,3.38,6.85,5A33.91,33.91,0,0,1,76.25,85a53.71,53.71,0,0,1,4.45,6.7l2.84,5.51c.21.44.43.86.63,1.3l0,0L93.26,116l24-40.88,9.21-15.89,9.21,15.89L159.79,116l22.57-41.43a14.83,14.83,0,0,1-.21,5c3.63-3.79,5.62-8.38,6.73-13.71a14.78,14.78,0,0,1,0,7.92c1.2-.75,3.43-5.19,4.16-8.17a27.9,27.9,0,0,0,.61-9.29,22,22,0,0,1,2.22,9.43,32.3,32.3,0,0,0,2.52-18.34c2.12,1.4,3.37,4.38,3.25,7.94a15.66,15.66,0,0,0,2.19-7.75,16.92,16.92,0,0,0-1.66-7.8,11.73,11.73,0,0,1,6.07,4.28c0-3.55-3.36-9.63-8.69-15.62A27.61,27.61,0,0,1,207.86,31.69ZM66.65,62.85a14,14,0,0,0,.73,2.9c.05.14.1.26.14.4l2.36,4.58.09.11,0,0c-.82-.42-1.59-.82-2.25-1.21a6.89,6.89,0,0,1-2.2-2,12.54,12.54,0,0,1-1.41-3.1,13.57,13.57,0,0,1-.24-6.95A36.92,36.92,0,0,1,66,52.8a54.07,54.07,0,0,0,2.87-6,7.62,7.62,0,0,0,0-6.32A8.22,8.22,0,0,1,70,47.13a56.2,56.2,0,0,1-1.88,6.54,30.5,30.5,0,0,0-1.47,6.23A13.2,13.2,0,0,0,66.65,62.85Z"/></svg>