<svg id="Layer_1" data-name="Layer 1" xmlns="http://www.w3.org/2000/svg" viewBox="0 0 594.67 116.29"><defs><style>.cls-1{fill:#b49032;}</style></defs><path class="cls-1" d="M219.84,64.82,238.31,23l18.46,41.79,13.62-37h13.44l-26,65.46L238.31,49,218.8,93.26l-26-65.46h13.44Z"/><path class="cls-1" d="M288.16,27.8H300.3V88.49H288.16Z"/><path class="cls-1" d="M355.36,27.8H367.5V91.53L323.71,51.81V88.49H311.57V24.76l43.79,39.71Z"/><path class="cls-1" d="M394.12,42.71a20.88,20.88,0,0,0-6.07,15.43,20.9,20.9,0,0,0,6.07,15.44,19.87,19.87,0,0,0,14.56,6.07A24.15,24.15,0,0,0,420,77,22.75,22.75,0,0,0,428.19,70V84.41q-7.63,6.69-19.51,6.68-14.65,0-24-9.23T375.3,58.14q0-14.47,9.37-23.71t24-9.24q11.88,0,19.51,6.68V46.26A22.72,22.72,0,0,0,420,39.33a24.15,24.15,0,0,0-11.32-2.69A19.84,19.84,0,0,0,394.12,42.71Z"/><path class="cls-1" d="M451.17,62.48V77.65h27.31V88.49H439V27.8h39.45V38.63H451.17V52.07h25.58V62.48Z"/><path class="cls-1" d="M533.11,27.8h12.13V91.53L501.46,51.81V88.49H489.32V24.76l43.79,39.71Z"/><path class="cls-1" d="M551.32,38.63V27.8h43.35V38.63H579.06V88.49H566.92V38.63Z"/><path class="cls-1" d="M149.19,31.77a33.45,33.45,0,0,0-6.46-9.28s-.11-.09-.15-.14A21.76,21.76,0,0,0,156,17.5a5.63,5.63,0,0,0-1.35-.08c-7.74,1.34-14.76-.33-21.3-4-1.83-1-3.65-2-5.47-3.07A18,18,0,0,0,137,.17,16,16,0,0,1,121.27,5c-1.08-.3-2.12-.72-3.22-.93a6.28,6.28,0,0,0-1.62-.1,14,14,0,0,0-7.57-1.4,25.83,25.83,0,0,1-6.52-.65,1.84,1.84,0,0,0-2.21.83,3.92,3.92,0,0,1-.85,1,1.12,1.12,0,0,0,.38.61,2.32,2.32,0,0,0,1.68.54c4.8-.69,5.19,1.64,7.83,1.14a8.7,8.7,0,0,1-6.6,1,8,8,0,0,1-4.31-2.94A3.51,3.51,0,0,1,97.14,4,51.06,51.06,0,0,1,92,1.89a9.16,9.16,0,0,1-.88-.55c-2.7-1.57-3.56-1.75-5.46.8a.37.37,0,0,0,.07.12,1.82,1.82,0,0,0,1.59.31A4.71,4.71,0,0,1,89,2.43c.37.08.75.36.73.74a.81.81,0,0,1-.5.65,1.76,1.76,0,0,1-.85.08,5.66,5.66,0,0,1-3-1.45c-.09.12-.18.24-.27.38a9.1,9.1,0,0,0-1.42,5.6,9.83,9.83,0,0,0,1.12,5,10.42,10.42,0,0,1,.23-5.33,6.86,6.86,0,0,1,.59-1.36,1.37,1.37,0,0,1,1.08.66,3.67,3.67,0,0,1,.53,2.16,32.14,32.14,0,0,0,.45,3.73,6.21,6.21,0,0,0,1.21,3.42,8.5,8.5,0,0,1,.4-4.39,2.09,2.09,0,0,1,1-1.24A2.34,2.34,0,0,1,92,11.1a11,11,0,0,0,4.39,1.48c2.9.3,4.9,3.52,9.07,2.81.22,0,.13,2.9-2.7,3.25a8.67,8.67,0,0,1-3.36-.53,5.76,5.76,0,0,0-4.24.48A25.31,25.31,0,0,1,92,20.16a5.68,5.68,0,0,1-3.76.08,4.06,4.06,0,0,1-.7-1.53,4.41,4.41,0,0,1,.16-2.39,3.66,3.66,0,0,0-1.26,3,1.35,1.35,0,0,1-1.25,1.45c-.42,0-.63-.08-1-.1a.89.89,0,0,1-.52-.36,2.24,2.24,0,0,1-.31-.81,9.3,9.3,0,0,1,.51-3.33,6,6,0,0,0-1.33,2.68,5.68,5.68,0,0,0,.15,2.85l.15,1.14a1.23,1.23,0,0,0-.23,1.06c.33.76,0,.27,2.69.51a39.69,39.69,0,0,0,4.86.45,11.1,11.1,0,0,0,4.32-1.28,6,6,0,0,1,5.69-.31c1.72.87,3.39,1.85,5,2.86a11.73,11.73,0,0,0,4.35,1.69,7.4,7.4,0,0,0,4.32-.28,28,28,0,0,0,4.68-2.73,6.54,6.54,0,0,1-.28.6,9.55,9.55,0,0,1-7.71,4.48,29.82,29.82,0,0,1,5.29,11.43,22,22,0,0,1,0,7.63,33,33,0,0,1-1,4.05l-.63,1.83c.18-.31-13.85,26.33-13.85,26.33L91.5,66.65,67.87,27.19l0,0,0,0-32.5,54S23.18,62.37,19.38,52.6a19.77,19.77,0,0,1-.89-8.37c2-11.16,7.58-9.53,8.26-17.52-1,3.05-6.69,1.31-9.68,5.29,5.1-9.15,14.18-6.75,17.4-16.85-3.66,3.5-7.37,2-10.71,2.32C32.44,14.39,38,2.62,45,6.76,44.19,3.5,33.71-.89,25.16,9,28.55,5.6,27,1.94,31.52.16,18,1.58,21,7.55,16.88,11.14c.25-3.67-.41-7.65-2.77-9,.45,6.75-3.63,6.56-4.66,17.63C10.18,21,6.32,14.67,2.52,15,7.82,22.85,1.22,31.31,0,42.8a20.21,20.21,0,0,0-.11,4.9,20.63,20.63,0,0,0,1.24,4.66A22.79,22.79,0,0,0,2.7,55.45c-.14.29-.29.56-.42.86a17.86,17.86,0,0,0-1.5,9.25,15,15,0,0,0,1.3,4.83,12.72,12.72,0,0,0,3.35,4.22c2.64,2.12,4.9,3.38,6.86,5a34.78,34.78,0,0,1,5.29,5.42A53.65,53.65,0,0,1,22,91.78l2.85,5.51c.2.44.42.86.62,1.3l0,0,9,17.55L58.63,75.24l9.21-15.89,9.21,15.89,24.06,40.88,22.57-41.43a14.83,14.83,0,0,1-.21,5c3.63-3.79,5.62-8.38,6.73-13.71a14.78,14.78,0,0,1,0,7.92c1.2-.74,3.44-5.19,4.16-8.17a28.17,28.17,0,0,0,.62-9.29,22,22,0,0,1,2.22,9.43,32.3,32.3,0,0,0,2.52-18.34c2.11,1.4,3.36,4.38,3.25,7.94a15.75,15.75,0,0,0,2.18-7.75,16.9,16.9,0,0,0-1.65-7.8,11.77,11.77,0,0,1,6.07,4.28c0-3.55-3.37-9.63-8.69-15.62A27.61,27.61,0,0,1,149.19,31.77ZM8,62.93a13.83,13.83,0,0,0,.73,2.9l.15.4,2.36,4.58a1,1,0,0,1,.08.11s0,0,0,0c-.81-.41-1.59-.82-2.24-1.21a7,7,0,0,1-2.21-2,12.64,12.64,0,0,1-1.41-3.09,13.83,13.83,0,0,1-.24-7,39.82,39.82,0,0,1,2.11-4.82,55.12,55.12,0,0,0,2.88-6,7.7,7.7,0,0,0,0-6.32,8.26,8.26,0,0,1,1.12,6.61,53.79,53.79,0,0,1-1.88,6.54A31.17,31.17,0,0,0,8,60,13.2,13.2,0,0,0,8,62.93Z"/></svg>